Halibut-Extended Thin.ufo
<glyph name="exclam" format="2">
	<advance width="280"/>
	<unicode hex="0021"/>
	<outline>
		<contour>
			<point x="170" y="720" type="line"/>
			<point x="140" y="145" type="line"/>
			<point x="130" y="145" type="line"/>
			<point x="100" y="720" type="line"/>
		</contour>
		<component base="dotaccentcomb" xOffset="30" yOffset="-540"/>
	</outline>
</glyph>
<glyph name="numbersign" format="2">
  <advance width="744"/>
  <unicode hex="0023"/>
  <outline>
    <contour>
      <point x="20" y="175" type="line"/>
      <point x="192" y="175" type="line"/>
      <point x="156" y="0" type="line"/>
      <point x="183" y="0" type="line"/>
      <point x="219" y="175" type="line"/>
      <point x="476" y="175" type="line"/>
      <point x="440" y="0" type="line"/>
      <point x="468" y="0" type="line"/>
      <point x="504" y="175" type="line"/>
      <point x="688" y="175" type="line"/>
      <point x="688" y="200" type="line"/>
      <point x="509" y="200" type="line"/>
      <point x="548" y="395" type="line"/>
      <point x="724" y="395" type="line"/>
      <point x="724" y="420" type="line"/>
      <point x="553" y="420" type="line"/>
      <point x="590" y="600" type="line"/>
      <point x="562" y="600" type="line"/>
      <point x="525" y="420" type="line"/>
      <point x="268" y="420" type="line"/>
      <point x="305" y="600" type="line"/>
      <point x="278" y="600" type="line"/>
      <point x="241" y="420" type="line"/>
      <point x="62" y="420" type="line"/>
      <point x="62" y="395" type="line"/>
      <point x="236" y="395" type="line"/>
      <point x="197" y="200" type="line"/>
      <point x="20" y="200" type="line"/>
    </contour>
    <contour>
      <point x="224" y="200" type="line"/>
      <point x="263" y="395" type="line"/>
      <point x="520" y="395" type="line"/>
      <point x="481" y="200" type="line"/>
    </contour>
  </outline>
</glyph>
<glyph name="dollar" format="2">
  <advance width="740"/>
  <unicode hex="0024"/>
  <outline>
    <contour>
      <point x="356" y="690" type="line"/>
      <point x="356" y="-80" type="line"/>
      <point x="388" y="-80" type="line"/>
      <point x="388" y="690" type="line"/>
    </contour>
    <contour>
      <point x="45" y="61" type="line"/>
      <point x="144" y="5"/>
      <point x="246" y="-20"/>
      <point x="371" y="-20" type="curve" smooth="yes"/>
      <point x="565" y="-20"/>
      <point x="680" y="48"/>
      <point x="680" y="162" type="curve" smooth="yes"/>
      <point x="680" y="248"/>
      <point x="615" y="299"/>
      <point x="482" y="317" type="curve" smooth="yes"/>
      <point x="259" y="347" type="line" smooth="yes"/>
      <point x="160" y="361"/>
      <point x="118" y="394"/>
      <point x="120" y="456" type="curve" smooth="yes"/>
      <point x="122" y="545"/>
      <point x="212" y="598"/>
      <point x="361" y="598" type="curve" smooth="yes"/>
      <point x="427" y="598"/>
      <point x="493" y="587"/>
      <point x="559" y="565" type="curve"/>
      <point x="576" y="408" type="line"/>
      <point x="584" y="406" type="line"/>
      <point x="645" y="568" type="line"/>
      <point x="550" y="607"/>
      <point x="459" y="625"/>
      <point x="361" y="625" type="curve" smooth="yes"/>
      <point x="191" y="625"/>
      <point x="86" y="559"/>
      <point x="82" y="449" type="curve" smooth="yes"/>
      <point x="79" y="371"/>
      <point x="128" y="331"/>
      <point x="246" y="315" type="curve" smooth="yes"/>
      <point x="469" y="285" type="line" smooth="yes"/>
      <point x="586" y="269"/>
      <point x="645" y="223"/>
      <point x="644" y="148" type="curve" smooth="yes"/>
      <point x="642" y="58"/>
      <point x="553" y="10"/>
      <point x="391" y="10" type="curve" smooth="yes"/>
      <point x="285" y="10"/>
      <point x="190" y="30"/>
      <point x="131" y="66" type="curve"/>
      <point x="114" y="225" type="line"/>
      <point x="106" y="227" type="line"/>
    </contour>
  </outline>
</glyph>
<glyph name="ampersand" format="2">
  <advance width="761"/>
  <unicode hex="0026"/>
  <outline>
    <contour>
      <point x="10" y="179" type="curve" smooth="yes"/>
      <point x="10" y="69"/>
      <point x="155" y="-20"/>
      <point x="362" y="-20" type="curve" smooth="yes"/>
      <point x="622" y="-20"/>
      <point x="721" y="111"/>
      <point x="704" y="306" type="curve"/>
      <point x="801" y="331" type="line"/>
      <point x="799" y="339" type="line"/>
      <point x="369" y="341" type="line"/>
      <point x="408" y="164" type="line"/>
      <point x="416" y="166" type="line"/>
      <point x="450" y="315" type="line"/>
      <point x="680" y="315" type="line"/>
      <point x="663" y="327" type="line"/>
      <point x="708" y="104"/>
      <point x="571" y="10"/>
      <point x="369" y="10" type="curve" smooth="yes"/>
      <point x="177" y="10"/>
      <point x="49" y="98"/>
      <point x="49" y="185" type="curve" smooth="yes"/>
      <point x="49" y="262"/>
      <point x="114" y="316"/>
      <point x="237" y="314" type="curve"/>
      <point x="243" y="335" type="line"/>
      <point x="177" y="348"/>
      <point x="133" y="404"/>
      <point x="133" y="466" type="curve" smooth="yes"/>
      <point x="133" y="549"/>
      <point x="197" y="595"/>
      <point x="332" y="595" type="curve" smooth="yes"/>
      <point x="412" y="595"/>
      <point x="462" y="582"/>
      <point x="503" y="563" type="curve"/>
      <point x="530" y="408" type="line"/>
      <point x="538" y="406" type="line"/>
      <point x="589" y="559" type="line"/>
      <point x="517" y="600"/>
      <point x="419" y="625"/>
      <point x="338" y="625" type="curve" smooth="yes"/>
      <point x="177" y="625"/>
      <point x="94" y="559"/>
      <point x="94" y="463" type="curve" smooth="yes"/>
      <point x="94" y="402"/>
      <point x="131" y="340"/>
      <point x="209" y="319" type="curve"/>
      <point x="212" y="339" type="line"/>
      <point x="92" y="329"/>
      <point x="10" y="265"/>
    </contour>
  </outline>
</glyph>
<glyph name="quotesingle" format="2">
  <advance width="190"/>
  <unicode hex="0027"/>
  <outline>
    <contour>
      <point x="140" y="690" type="line"/>
      <point x="70" y="690" type="line"/>
      <point x="101" y="489" type="line"/>
      <point x="111" y="489" type="line"/>
    </contour>
  </outline>
</glyph>
<glyph name="parenleft" format="2">
  <advance width="347"/>
  <unicode hex="0028"/>
  <outline>
    <contour>
      <point x="259" y="700" type="line"/>
      <point x="170" y="596"/>
      <point x="110" y="441"/>
      <point x="110" y="291" type="curve" smooth="yes"/>
      <point x="110" y="147"/>
      <point x="168" y="-11"/>
      <point x="259" y="-118" type="curve"/>
      <point x="277" y="-105" type="line"/>
      <point x="190" y="26"/>
      <point x="148" y="162"/>
      <point x="148" y="291" type="curve" smooth="yes"/>
      <point x="148" y="420"/>
      <point x="190" y="556"/>
      <point x="277" y="687" type="curve"/>
    </contour>
  </outline>
</glyph>
<glyph name="asterisk" format="2">
  <advance width="328"/>
  <unicode hex="002A"/>
  <outline>
    <contour>
      <point x="135" y="690" type="line"/>
      <point x="157" y="571" type="line"/>
      <point x="28" y="626" type="line"/>
      <point x="10" y="580" type="line"/>
      <point x="150" y="559" type="line"/>
      <point x="49" y="477" type="line"/>
      <point x="96" y="449" type="line"/>
      <point x="164" y="552" type="line"/>
      <point x="229" y="447" type="line"/>
      <point x="277" y="476" type="line"/>
      <point x="176" y="559" type="line"/>
      <point x="318" y="580" type="line"/>
      <point x="300" y="626" type="line"/>
      <point x="171" y="571" type="line"/>
      <point x="193" y="690" type="line"/>
    </contour>
  </outline>
</glyph>
<glyph name="plus" format="2">
	<advance width="480"/>
	<unicode hex="002B"/>
	<outline>
		<contour>
			<point x="70" y="266" type="line"/>
			<point x="225" y="266" type="line"/>
			<point x="225" y="109" type="line"/>
			<point x="256" y="109" type="line"/>
			<point x="256" y="265" type="line"/>
			<point x="410" y="265" type="line"/>
			<point x="410" y="293" type="line"/>
			<point x="256" y="293" type="line"/>
			<point x="256" y="450" type="line"/>
			<point x="226" y="450" type="line"/>
			<point x="226" y="293" type="line"/>
			<point x="70" y="293" type="line"/>
		</contour>
	</outline>
</glyph>
<glyph name="comma" format="2">
  <advance width="298"/>
  <unicode hex="002C"/>
  <outline>
    <contour>
      <point x="208" y="88" type="line"/>
      <point x="138" y="88" type="line"/>
      <point x="90" y="-106" type="line"/>
      <point x="100" y="-106" type="line"/>
    </contour>
  </outline>
</glyph>
<glyph name="hyphen" format="2">
  <advance width="620"/>
  <unicode hex="002D"/>
  <outline>
    <contour>
      <point x="90" y="246" type="line"/>
      <point x="90" y="232" type="line"/>
      <point x="530" y="219" type="line"/>
      <point x="530" y="259" type="line"/>
    </contour>
  </outline>
</glyph>
<glyph name="slash" format="2">
  <advance width="496"/>
  <unicode hex="002F"/>
  <outline>
    <contour>
      <point x="20" y="-94" type="line"/>
      <point x="47" y="-110" type="line"/>
      <point x="506" y="691" type="line"/>
      <point x="478" y="708" type="line"/>
    </contour>
  </outline>
</glyph>
<glyph name="zero" format="2">
  <advance width="822"/>
  <unicode hex="0030"/>
  <outline>
    <contour>
      <point x="412" y="-20" type="curve" smooth="yes"/>
      <point x="621" y="-20"/>
      <point x="762" y="113"/>
      <point x="762" y="310" type="curve" smooth="yes"/>
      <point x="762" y="502"/>
      <point x="629" y="625"/>
      <point x="421" y="625" type="curve" smooth="yes"/>
      <point x="204" y="625"/>
      <point x="60" y="496"/>
      <point x="60" y="302" type="curve" smooth="yes"/>
      <point x="60" y="111"/>
      <point x="203" y="-20"/>
    </contour>
    <contour>
      <point x="416" y="15" type="curve" smooth="yes"/>
      <point x="230" y="15"/>
      <point x="102" y="134"/>
      <point x="102" y="308" type="curve" smooth="yes"/>
      <point x="102" y="476"/>
      <point x="230" y="590"/>
      <point x="419" y="590" type="curve" smooth="yes"/>
      <point x="602" y="590"/>
      <point x="720" y="479"/>
      <point x="720" y="305" type="curve" smooth="yes"/>
      <point x="720" y="130"/>
      <point x="599" y="15"/>
    </contour>
  </outline>
</glyph>
<glyph name="one" format="2">
  <advance width="464"/>
  <unicode hex="0031"/>
  <outline>
    <contour>
      <point x="32" y="460" type="line"/>
      <point x="217" y="511" type="line"/>
      <point x="217" y="50" type="line"/>
      <point x="37" y="8" type="line"/>
      <point x="39" y="0" type="line"/>
      <point x="432" y="0" type="line"/>
      <point x="434" y="8" type="line"/>
      <point x="254" y="50" type="line"/>
      <point x="251" y="620" type="line"/>
      <point x="30" y="468" type="line"/>
    </contour>
  </outline>
</glyph>
<glyph name="two" format="2">
	<advance width="810"/>
	<unicode hex="0032"/>
	<outline>
		<contour>
			<point x="385" y="595" type="curve" smooth="yes"/>
			<point x="527" y="595"/>
			<point x="620" y="548"/>
			<point x="619" y="463" type="curve" smooth="yes"/>
			<point x="618" y="350"/>
			<point x="465" y="232"/>
			<point x="70" y="34" type="curve"/>
			<point x="88" y="0" type="line"/>
			<point x="710" y="0" type="line"/>
			<point x="690" y="210" type="line"/>
			<point x="682" y="208" type="line"/>
			<point x="640" y="30" type="line"/>
			<point x="89" y="23" type="line"/>
			<point x="95" y="14" type="line"/>
			<point x="523" y="227"/>
			<point x="660" y="338"/>
			<point x="659" y="469" type="curve" smooth="yes"/>
			<point x="658" y="569"/>
			<point x="555" y="623"/>
			<point x="394" y="623" type="curve" smooth="yes"/>
			<point x="308" y="623"/>
			<point x="213" y="612"/>
			<point x="100" y="580" type="curve"/>
			<point x="161" y="383" type="line"/>
			<point x="169" y="385" type="line"/>
			<point x="186" y="570" type="line"/>
			<point x="241" y="587"/>
			<point x="313" y="595"/>
		</contour>
	</outline>
</glyph>
<glyph name="three" format="2">
  <advance width="786"/>
  <unicode hex="0033"/>
  <outline>
    <contour>
      <point x="450" y="343" type="curve" smooth="yes"/>
      <point x="586" y="343"/>
      <point x="689" y="275"/>
      <point x="689" y="186" type="curve" smooth="yes"/>
      <point x="689" y="85"/>
      <point x="549" y="5"/>
      <point x="373" y="5" type="curve" smooth="yes"/>
      <point x="292" y="5"/>
      <point x="208" y="22"/>
      <point x="115" y="58" type="curve"/>
      <point x="99" y="201" type="line"/>
      <point x="91" y="203" type="line"/>
      <point x="40" y="49" type="line"/>
      <point x="152" y="4"/>
      <point x="267" y="-20"/>
      <point x="373" y="-20" type="curve" smooth="yes"/>
      <point x="576" y="-20"/>
      <point x="726" y="71"/>
      <point x="726" y="195" type="curve" smooth="yes"/>
      <point x="726" y="297"/>
      <point x="617" y="369"/>
      <point x="463" y="369" type="curve" smooth="yes"/>
      <point x="378" y="369"/>
      <point x="274" y="347"/>
      <point x="234" y="321" type="curve"/>
      <point x="235" y="310" type="line"/>
      <point x="678" y="575" type="line"/>
      <point x="660" y="600" type="line"/>
      <point x="62" y="612" type="line"/>
      <point x="102" y="416" type="line"/>
      <point x="110" y="418" type="line"/>
      <point x="142" y="581" type="line"/>
      <point x="648" y="582" type="line"/>
      <point x="644" y="587" type="line"/>
      <point x="216" y="331" type="line"/>
      <point x="233" y="301" type="line"/>
      <point x="301" y="327"/>
      <point x="383" y="343"/>
    </contour>
  </outline>
</glyph>
<glyph name="four" format="2">
  <advance width="806"/>
  <unicode hex="0034"/>
  <outline>
    <contour>
      <point x="762" y="165" type="line"/>
      <point x="762" y="192" type="line"/>
      <point x="46" y="192" type="line"/>
      <point x="42" y="174" type="line"/>
      <point x="512" y="566" type="line"/>
      <point x="504" y="570" type="line"/>
      <point x="504" y="50" type="line"/>
      <point x="329" y="8" type="line"/>
      <point x="331" y="0" type="line"/>
      <point x="669" y="0" type="line"/>
      <point x="671" y="8" type="line"/>
      <point x="541" y="50" type="line"/>
      <point x="541" y="552" type="line"/>
      <point x="661" y="592" type="line"/>
      <point x="659" y="600" type="line"/>
      <point x="504" y="600" type="line"/>
      <point x="20" y="190" type="line"/>
      <point x="39" y="165" type="line"/>
    </contour>
  </outline>
</glyph>
<glyph name="five" format="2">
	<advance width="836"/>
	<unicode hex="0035"/>
	<outline>
		<contour>
			<point x="766" y="192" type="curve" smooth="yes"/>
			<point x="766" y="305"/>
			<point x="634" y="380"/>
			<point x="435" y="380" type="curve" smooth="yes"/>
			<point x="320" y="380"/>
			<point x="201" y="351"/>
			<point x="136" y="318" type="curve"/>
			<point x="147" y="305" type="line"/>
			<point x="214" y="592" type="line"/>
			<point x="197" y="583" type="line"/>
			<point x="637" y="581" type="line"/>
			<point x="671" y="422" type="line"/>
			<point x="679" y="420" type="line"/>
			<point x="708" y="612" type="line"/>
			<point x="188" y="600" type="line"/>
			<point x="122" y="315" type="line"/>
			<point x="137" y="295" type="line"/>
			<point x="224" y="331"/>
			<point x="340" y="355"/>
			<point x="428" y="355" type="curve" smooth="yes"/>
			<point x="608" y="355"/>
			<point x="728" y="287"/>
			<point x="728" y="186" type="curve" smooth="yes"/>
			<point x="728" y="77"/>
			<point x="602" y="5"/>
			<point x="412" y="5" type="curve" smooth="yes"/>
			<point x="306" y="5"/>
			<point x="204" y="27"/>
			<point x="141" y="59" type="curve"/>
			<point x="124" y="208" type="line"/>
			<point x="116" y="210" type="line"/>
			<point x="65" y="49" type="line"/>
			<point x="156" y="8"/>
			<point x="287" y="-20"/>
			<point x="408" y="-20" type="curve" smooth="yes"/>
			<point x="623" y="-20"/>
			<point x="766" y="65"/>
		</contour>
	</outline>
</glyph>
<glyph name="six" format="2">
  <advance width="861"/>
  <unicode hex="0036"/>
  <outline>
    <contour>
      <point x="98" y="239" type="curve"/>
      <point x="103" y="202" type="line"/>
      <point x="188" y="284"/>
      <point x="327" y="344"/>
      <point x="461" y="344" type="curve" smooth="yes"/>
      <point x="635" y="344"/>
      <point x="754" y="282"/>
      <point x="754" y="191" type="curve" smooth="yes"/>
      <point x="754" y="94"/>
      <point x="615" y="15"/>
      <point x="446" y="15" type="curve" smooth="yes"/>
      <point x="241" y="15"/>
      <point x="107" y="127"/>
      <point x="107" y="299" type="curve" smooth="yes"/>
      <point x="107" y="474"/>
      <point x="243" y="590"/>
      <point x="448" y="590" type="curve" smooth="yes"/>
      <point x="521" y="590"/>
      <point x="596" y="576"/>
      <point x="661" y="549" type="curve"/>
      <point x="686" y="422" type="line"/>
      <point x="694" y="420" type="line"/>
      <point x="735" y="577" type="line"/>
      <point x="671" y="603"/>
      <point x="541" y="625"/>
      <point x="451" y="625" type="curve" smooth="yes"/>
      <point x="227" y="625"/>
      <point x="70" y="488"/>
      <point x="70" y="291" type="curve" smooth="yes"/>
      <point x="70" y="104"/>
      <point x="217" y="-20"/>
      <point x="439" y="-20" type="curve" smooth="yes"/>
      <point x="635" y="-20"/>
      <point x="791" y="79"/>
      <point x="791" y="202" type="curve" smooth="yes"/>
      <point x="791" y="310"/>
      <point x="670" y="375"/>
      <point x="472" y="374" type="curve" smooth="yes"/>
      <point x="319" y="373"/>
      <point x="208" y="333"/>
    </contour>
  </outline>
</glyph>
<glyph name="seven" format="2">
	<advance width="690"/>
	<unicode hex="0037"/>
	<outline>
		<contour>
			<point x="45" y="612" type="line"/>
			<point x="75" y="405" type="line"/>
			<point x="83" y="407" type="line"/>
			<point x="115" y="580" type="line"/>
			<point x="605" y="577" type="line"/>
			<point x="595" y="588" type="line"/>
			<point x="274" y="50" type="line"/>
			<point x="114" y="8" type="line"/>
			<point x="116" y="0" type="line"/>
			<point x="469" y="0" type="line"/>
			<point x="471" y="8" type="line"/>
			<point x="311" y="50" type="line"/>
			<point x="630" y="577" type="line"/>
			<point x="619" y="600" type="line"/>
		</contour>
	</outline>
</glyph>
<glyph name="eight" format="2">
  <advance width="872"/>
  <unicode hex="0038"/>
  <outline>
    <contour>
      <point x="369" y="317" type="curve" smooth="yes"/>
      <point x="516" y="297" type="line" smooth="yes"/>
      <point x="681" y="275"/>
      <point x="775" y="228"/>
      <point x="775" y="158" type="curve" smooth="yes"/>
      <point x="775" y="59"/>
      <point x="667" y="11"/>
      <point x="461" y="11" type="curve" smooth="yes"/>
      <point x="235" y="11"/>
      <point x="117" y="64"/>
      <point x="117" y="165" type="curve" smooth="yes"/>
      <point x="117" y="233"/>
      <point x="239" y="292"/>
      <point x="441" y="310" type="curve"/>
      <point x="399" y="327" type="line"/>
      <point x="209" y="317"/>
      <point x="80" y="247"/>
      <point x="80" y="159" type="curve" smooth="yes"/>
      <point x="80" y="41"/>
      <point x="209" y="-20"/>
      <point x="457" y="-20" type="curve" smooth="yes"/>
      <point x="690" y="-20"/>
      <point x="812" y="44"/>
      <point x="812" y="167" type="curve" smooth="yes"/>
      <point x="812" y="247"/>
      <point x="721" y="299"/>
      <point x="533" y="327" type="curve" smooth="yes"/>
      <point x="351" y="354" type="line" smooth="yes"/>
      <point x="222" y="373"/>
      <point x="162" y="426"/>
      <point x="162" y="481" type="curve" smooth="yes"/>
      <point x="162" y="550"/>
      <point x="274" y="596"/>
      <point x="441" y="596" type="curve" smooth="yes"/>
      <point x="609" y="596"/>
      <point x="721" y="547"/>
      <point x="721" y="473" type="curve" smooth="yes"/>
      <point x="721" y="416"/>
      <point x="629" y="356"/>
      <point x="451" y="334" type="curve"/>
      <point x="491" y="317" type="line"/>
      <point x="652" y="339"/>
      <point x="757" y="402"/>
      <point x="757" y="482" type="curve" smooth="yes"/>
      <point x="757" y="568"/>
      <point x="635" y="625"/>
      <point x="451" y="625" type="curve" smooth="yes"/>
      <point x="255" y="625"/>
      <point x="125" y="563"/>
      <point x="125" y="470" type="curve" smooth="yes"/>
      <point x="125" y="402"/>
      <point x="199" y="340"/>
    </contour>
  </outline>
</glyph>
<glyph name="nine" format="2">
	<advance width="861"/>
	<unicode hex="0039"/>
	<outline>
		<contour>
			<point x="763" y="366" type="curve"/>
			<point x="758" y="403" type="line"/>
			<point x="673" y="321"/>
			<point x="534" y="261"/>
			<point x="400" y="261" type="curve" smooth="yes"/>
			<point x="226" y="261"/>
			<point x="107" y="323"/>
			<point x="107" y="414" type="curve" smooth="yes"/>
			<point x="107" y="511"/>
			<point x="246" y="590"/>
			<point x="415" y="590" type="curve" smooth="yes"/>
			<point x="620" y="590"/>
			<point x="754" y="478"/>
			<point x="754" y="306" type="curve" smooth="yes"/>
			<point x="754" y="131"/>
			<point x="618" y="15"/>
			<point x="413" y="15" type="curve" smooth="yes"/>
			<point x="330" y="15"/>
			<point x="214" y="34"/>
			<point x="150" y="69" type="curve"/>
			<point x="125" y="196" type="line"/>
			<point x="117" y="198" type="line"/>
			<point x="76" y="41" type="line"/>
			<point x="142" y="5"/>
			<point x="291" y="-20"/>
			<point x="410" y="-20" type="curve" smooth="yes"/>
			<point x="634" y="-20"/>
			<point x="791" y="117"/>
			<point x="791" y="314" type="curve" smooth="yes"/>
			<point x="791" y="501"/>
			<point x="644" y="625"/>
			<point x="422" y="625" type="curve" smooth="yes"/>
			<point x="226" y="625"/>
			<point x="70" y="526"/>
			<point x="70" y="403" type="curve" smooth="yes"/>
			<point x="70" y="295"/>
			<point x="191" y="230"/>
			<point x="389" y="231" type="curve" smooth="yes"/>
			<point x="542" y="232"/>
			<point x="653" y="272"/>
		</contour>
	</outline>
</glyph>
<glyph name="equal" format="2">
  <advance width="500"/>
  <unicode hex="003D"/>
  <outline>
    <contour>
      <point x="70" y="375" type="line"/>
      <point x="70" y="347" type="line"/>
      <point x="430" y="347" type="line"/>
      <point x="430" y="375" type="line"/>
    </contour>
    <contour>
      <point x="70" y="215" type="line"/>
      <point x="70" y="187" type="line"/>
      <point x="430" y="187" type="line"/>
      <point x="430" y="215" type="line"/>
    </contour>
  </outline>
</glyph>
<glyph name="greater" format="2">
  <advance width="490"/>
  <unicode hex="003E"/>
  <outline>
    <contour>
      <point x="70" y="128" type="line"/>
      <point x="420" y="282" type="line"/>
      <point x="420" y="307" type="line"/>
      <point x="70" y="462" type="line"/>
      <point x="70" y="429" type="line"/>
      <point x="398" y="285" type="line"/>
      <point x="398" y="304" type="line"/>
      <point x="70" y="161" type="line"/>
    </contour>
  </outline>
</glyph>
<glyph name="question" format="2">
  <advance width="669"/>
  <unicode hex="003F"/>
  <outline>
    <contour>
      <point x="345" y="682" type="curve" smooth="yes"/>
      <point x="511" y="682"/>
      <point x="570" y="622"/>
      <point x="569" y="529" type="curve" smooth="yes"/>
      <point x="568" y="409"/>
      <point x="465" y="315"/>
      <point x="230" y="166" type="curve"/>
      <point x="241" y="142" type="line"/>
      <point x="473" y="142" type="line"/>
      <point x="475" y="150" type="line"/>
      <point x="289" y="197" type="line"/>
      <point x="255" y="156" type="line"/>
      <point x="508" y="303"/>
      <point x="610" y="399"/>
      <point x="609" y="535" type="curve" smooth="yes"/>
      <point x="608" y="644"/>
      <point x="540" y="710"/>
      <point x="354" y="710" type="curve" smooth="yes"/>
      <point x="248" y="710"/>
      <point x="176" y="699"/>
      <point x="60" y="667" type="curve"/>
      <point x="121" y="490" type="line"/>
      <point x="129" y="492" type="line"/>
      <point x="146" y="657" type="line"/>
      <point x="203" y="674"/>
      <point x="265" y="682"/>
    </contour>
    <component base="dotaccentcomb" xOffset="239" yOffset="-540"/>
  </outline>
</glyph>
<glyph name="at" format="2">
	<advance width="909"/>
	<unicode hex="0040"/>
	<outline>
		<contour>
			<point x="100" y="202" type="curve" smooth="yes"/>
			<point x="100" y="34"/>
			<point x="251" y="-77"/>
			<point x="480" y="-77" type="curve" smooth="yes"/>
			<point x="616" y="-77"/>
			<point x="715" y="-43"/>
			<point x="781" y="27" type="curve"/>
			<point x="769" y="38" type="line"/>
			<point x="713" y="-14"/>
			<point x="610" y="-51"/>
			<point x="484" y="-51" type="curve" smooth="yes"/>
			<point x="274" y="-51"/>
			<point x="135" y="50"/>
			<point x="135" y="205" type="curve" smooth="yes"/>
			<point x="135" y="348"/>
			<point x="301" y="459"/>
			<point x="474" y="459" type="curve" smooth="yes"/>
			<point x="667" y="459"/>
			<point x="804" y="363"/>
			<point x="804" y="225" type="curve" smooth="yes"/>
			<point x="804" y="149"/>
			<point x="767" y="112"/>
			<point x="696" y="112" type="curve" smooth="yes"/>
			<point x="639" y="112"/>
			<point x="607" y="140"/>
			<point x="612" y="190" type="curve" smooth="yes"/>
			<point x="628" y="358" type="line"/>
			<point x="596" y="348" type="line"/>
			<point x="595" y="328" type="line"/>
			<point x="566" y="344"/>
			<point x="531" y="355"/>
			<point x="491" y="355" type="curve" smooth="yes"/>
			<point x="376" y="355"/>
			<point x="275" y="286"/>
			<point x="275" y="198" type="curve" smooth="yes"/>
			<point x="275" y="138"/>
			<point x="326" y="91"/>
			<point x="416" y="91" type="curve" smooth="yes"/>
			<point x="492" y="91"/>
			<point x="549" y="116"/>
			<point x="598" y="165" type="curve"/>
			<point x="584" y="179" type="line"/>
			<point x="576" y="125"/>
			<point x="628" y="88"/>
			<point x="692" y="88" type="curve" smooth="yes"/>
			<point x="786" y="88"/>
			<point x="839" y="142"/>
			<point x="839" y="236" type="curve" smooth="yes"/>
			<point x="839" y="386"/>
			<point x="692" y="487"/>
			<point x="475" y="487" type="curve" smooth="yes"/>
			<point x="281" y="487"/>
			<point x="100" y="362"/>
		</contour>
		<contour>
			<point x="310" y="207" type="curve" smooth="yes"/>
			<point x="310" y="266"/>
			<point x="366" y="328"/>
			<point x="485" y="328" type="curve" smooth="yes"/>
			<point x="526" y="328"/>
			<point x="562" y="320"/>
			<point x="591" y="300" type="curve"/>
			<point x="580" y="180" type="line"/>
			<point x="543" y="141"/>
			<point x="491" y="117"/>
			<point x="422" y="117" type="curve" smooth="yes"/>
			<point x="347" y="117"/>
			<point x="310" y="156"/>
		</contour>
	</outline>
</glyph>
<glyph name="A" format="2">
	<advance width="830"/>
	<unicode hex="0041"/>
	<anchor x="414" y="0" name="bottom"/>
	<anchor x="726" y="10" name="ogonek"/>
	<anchor x="398" y="600" name="top"/>
	<outline>
		<contour>
			<point x="650" y="193" type="line"/>
			<point x="650" y="223" type="line"/>
			<point x="177" y="223" type="line"/>
			<point x="177" y="193" type="line"/>
		</contour>
		<contour>
			<point x="404" y="572" type="line"/>
			<point x="720" y="50" type="line"/>
			<point x="530" y="8" type="line"/>
			<point x="532" y="0" type="line"/>
			<point x="878" y="0" type="line"/>
			<point x="880" y="8" type="line"/>
			<point x="760" y="50" type="line"/>
			<point x="423" y="600" type="line"/>
			<point x="206" y="600" type="line"/>
			<point x="204" y="592" type="line"/>
			<point x="370" y="552" type="line"/>
			<point x="70" y="49" type="line"/>
			<point x="-50" y="7" type="line"/>
			<point x="-48" y="-1" type="line"/>
			<point x="290" y="-1" type="line"/>
			<point x="292" y="7" type="line"/>
			<point x="107" y="49" type="line"/>
			<point x="417" y="572" type="line"/>
		</contour>
	</outline>
</glyph>
<glyph name="B" format="2">
	<advance width="941"/>
	<unicode hex="0042"/>
	<guideline x="572" y="293" angle="270"/>
	<anchor x="484" y="0" name="bottom"/>
	<anchor x="484" y="300" name="center"/>
	<anchor x="445" y="600" name="top"/>
	<outline>
		<contour>
			<point x="30" y="3" type="line"/>
			<point x="32" y="0" type="line"/>
			<point x="513" y="1" type="line" smooth="yes"/>
			<point x="770" y="2"/>
			<point x="881" y="56"/>
			<point x="881" y="165" type="curve" smooth="yes"/>
			<point x="881" y="262"/>
			<point x="786" y="307"/>
			<point x="609" y="312" type="curve"/>
			<point x="613" y="303" type="line"/>
			<point x="774" y="316"/>
			<point x="846" y="369"/>
			<point x="846" y="454" type="curve" smooth="yes"/>
			<point x="846" y="551"/>
			<point x="745" y="600"/>
			<point x="513" y="600" type="curve" smooth="yes"/>
			<point x="32" y="600" type="line"/>
			<point x="30" y="597" type="line"/>
			<point x="180" y="550" type="line"/>
			<point x="180" y="50" type="line"/>
		</contour>
		<contour>
			<point x="217" y="40" type="line"/>
			<point x="217" y="291" type="line"/>
			<point x="503" y="291" type="line" smooth="yes"/>
			<point x="738" y="291"/>
			<point x="844" y="248"/>
			<point x="844" y="160" type="curve" smooth="yes"/>
			<point x="844" y="73"/>
			<point x="740" y="28"/>
			<point x="533" y="33" type="curve" smooth="yes"/>
		</contour>
		<contour>
			<point x="217" y="321" type="line"/>
			<point x="217" y="572" type="line"/>
			<point x="503" y="576" type="line" smooth="yes"/>
			<point x="711" y="579"/>
			<point x="809" y="536"/>
			<point x="809" y="450" type="curve" smooth="yes"/>
			<point x="809" y="365"/>
			<point x="714" y="321"/>
			<point x="513" y="321" type="curve" smooth="yes"/>
		</contour>
	</outline>
</glyph>
<glyph name="D" format="2">
	<advance width="973"/>
	<unicode hex="0044"/>
	<anchor x="491" y="0" name="bottom"/>
	<anchor x="491" y="300" name="center"/>
	<anchor x="493" y="600" name="top"/>
	<outline>
		<contour>
			<point x="32" y="0" type="line"/>
			<point x="453" y="1" type="line" smooth="yes"/>
			<point x="772" y="2"/>
			<point x="928" y="93"/>
			<point x="928" y="300" type="curve" smooth="yes"/>
			<point x="928" y="494"/>
			<point x="757" y="600"/>
			<point x="443" y="600" type="curve" smooth="yes"/>
			<point x="32" y="600" type="line"/>
			<point x="30" y="591" type="line"/>
			<point x="180" y="550" type="line"/>
			<point x="180" y="50" type="line"/>
			<point x="30" y="8" type="line"/>
		</contour>
		<contour>
			<point x="217" y="40" type="line"/>
			<point x="217" y="572" type="line"/>
			<point x="433" y="572" type="line" smooth="yes"/>
			<point x="718" y="572"/>
			<point x="887" y="474"/>
			<point x="887" y="287" type="curve" smooth="yes"/>
			<point x="887" y="109"/>
			<point x="732" y="32"/>
			<point x="463" y="36" type="curve" smooth="yes"/>
		</contour>
	</outline>
</glyph>
<glyph name="E" format="2">
	<advance width="909"/>
	<unicode hex="0045"/>
	<anchor x="474" y="0" name="bottom"/>
	<anchor x="736" y="10" name="ogonek"/>
	<anchor x="471" y="600" name="top"/>
	<anchor x="88" y="600" name="topleft"/>
	<outline>
		<contour>
			<point x="30" y="8" type="line"/>
			<point x="32" y="0" type="line"/>
			<point x="849" y="0" type="line"/>
			<point x="828" y="199" type="line"/>
			<point x="820" y="197" type="line"/>
			<point x="779" y="34" type="line"/>
			<point x="217" y="24" type="line"/>
			<point x="217" y="282" type="line"/>
			<point x="567" y="279" type="line"/>
			<point x="632" y="157" type="line"/>
			<point x="640" y="159" type="line"/>
			<point x="621" y="293" type="line"/>
			<point x="638" y="428" type="line"/>
			<point x="630" y="430" type="line"/>
			<point x="567" y="309" type="line"/>
			<point x="217" y="306" type="line"/>
			<point x="217" y="578" type="line"/>
			<point x="775" y="575" type="line"/>
			<point x="799" y="422" type="line"/>
			<point x="807" y="420" type="line"/>
			<point x="846" y="612" type="line"/>
			<point x="32" y="600" type="line"/>
			<point x="30" y="592" type="line"/>
			<point x="180" y="550" type="line"/>
			<point x="180" y="50" type="line"/>
		</contour>
	</outline>
</glyph>
<glyph name="F" format="2">
	<advance width="805"/>
	<unicode hex="0046"/>
	<anchor x="448" y="0" name="bottom"/>
	<anchor x="460" y="600" name="top"/>
	<outline>
		<contour>
			<point x="32" y="600" type="line"/>
			<point x="30" y="592" type="line"/>
			<point x="180" y="550" type="line"/>
			<point x="181" y="50" type="line"/>
			<point x="31" y="8" type="line"/>
			<point x="33" y="0" type="line"/>
			<point x="415" y="0" type="line"/>
			<point x="417" y="8" type="line"/>
			<point x="218" y="53" type="line"/>
			<point x="218" y="268" type="line"/>
			<point x="535" y="266" type="line"/>
			<point x="600" y="146" type="line"/>
			<point x="608" y="149" type="line"/>
			<point x="589" y="280" type="line"/>
			<point x="606" y="412" type="line"/>
			<point x="598" y="415" type="line"/>
			<point x="535" y="295" type="line"/>
			<point x="218" y="291" type="line"/>
			<point x="217" y="577" type="line"/>
			<point x="724" y="581" type="line"/>
			<point x="748" y="422" type="line"/>
			<point x="755" y="420" type="line"/>
			<point x="795" y="612" type="line"/>
		</contour>
	</outline>
</glyph>
<glyph name="G" format="2">
	<advance width="875"/>
	<unicode hex="0047"/>
	<anchor x="473" y="0" name="bottom"/>
	<anchor x="452" y="600" name="top"/>
	<outline>
		<contour>
			<point x="741" y="212" type="line"/>
			<point x="776" y="-15" type="line"/>
			<point x="786" y="-17" type="line"/>
			<point x="801" y="269" type="line"/>
			<point x="346" y="272" type="line"/>
			<point x="348" y="257" type="line"/>
		</contour>
		<contour>
			<point x="450" y="593" type="curve" smooth="yes"/>
			<point x="551" y="593"/>
			<point x="671" y="573"/>
			<point x="719" y="555" type="curve"/>
			<point x="736" y="378" type="line"/>
			<point x="744" y="376" type="line"/>
			<point x="805" y="572" type="line"/>
			<point x="733" y="597"/>
			<point x="595" y="625"/>
			<point x="453" y="625" type="curve" smooth="yes"/>
			<point x="192" y="625"/>
			<point x="40" y="502"/>
			<point x="40" y="304" type="curve" smooth="yes"/>
			<point x="40" y="106"/>
			<point x="205" y="-20"/>
			<point x="465" y="-20" type="curve" smooth="yes"/>
			<point x="600" y="-20"/>
			<point x="708" y="12"/>
			<point x="785" y="77" type="curve"/>
			<point x="772" y="97" type="line"/>
			<point x="703" y="44"/>
			<point x="595" y="12"/>
			<point x="479" y="12" type="curve" smooth="yes"/>
			<point x="240" y="12"/>
			<point x="78" y="134"/>
			<point x="78" y="310" type="curve" smooth="yes"/>
			<point x="78" y="483"/>
			<point x="226" y="593"/>
		</contour>
	</outline>
</glyph>
<glyph name="H" format="2">
  <advance width="1050"/>
  <unicode hex="0048"/>
  <anchor x="525" y="0" name="bottom"/>
  <anchor x="525" y="300" name="center"/>
  <anchor x="525" y="600" name="top"/>
  <anchor x="-28" y="600" name="topleft"/>
  <outline>
    <contour>
      <point x="197" y="50" type="line"/>
      <point x="197" y="555" type="line"/>
      <point x="367" y="592" type="line"/>
      <point x="365" y="600" type="line"/>
      <point x="32" y="600" type="line"/>
      <point x="30" y="592" type="line"/>
      <point x="160" y="555" type="line"/>
      <point x="160" y="50" type="line"/>
      <point x="30" y="8" type="line"/>
      <point x="32" y="0" type="line"/>
      <point x="365" y="0" type="line"/>
      <point x="367" y="8" type="line"/>
    </contour>
    <contour>
      <point x="868" y="285" type="line"/>
      <point x="868" y="315" type="line"/>
      <point x="178" y="315" type="line"/>
      <point x="178" y="285" type="line"/>
    </contour>
    <contour>
      <point x="853" y="555" type="line"/>
      <point x="853" y="50" type="line"/>
      <point x="683" y="8" type="line"/>
      <point x="685" y="0" type="line"/>
      <point x="1018" y="0" type="line"/>
      <point x="1020" y="8" type="line"/>
      <point x="890" y="50" type="line"/>
      <point x="890" y="555" type="line"/>
      <point x="1020" y="592" type="line"/>
      <point x="1018" y="600" type="line"/>
      <point x="685" y="600" type="line"/>
      <point x="683" y="592" type="line"/>
    </contour>
  </outline>
</glyph>
<glyph name="I" format="2">
  <advance width="407"/>
  <unicode hex="0049"/>
  <anchor x="193" y="10" name="ogonek"/>
  <anchor x="200" y="600" name="top"/>
  <anchor x="1" y="600" name="topleft"/>
  <outline>
    <contour>
      <point x="30" y="8" type="line"/>
      <point x="32" y="0" type="line"/>
      <point x="370" y="0" type="line"/>
      <point x="372" y="8" type="line"/>
      <point x="222" y="50" type="line"/>
      <point x="222" y="550" type="line"/>
      <point x="377" y="592" type="line"/>
      <point x="375" y="600" type="line"/>
      <point x="37" y="600" type="line"/>
      <point x="35" y="592" type="line"/>
      <point x="185" y="550" type="line"/>
      <point x="185" y="50" type="line"/>
    </contour>
  </outline>
</glyph>
<glyph name="J" format="2">
	<advance width="654"/>
	<unicode hex="004A"/>
	<anchor x="317" y="0" name="bottom"/>
	<anchor x="327" y="600" name="top"/>
	<outline>
		<contour>
			<point x="54" y="56" type="curve"/>
			<point x="61" y="66" type="line"/>
			<point x="113" y="40"/>
			<point x="203" y="10"/>
			<point x="323" y="10" type="curve" smooth="yes"/>
			<point x="436" y="10"/>
			<point x="507" y="72"/>
			<point x="507" y="180" type="curve" smooth="yes"/>
			<point x="507" y="590" type="line"/>
			<point x="523" y="577" type="line"/>
			<point x="203" y="577" type="line"/>
			<point x="169" y="418" type="line"/>
			<point x="161" y="416" type="line"/>
			<point x="122" y="608" type="line"/>
			<point x="544" y="600" type="line"/>
			<point x="544" y="200" type="line" smooth="yes"/>
			<point x="544" y="55"/>
			<point x="471" y="-20"/>
			<point x="318" y="-20" type="curve" smooth="yes"/>
			<point x="217" y="-20"/>
			<point x="94" y="24"/>
		</contour>
	</outline>
</glyph>
<glyph name="K" format="2">
  <advance width="966"/>
  <unicode hex="004B"/>
  <anchor x="493" y="0" name="bottom"/>
  <anchor x="493" y="600" name="top"/>
  <outline>
    <contour>
      <point x="456" y="357" type="line"/>
      <point x="435" y="333" type="line"/>
      <point x="752" y="50" type="line"/>
      <point x="612" y="8" type="line"/>
      <point x="614" y="0" type="line"/>
      <point x="956" y="0" type="line"/>
      <point x="958" y="8" type="line"/>
      <point x="803" y="50" type="line"/>
    </contour>
    <contour>
      <point x="198" y="189" type="line"/>
      <point x="198" y="150" type="line"/>
      <point x="763" y="550" type="line"/>
      <point x="913" y="592" type="line"/>
      <point x="911" y="600" type="line"/>
      <point x="563" y="600" type="line"/>
      <point x="561" y="592" type="line"/>
      <point x="711" y="550" type="line"/>
    </contour>
    <contour>
      <point x="222" y="50" type="line"/>
      <point x="222" y="550" type="line"/>
      <point x="377" y="592" type="line"/>
      <point x="375" y="600" type="line"/>
      <point x="37" y="600" type="line"/>
      <point x="35" y="592" type="line"/>
      <point x="185" y="550" type="line"/>
      <point x="185" y="50" type="line"/>
      <point x="30" y="8" type="line"/>
      <point x="32" y="0" type="line"/>
      <point x="370" y="0" type="line"/>
      <point x="372" y="8" type="line"/>
    </contour>
  </outline>
</glyph>
<glyph name="L" format="2">
	<advance width="837"/>
	<unicode hex="004C"/>
	<anchor x="439" y="0" name="bottom"/>
	<anchor x="439" y="300" name="center"/>
	<anchor x="239" y="600" name="top"/>
	<anchor x="459" y="600" name="topright"/>
	<outline>
		<contour>
			<point x="30" y="8" type="line"/>
			<point x="32" y="0" type="line"/>
			<point x="767" y="0" type="line"/>
			<point x="746" y="199" type="line"/>
			<point x="738" y="197" type="line"/>
			<point x="697" y="25" type="line"/>
			<point x="217" y="25" type="line"/>
			<point x="217" y="550" type="line"/>
			<point x="372" y="592" type="line"/>
			<point x="370" y="600" type="line"/>
			<point x="32" y="600" type="line"/>
			<point x="30" y="592" type="line"/>
			<point x="180" y="550" type="line"/>
			<point x="180" y="50" type="line"/>
		</contour>
	</outline>
</glyph>
<glyph name="M" format="2">
  <advance width="1195"/>
  <unicode hex="004D"/>
  <anchor x="565" y="0" name="bottom"/>
  <anchor x="565" y="600" name="top"/>
  <outline>
    <contour>
      <point x="10" y="8" type="line"/>
      <point x="12" y="0" type="line"/>
      <point x="367" y="0" type="line"/>
      <point x="369" y="8" type="line"/>
      <point x="182" y="50" type="line"/>
      <point x="301" y="541" type="line"/>
      <point x="292" y="540" type="line"/>
      <point x="585" y="0" type="line"/>
      <point x="598" y="0" type="line"/>
      <point x="919" y="595" type="line"/>
      <point x="883" y="565" type="line"/>
      <point x="1005" y="50" type="line"/>
      <point x="818" y="8" type="line"/>
      <point x="820" y="0" type="line"/>
      <point x="1178" y="0" type="line"/>
      <point x="1180" y="8" type="line"/>
      <point x="1040" y="50" type="line"/>
      <point x="923" y="552" type="line"/>
      <point x="1073" y="592" type="line"/>
      <point x="1071" y="600" type="line"/>
      <point x="889" y="600" type="line"/>
      <point x="578" y="31" type="line"/>
      <point x="607" y="31" type="line"/>
      <point x="296" y="600" type="line"/>
      <point x="126" y="600" type="line"/>
      <point x="124" y="592" type="line"/>
      <point x="270" y="549" type="line"/>
      <point x="150" y="50" type="line"/>
    </contour>
  </outline>
</glyph>
<glyph name="N" format="2">
	<advance width="1034"/>
	<unicode hex="004E"/>
	<anchor x="529" y="0" name="bottom"/>
	<anchor x="529" y="600" name="top"/>
	<outline>
		<contour>
			<point x="880" y="-2" type="line"/>
			<point x="893" y="0" type="line"/>
			<point x="893" y="550" type="line"/>
			<point x="1014" y="592" type="line"/>
			<point x="1012" y="600" type="line"/>
			<point x="679" y="600" type="line"/>
			<point x="677" y="592" type="line"/>
			<point x="856" y="550" type="line"/>
			<point x="856" y="50" type="line"/>
			<point x="883" y="48" type="line"/>
			<point x="198" y="600" type="line"/>
			<point x="22" y="600" type="line"/>
			<point x="20" y="592" type="line"/>
			<point x="170" y="550" type="line"/>
			<point x="170" y="50" type="line"/>
			<point x="50" y="8" type="line"/>
			<point x="50" y="0" type="line"/>
			<point x="388" y="0" type="line"/>
			<point x="388" y="8" type="line"/>
			<point x="207" y="50" type="line"/>
			<point x="207" y="550" type="line"/>
			<point x="193" y="553" type="line"/>
		</contour>
	</outline>
</glyph>
<glyph name="O" format="2">
  <advance width="927"/>
  <unicode hex="004F"/>
  <anchor x="461" y="0" name="bottom"/>
  <anchor x="461" y="300" name="center"/>
  <anchor x="848" y="10" name="ogonek"/>
  <anchor x="461" y="600" name="top"/>
  <anchor x="-3" y="600" name="topleft"/>
  <anchor x="925" y="600" name="topright"/>
  <outline>
    <contour>
      <point x="472" y="-20" type="curve" smooth="yes"/>
      <point x="718" y="-20"/>
      <point x="882" y="107"/>
      <point x="882" y="297" type="curve" smooth="yes"/>
      <point x="882" y="494"/>
      <point x="718" y="625"/>
      <point x="471" y="625" type="curve" smooth="yes"/>
      <point x="212" y="625"/>
      <point x="40" y="499"/>
      <point x="40" y="309" type="curve" smooth="yes"/>
      <point x="40" y="112"/>
      <point x="213" y="-20"/>
    </contour>
    <contour>
      <point x="476" y="15" type="curve" smooth="yes"/>
      <point x="240" y="15"/>
      <point x="82" y="135"/>
      <point x="82" y="315" type="curve" smooth="yes"/>
      <point x="82" y="480"/>
      <point x="236" y="590"/>
      <point x="468" y="590" type="curve" smooth="yes"/>
      <point x="691" y="590"/>
      <point x="840" y="471"/>
      <point x="840" y="292" type="curve" smooth="yes"/>
      <point x="840" y="126"/>
      <point x="694" y="15"/>
    </contour>
  </outline>
</glyph>
<glyph name="P" format="2">
  <advance width="829"/>
  <unicode hex="0050"/>
  <anchor x="431" y="0" name="bottom"/>
  <anchor x="431" y="600" name="top"/>
  <outline>
    <contour>
      <point x="40" y="8" type="line"/>
      <point x="42" y="0" type="line"/>
      <point x="406" y="0" type="line"/>
      <point x="408" y="8" type="line"/>
      <point x="217" y="52" type="line"/>
      <point x="217" y="255" type="line"/>
      <point x="518" y="256" type="line" smooth="yes"/>
      <point x="696" y="257"/>
      <point x="789" y="315"/>
      <point x="789" y="426" type="curve" smooth="yes"/>
      <point x="789" y="540"/>
      <point x="693" y="600"/>
      <point x="508" y="600" type="curve" smooth="yes"/>
      <point x="32" y="600" type="line"/>
      <point x="30" y="592" type="line"/>
      <point x="180" y="550" type="line"/>
      <point x="180" y="50" type="line"/>
    </contour>
    <contour>
      <point x="217" y="285" type="line"/>
      <point x="217" y="573" type="line"/>
      <point x="508" y="573" type="line" smooth="yes"/>
      <point x="668" y="573"/>
      <point x="751" y="520"/>
      <point x="751" y="418" type="curve" smooth="yes"/>
      <point x="751" y="331"/>
      <point x="675" y="285"/>
      <point x="528" y="285" type="curve" smooth="yes"/>
    </contour>
  </outline>
</glyph>
<glyph name="R" format="2">
	<advance width="895"/>
	<unicode hex="0052"/>
	<anchor x="480" y="0" name="bottom"/>
	<anchor x="460" y="600" name="top"/>
	<outline>
		<contour>
			<point x="217" y="275" type="line"/>
			<point x="568" y="276" type="line" smooth="yes"/>
			<point x="766" y="277"/>
			<point x="839" y="337"/>
			<point x="839" y="436" type="curve" smooth="yes"/>
			<point x="839" y="544"/>
			<point x="743" y="600"/>
			<point x="558" y="600" type="curve" smooth="yes"/>
			<point x="32" y="600" type="line"/>
			<point x="30" y="592" type="line"/>
			<point x="180" y="550" type="line"/>
			<point x="180" y="50" type="line"/>
			<point x="40" y="8" type="line"/>
			<point x="42" y="0" type="line"/>
			<point x="406" y="0" type="line"/>
			<point x="408" y="8" type="line"/>
			<point x="217" y="52" type="line"/>
		</contour>
		<contour>
			<point x="217" y="305" type="line"/>
			<point x="217" y="573" type="line"/>
			<point x="558" y="573" type="line" smooth="yes"/>
			<point x="718" y="573"/>
			<point x="801" y="523"/>
			<point x="801" y="428" type="curve" smooth="yes"/>
			<point x="801" y="361"/>
			<point x="760" y="305"/>
			<point x="578" y="305" type="curve" smooth="yes"/>
		</contour>
		<contour>
			<point x="579" y="285" type="line"/>
			<point x="538" y="285" type="line"/>
			<point x="679" y="50" type="line"/>
			<point x="539" y="8" type="line"/>
			<point x="541" y="0" type="line"/>
			<point x="878" y="0" type="line"/>
			<point x="880" y="8" type="line"/>
			<point x="720" y="50" type="line"/>
		</contour>
	</outline>
</glyph>
<glyph name="S" format="2">
	<advance width="840"/>
	<unicode hex="0053"/>
	<anchor x="411" y="0" name="bottom"/>
	<anchor x="411" y="600" name="top"/>
	<outline>
		<contour>
			<point x="45" y="50" type="line"/>
			<point x="153" y="6"/>
			<point x="272" y="-20"/>
			<point x="431" y="-20" type="curve" smooth="yes"/>
			<point x="657" y="-20"/>
			<point x="780" y="44"/>
			<point x="780" y="162" type="curve" smooth="yes"/>
			<point x="780" y="253"/>
			<point x="708" y="300"/>
			<point x="542" y="318" type="curve" smooth="yes"/>
			<point x="299" y="344" type="line" smooth="yes"/>
			<point x="169" y="358"/>
			<point x="118" y="390"/>
			<point x="120" y="456" type="curve" smooth="yes"/>
			<point x="122" y="549"/>
			<point x="219" y="598"/>
			<point x="401" y="598" type="curve" smooth="yes"/>
			<point x="495" y="598"/>
			<point x="597" y="585"/>
			<point x="659" y="571" type="curve"/>
			<point x="676" y="414" type="line"/>
			<point x="684" y="412" type="line"/>
			<point x="745" y="589" type="line"/>
			<point x="660" y="609"/>
			<point x="525" y="625"/>
			<point x="401" y="625" type="curve" smooth="yes"/>
			<point x="198" y="625"/>
			<point x="86" y="563"/>
			<point x="82" y="449" type="curve" smooth="yes"/>
			<point x="79" y="366"/>
			<point x="135" y="329"/>
			<point x="286" y="313" type="curve" smooth="yes"/>
			<point x="529" y="287" type="line" smooth="yes"/>
			<point x="672" y="272"/>
			<point x="745" y="225"/>
			<point x="744" y="148" type="curve" smooth="yes"/>
			<point x="742" y="59"/>
			<point x="639" y="10"/>
			<point x="451" y="10" type="curve" smooth="yes"/>
			<point x="324" y="10"/>
			<point x="214" y="28"/>
			<point x="131" y="59" type="curve"/>
			<point x="114" y="218" type="line"/>
			<point x="106" y="220" type="line"/>
		</contour>
	</outline>
</glyph>
<glyph name="T" format="2">
	<advance width="827"/>
	<unicode hex="0054"/>
	<anchor x="427" y="0" name="bottom"/>
	<anchor x="414" y="300" name="center"/>
	<anchor x="414" y="600" name="top"/>
	<outline>
		<contour>
			<point x="35" y="610" type="line"/>
			<point x="73" y="419" type="line"/>
			<point x="81" y="421" type="line"/>
			<point x="107" y="579" type="line"/>
			<point x="395" y="579" type="line"/>
			<point x="396" y="50" type="line"/>
			<point x="246" y="8" type="line"/>
			<point x="248" y="0" type="line"/>
			<point x="581" y="0" type="line"/>
			<point x="583" y="8" type="line"/>
			<point x="433" y="50" type="line"/>
			<point x="432" y="579" type="line"/>
			<point x="721" y="580" type="line"/>
			<point x="760" y="421" type="line"/>
			<point x="768" y="419" type="line"/>
			<point x="792" y="610" type="line"/>
			<point x="414" y="600" type="line"/>
		</contour>
	</outline>
</glyph>
<glyph name="U" format="2">
	<advance width="1039"/>
	<unicode hex="0055"/>
	<anchor x="526" y="0" name="bottom"/>
	<anchor x="691" y="10" name="ogonek"/>
	<anchor x="526" y="600" name="top"/>
	<anchor x="1064" y="600" name="topright"/>
	<outline>
		<contour>
			<point x="160" y="279" type="line" smooth="yes"/>
			<point x="160" y="83"/>
			<point x="284" y="-20"/>
			<point x="523" y="-20" type="curve" smooth="yes"/>
			<point x="754" y="-20"/>
			<point x="874" y="96"/>
			<point x="874" y="261" type="curve" smooth="yes"/>
			<point x="874" y="550" type="line"/>
			<point x="1024" y="592" type="line"/>
			<point x="1022" y="600" type="line"/>
			<point x="689" y="600" type="line"/>
			<point x="687" y="592" type="line"/>
			<point x="837" y="550" type="line"/>
			<point x="837" y="256" type="line" smooth="yes"/>
			<point x="837" y="118"/>
			<point x="731" y="15"/>
			<point x="527" y="15" type="curve" smooth="yes"/>
			<point x="310" y="15"/>
			<point x="197" y="108"/>
			<point x="197" y="285" type="curve" smooth="yes"/>
			<point x="197" y="550" type="line"/>
			<point x="347" y="592" type="line"/>
			<point x="345" y="600" type="line"/>
			<point x="12" y="600" type="line"/>
			<point x="10" y="592" type="line"/>
			<point x="160" y="550" type="line"/>
		</contour>
	</outline>
</glyph>
<glyph name="V" format="2">
  <advance width="855"/>
  <unicode hex="0056"/>
  <anchor x="443" y="0" name="bottom"/>
  <anchor x="439" y="600" name="top"/>
  <outline>
    <contour>
      <point x="-50" y="592" type="line"/>
      <point x="80" y="550" type="line"/>
      <point x="414" y="0" type="line"/>
      <point x="441" y="0" type="line"/>
      <point x="765" y="550" type="line"/>
      <point x="895" y="592" type="line"/>
      <point x="893" y="600" type="line"/>
      <point x="554" y="600" type="line"/>
      <point x="552" y="592" type="line"/>
      <point x="727" y="550" type="line"/>
      <point x="425" y="32" type="line"/>
      <point x="435" y="33" type="line"/>
      <point x="123" y="550" type="line"/>
      <point x="298" y="592" type="line"/>
      <point x="296" y="600" type="line"/>
      <point x="-48" y="600" type="line"/>
    </contour>
  </outline>
</glyph>
<glyph name="W" format="2">
	<advance width="1142"/>
	<unicode hex="0057"/>
	<anchor x="555" y="0" name="bottom"/>
	<anchor x="555" y="600" name="top"/>
	<outline>
		<contour>
			<point x="-60" y="592" type="line"/>
			<point x="106" y="547" type="line"/>
			<point x="341" y="0" type="line"/>
			<point x="364" y="0" type="line"/>
			<point x="582" y="585" type="line"/>
			<point x="563" y="574" type="line"/>
			<point x="793" y="0" type="line"/>
			<point x="816" y="0" type="line"/>
			<point x="1030" y="547" type="line"/>
			<point x="1192" y="592" type="line"/>
			<point x="1190" y="600" type="line"/>
			<point x="786" y="600" type="line"/>
			<point x="784" y="592" type="line"/>
			<point x="989" y="547" type="line"/>
			<point x="803" y="50" type="line"/>
			<point x="809" y="52" type="line"/>
			<point x="591" y="600" type="line"/>
			<point x="540" y="579" type="line"/>
			<point x="349" y="56" type="line"/>
			<point x="359" y="44" type="line"/>
			<point x="148" y="547" type="line"/>
			<point x="362" y="592" type="line"/>
			<point x="359" y="600" type="line"/>
			<point x="-58" y="600" type="line"/>
		</contour>
	</outline>
</glyph>
<glyph name="X" format="2">
  <advance width="976"/>
  <unicode hex="0058"/>
  <anchor x="493" y="0" name="bottom"/>
  <anchor x="493" y="600" name="top"/>
  <outline>
    <contour>
      <point x="482" y="322" type="line"/>
      <point x="503" y="300" type="line"/>
      <point x="817" y="550" type="line"/>
      <point x="957" y="592" type="line"/>
      <point x="955" y="600" type="line"/>
      <point x="607" y="600" type="line"/>
      <point x="605" y="592" type="line"/>
      <point x="765" y="550" type="line"/>
    </contour>
    <contour>
      <point x="498" y="294" type="line"/>
      <point x="475" y="318" type="line"/>
      <point x="130" y="50" type="line"/>
      <point x="-10" y="8" type="line"/>
      <point x="-8" y="0" type="line"/>
      <point x="354" y="0" type="line"/>
      <point x="356" y="8" type="line"/>
      <point x="186" y="50" type="line"/>
    </contour>
    <contour>
      <point x="856" y="50" type="line"/>
      <point x="211" y="550" type="line"/>
      <point x="371" y="592" type="line"/>
      <point x="368" y="600" type="line"/>
      <point x="26" y="600" type="line"/>
      <point x="24" y="592" type="line"/>
      <point x="154" y="550" type="line"/>
      <point x="799" y="50" type="line"/>
      <point x="629" y="8" type="line"/>
      <point x="631" y="0" type="line"/>
      <point x="984" y="0" type="line"/>
      <point x="986" y="8" type="line"/>
    </contour>
  </outline>
</glyph>
<glyph name="Y" format="2">
  <advance width="948"/>
  <unicode hex="0059"/>
  <anchor x="464" y="0" name="bottom"/>
  <anchor x="484" y="600" name="top"/>
  <anchor x="-8" y="600" name="topleft"/>
  <outline>
    <contour>
      <point x="0" y="592" type="line"/>
      <point x="120" y="550" type="line"/>
      <point x="453" y="250" type="line"/>
      <point x="453" y="50" type="line"/>
      <point x="298" y="6" type="line"/>
      <point x="300" y="0" type="line"/>
      <point x="638" y="0" type="line"/>
      <point x="640" y="6" type="line"/>
      <point x="490" y="50" type="line"/>
      <point x="490" y="251" type="line"/>
      <point x="808" y="550" type="line"/>
      <point x="928" y="592" type="line"/>
      <point x="926" y="600" type="line"/>
      <point x="586" y="600" type="line"/>
      <point x="584" y="592" type="line"/>
      <point x="764" y="550" type="line"/>
      <point x="462" y="264" type="line"/>
      <point x="478" y="267" type="line"/>
      <point x="166" y="550" type="line"/>
      <point x="346" y="592" type="line"/>
      <point x="344" y="600" type="line"/>
      <point x="2" y="600" type="line"/>
    </contour>
  </outline>
</glyph>
<glyph name="Z" format="2">
  <advance width="785"/>
  <unicode hex="005A"/>
  <anchor x="394" y="0" name="bottom"/>
  <anchor x="394" y="300" name="center"/>
  <anchor x="394" y="600" name="top"/>
  <outline>
    <contour>
      <point x="33" y="0" type="line"/>
      <point x="765" y="0" type="line"/>
      <point x="745" y="205" type="line"/>
      <point x="737" y="203" type="line"/>
      <point x="685" y="30" type="line"/>
      <point x="63" y="28" type="line"/>
      <point x="52" y="9" type="line"/>
      <point x="724" y="576" type="line"/>
      <point x="711" y="600" type="line"/>
      <point x="27" y="612" type="line"/>
      <point x="75" y="420" type="line"/>
      <point x="83" y="422" type="line"/>
      <point x="108" y="581" type="line"/>
      <point x="681" y="575" type="line"/>
      <point x="692" y="592" type="line"/>
      <point x="20" y="24" type="line"/>
    </contour>
  </outline>
</glyph>
<glyph name="bracketleft" format="2">
  <advance width="380"/>
  <unicode hex="005B"/>
  <outline>
    <contour>
      <point x="110" y="-117" type="line"/>
      <point x="328" y="-117" type="line"/>
      <point x="330" y="-109" type="line"/>
      <point x="140" y="-62" type="line"/>
      <point x="140" y="645" type="line"/>
      <point x="330" y="692" type="line"/>
      <point x="328" y="700" type="line"/>
      <point x="110" y="700" type="line"/>
    </contour>
  </outline>
</glyph>
<glyph name="asciicircum" format="2">
	<advance width="415"/>
	<unicode hex="005E"/>
	<outline>
		<contour>
			<point x="214" y="590" type="line"/>
			<point x="198" y="590" type="line"/>
			<point x="40" y="410" type="line"/>
			<point x="78" y="410" type="line"/>
			<point x="221" y="572" type="line"/>
			<point x="191" y="572" type="line"/>
			<point x="336" y="410" type="line"/>
			<point x="375" y="410" type="line"/>
		</contour>
	</outline>
</glyph>
<glyph name="underscore" format="2">
	<advance width="1019"/>
	<unicode hex="005F"/>
	<outline>
		<contour>
			<point x="50" y="33" type="line"/>
			<point x="50" y="0" type="line"/>
			<point x="969" y="0" type="line"/>
			<point x="969" y="33" type="line"/>
		</contour>
	</outline>
</glyph>
<glyph name="a" format="2">
  <advance width="648"/>
  <unicode hex="0061"/>
  <anchor x="309" y="0" name="bottom"/>
  <anchor x="527" y="10" name="ogonek"/>
  <anchor x="309" y="401" name="top"/>
  <outline>
    <contour>
      <point x="39" y="109" type="curve" smooth="yes"/>
      <point x="39" y="36"/>
      <point x="108" y="-20"/>
      <point x="261" y="-20" type="curve" smooth="yes"/>
      <point x="349" y="-20"/>
      <point x="433" y="5"/>
      <point x="506" y="46" type="curve"/>
      <point x="506" y="-23" type="line"/>
      <point x="644" y="50" type="line"/>
      <point x="642" y="58" type="line"/>
      <point x="536" y="48" type="line"/>
      <point x="542" y="175" type="line" smooth="yes"/>
      <point x="551" y="355"/>
      <point x="481" y="421"/>
      <point x="320" y="421" type="curve" smooth="yes"/>
      <point x="225" y="421"/>
      <point x="127" y="399"/>
      <point x="46" y="366" type="curve"/>
      <point x="87" y="259" type="line"/>
      <point x="95" y="261" type="line"/>
      <point x="106" y="360" type="line"/>
      <point x="146" y="375"/>
      <point x="234" y="392"/>
      <point x="301" y="392" type="curve" smooth="yes"/>
      <point x="453" y="392"/>
      <point x="512" y="332"/>
      <point x="506" y="175" type="curve"/>
      <point x="522" y="185" type="line"/>
      <point x="482" y="210"/>
      <point x="396" y="239"/>
      <point x="289" y="239" type="curve" smooth="yes"/>
      <point x="120" y="239"/>
      <point x="39" y="184"/>
    </contour>
    <contour>
      <point x="80" y="113" type="curve" smooth="yes"/>
      <point x="80" y="175"/>
      <point x="149" y="212"/>
      <point x="282" y="212" type="curve" smooth="yes"/>
      <point x="375" y="212"/>
      <point x="457" y="190"/>
      <point x="506" y="163" type="curve"/>
      <point x="506" y="75" type="line"/>
      <point x="433" y="33"/>
      <point x="363" y="10"/>
      <point x="274" y="10" type="curve" smooth="yes"/>
      <point x="153" y="10"/>
      <point x="80" y="46"/>
    </contour>
  </outline>
</glyph>
<glyph name="b" format="2">
	<advance width="691"/>
	<unicode hex="0062"/>
	<anchor x="332" y="0" name="bottom"/>
	<anchor x="332" y="205" name="center"/>
	<anchor x="340" y="401" name="top"/>
	<outline>
		<contour>
			<point x="119" y="68" type="curve"/>
			<point x="119" y="302" type="line"/>
			<point x="170" y="351"/>
			<point x="273" y="391"/>
			<point x="372" y="391" type="curve" smooth="yes"/>
			<point x="501" y="391"/>
			<point x="608" y="319"/>
			<point x="608" y="198" type="curve" smooth="yes"/>
			<point x="608" y="85"/>
			<point x="501" y="7"/>
			<point x="347" y="7" type="curve" smooth="yes"/>
			<point x="265" y="7"/>
			<point x="173" y="31"/>
		</contour>
		<contour>
			<point x="-61" y="640" type="line"/>
			<point x="-59" y="632" type="line"/>
			<point x="80" y="640" type="line"/>
			<point x="80" y="52" type="line"/>
			<point x="151" y="5"/>
			<point x="244" y="-20"/>
			<point x="335" y="-20" type="curve" smooth="yes"/>
			<point x="521" y="-20"/>
			<point x="647" y="74"/>
			<point x="647" y="211" type="curve" smooth="yes"/>
			<point x="647" y="338"/>
			<point x="540" y="421"/>
			<point x="387" y="421" type="curve" smooth="yes"/>
			<point x="287" y="421"/>
			<point x="186" y="387"/>
			<point x="119" y="336" type="curve"/>
			<point x="119" y="720" type="line"/>
		</contour>
	</outline>
</glyph>
<glyph name="c" format="2">
  <advance width="652"/>
  <unicode hex="0063"/>
  <anchor x="346" y="0" name="bottom"/>
  <anchor x="326" y="410" name="top"/>
  <outline>
    <contour>
      <point x="603" y="84" type="curve"/>
      <point x="592" y="95" type="line"/>
      <point x="517" y="42"/>
      <point x="426" y="15"/>
      <point x="333" y="15" type="curve" smooth="yes"/>
      <point x="182" y="15"/>
      <point x="78" y="92"/>
      <point x="78" y="205" type="curve" smooth="yes"/>
      <point x="78" y="322"/>
      <point x="179" y="396"/>
      <point x="335" y="396" type="curve" smooth="yes"/>
      <point x="398" y="396"/>
      <point x="462" y="385"/>
      <point x="518" y="368" type="curve"/>
      <point x="538" y="248" type="line"/>
      <point x="546" y="246" type="line"/>
      <point x="581" y="385" type="line"/>
      <point x="524" y="403"/>
      <point x="432" y="421"/>
      <point x="346" y="421" type="curve" smooth="yes"/>
      <point x="161" y="421"/>
      <point x="39" y="329"/>
      <point x="39" y="190" type="curve" smooth="yes"/>
      <point x="39" y="64"/>
      <point x="152" y="-21"/>
      <point x="309" y="-21" type="curve" smooth="yes"/>
      <point x="423" y="-21"/>
      <point x="533" y="29"/>
    </contour>
  </outline>
</glyph>
<glyph name="d" format="2">
  <advance width="734"/>
  <unicode hex="0064"/>
  <anchor x="373" y="0" name="bottom"/>
  <anchor x="373" y="205" name="center"/>
  <anchor x="373" y="700" name="top"/>
  <anchor x="712" y="700" name="topright"/>
  <outline>
    <contour>
      <point x="39" y="191" type="curve" smooth="yes"/>
      <point x="39" y="67"/>
      <point x="150" y="-20"/>
      <point x="308" y="-20" type="curve" smooth="yes"/>
      <point x="395" y="-20"/>
      <point x="491" y="8"/>
      <point x="567" y="65" type="curve"/>
      <point x="567" y="-13" type="line"/>
      <point x="745" y="63" type="line"/>
      <point x="743" y="71" type="line"/>
      <point x="606" y="61" type="line"/>
      <point x="606" y="711" type="line"/>
      <point x="416" y="640" type="line"/>
      <point x="420" y="632" type="line"/>
      <point x="567" y="640" type="line"/>
      <point x="567" y="368" type="line"/>
      <point x="506" y="403"/>
      <point x="433" y="421"/>
      <point x="351" y="421" type="curve" smooth="yes"/>
      <point x="167" y="421"/>
      <point x="39" y="326"/>
    </contour>
    <contour>
      <point x="567" y="330" type="curve"/>
      <point x="567" y="100" type="line"/>
      <point x="512" y="46"/>
      <point x="413" y="11"/>
      <point x="323" y="11" type="curve" smooth="yes"/>
      <point x="182" y="11"/>
      <point x="78" y="92"/>
      <point x="78" y="203" type="curve" smooth="yes"/>
      <point x="78" y="314"/>
      <point x="184" y="392"/>
      <point x="337" y="392" type="curve" smooth="yes"/>
      <point x="424" y="392"/>
      <point x="512" y="369"/>
    </contour>
  </outline>
</glyph>
<glyph name="e" format="2">
	<advance width="639"/>
	<unicode hex="0065"/>
	<anchor x="324" y="0" name="bottom"/>
	<anchor x="444" y="10" name="ogonek"/>
	<anchor x="314" y="401" name="top"/>
	<outline>
		<contour>
			<point x="59" y="220" type="line"/>
			<point x="61" y="203" type="line"/>
			<point x="592" y="205" type="line"/>
			<point x="590" y="337"/>
			<point x="487" y="421"/>
			<point x="329" y="421" type="curve" smooth="yes"/>
			<point x="158" y="421"/>
			<point x="39" y="330"/>
			<point x="39" y="199" type="curve" smooth="yes"/>
			<point x="39" y="68"/>
			<point x="147" y="-20"/>
			<point x="309" y="-20" type="curve" smooth="yes"/>
			<point x="422" y="-20"/>
			<point x="524" y="22"/>
			<point x="595" y="95" type="curve"/>
			<point x="585" y="105" type="line"/>
			<point x="510" y="40"/>
			<point x="424" y="9"/>
			<point x="332" y="9" type="curve" smooth="yes"/>
			<point x="184" y="9"/>
			<point x="81" y="88"/>
			<point x="78" y="205" type="curve" smooth="yes"/>
			<point x="75" y="317"/>
			<point x="170" y="395"/>
			<point x="312" y="395" type="curve" smooth="yes"/>
			<point x="442" y="395"/>
			<point x="539" y="329"/>
			<point x="543" y="236" type="curve"/>
		</contour>
	</outline>
</glyph>
<glyph name="f" format="2">
	<advance width="518"/>
	<unicode hex="0066"/>
	<anchor x="253" y="0" name="bottom"/>
	<anchor x="253" y="691" name="top"/>
	<outline>
		<contour>
			<point x="138" y="543" type="curve" smooth="yes"/>
			<point x="138" y="415" type="line"/>
			<point x="28" y="384" type="line"/>
			<point x="30" y="374" type="line"/>
			<point x="138" y="374" type="line"/>
			<point x="139" y="50" type="line"/>
			<point x="19" y="8" type="line"/>
			<point x="21" y="0" type="line"/>
			<point x="395" y="0" type="line"/>
			<point x="397" y="8" type="line"/>
			<point x="177" y="49" type="line"/>
			<point x="177" y="375" type="line"/>
			<point x="412" y="375" type="line"/>
			<point x="429" y="273" type="line"/>
			<point x="437" y="271" type="line"/>
			<point x="478" y="401" type="line"/>
			<point x="177" y="401" type="line"/>
			<point x="177" y="543" type="line" smooth="yes"/>
			<point x="177" y="659"/>
			<point x="198" y="684"/>
			<point x="298" y="684" type="curve" smooth="yes"/>
			<point x="353" y="684"/>
			<point x="404" y="674"/>
			<point x="462" y="657" type="curve"/>
			<point x="478" y="532" type="line"/>
			<point x="486" y="530" type="line"/>
			<point x="531" y="666" type="line"/>
			<point x="438" y="698"/>
			<point x="364" y="711"/>
			<point x="307" y="711" type="curve" smooth="yes"/>
			<point x="172" y="711"/>
			<point x="138" y="675"/>
		</contour>
	</outline>
</glyph>
<glyph name="g" format="2">
	<advance width="738"/>
	<unicode hex="0067"/>
	<anchor x="359" y="-241" name="bottom"/>
	<anchor x="359" y="401" name="top"/>
	<outline>
		<contour>
			<point x="58" y="190"/>
			<point x="159" y="143"/>
			<point x="338" y="143" type="curve" smooth="yes"/>
			<point x="514" y="143"/>
			<point x="614" y="194"/>
			<point x="614" y="286" type="curve" smooth="yes"/>
			<point x="614" y="344"/>
			<point x="570" y="386"/>
			<point x="481" y="408" type="curve"/>
			<point x="526" y="372" type="line"/>
			<point x="709" y="412" type="line"/>
			<point x="707" y="421" type="line"/>
			<point x="348" y="421" type="line" smooth="yes"/>
			<point x="171" y="421"/>
			<point x="58" y="364"/>
			<point x="58" y="274" type="curve" smooth="yes"/>
		</contour>
		<contour>
			<point x="96" y="291" type="curve" smooth="yes"/>
			<point x="97" y="350"/>
			<point x="192" y="400"/>
			<point x="327" y="400" type="curve" smooth="yes"/>
			<point x="479" y="400"/>
			<point x="574" y="352"/>
			<point x="575" y="282" type="curve" smooth="yes"/>
			<point x="576" y="207"/>
			<point x="500" y="164"/>
			<point x="352" y="164" type="curve" smooth="yes"/>
			<point x="198" y="164"/>
			<point x="95" y="205"/>
		</contour>
		<contour>
			<point x="261" y="153" type="line"/>
			<point x="232" y="160" type="line"/>
			<point x="71" y="48" type="line"/>
			<point x="70" y="27" type="line"/>
			<point x="438" y="-4" type="line" smooth="yes"/>
			<point x="579" y="-16"/>
			<point x="644" y="-46"/>
			<point x="644" y="-99" type="curve" smooth="yes"/>
			<point x="644" y="-176"/>
			<point x="510" y="-235"/>
			<point x="339" y="-235" type="curve" smooth="yes"/>
			<point x="182" y="-235"/>
			<point x="87" y="-188"/>
			<point x="87" y="-115" type="curve" smooth="yes"/>
			<point x="87" y="-67"/>
			<point x="131" y="-27"/>
			<point x="237" y="23" type="curve"/>
			<point x="196" y="26" type="line"/>
			<point x="89" y="-25"/>
			<point x="44" y="-67"/>
			<point x="44" y="-128" type="curve" smooth="yes"/>
			<point x="44" y="-215"/>
			<point x="141" y="-261"/>
			<point x="319" y="-261" type="curve" smooth="yes"/>
			<point x="535" y="-261"/>
			<point x="684" y="-191"/>
			<point x="684" y="-87" type="curve" smooth="yes"/>
			<point x="684" y="-22"/>
			<point x="622" y="7"/>
			<point x="475" y="21" type="curve" smooth="yes"/>
			<point x="114" y="55" type="line"/>
			<point x="100" y="38" type="line"/>
		</contour>
	</outline>
</glyph>
<glyph name="h" format="2">
	<advance width="799"/>
	<unicode hex="0068"/>
	<anchor x="134" y="537" name="bar"/>
	<anchor x="398" y="0" name="bottom"/>
	<anchor x="398" y="375" name="center"/>
	<anchor x="398" y="691" name="top"/>
	<outline>
		<contour>
			<point x="138" y="323" type="curve"/>
			<point x="138" y="296" type="line"/>
			<point x="235" y="360"/>
			<point x="322" y="391"/>
			<point x="419" y="391" type="curve" smooth="yes"/>
			<point x="551" y="391"/>
			<point x="610" y="330"/>
			<point x="610" y="217" type="curve" smooth="yes"/>
			<point x="610" y="50" type="line"/>
			<point x="460" y="8" type="line"/>
			<point x="462" y="0" type="line"/>
			<point x="778" y="1" type="line"/>
			<point x="780" y="9" type="line"/>
			<point x="649" y="49" type="line"/>
			<point x="649" y="223" type="line" smooth="yes"/>
			<point x="649" y="351"/>
			<point x="579" y="421"/>
			<point x="434" y="421" type="curve" smooth="yes"/>
			<point x="341" y="421"/>
			<point x="243" y="392"/>
		</contour>
		<contour>
			<point x="-29" y="632" type="line"/>
			<point x="110" y="640" type="line"/>
			<point x="110" y="50" type="line"/>
			<point x="-30" y="6" type="line"/>
			<point x="-28" y="0" type="line"/>
			<point x="297" y="0" type="line"/>
			<point x="299" y="6" type="line"/>
			<point x="149" y="50" type="line"/>
			<point x="149" y="711" type="line"/>
			<point x="-31" y="640" type="line"/>
		</contour>
	</outline>
</glyph>
<glyph name="k" format="2">
	<advance width="798"/>
	<unicode hex="006B"/>
	<anchor x="385" y="0" name="bottom"/>
	<anchor x="385" y="691" name="top"/>
	<outline>
		<contour>
			<point x="143" y="118" type="line"/>
			<point x="568" y="351" type="line"/>
			<point x="728" y="393" type="line"/>
			<point x="726" y="401" type="line"/>
			<point x="349" y="401" type="line"/>
			<point x="347" y="393" type="line"/>
			<point x="508" y="351" type="line"/>
			<point x="133" y="143" type="line"/>
		</contour>
		<contour>
			<point x="-29" y="623" type="line"/>
			<point x="110" y="631" type="line"/>
			<point x="110" y="50" type="line"/>
			<point x="-30" y="8" type="line"/>
			<point x="-28" y="0" type="line"/>
			<point x="307" y="0" type="line"/>
			<point x="309" y="8" type="line"/>
			<point x="149" y="50" type="line"/>
			<point x="149" y="711" type="line"/>
			<point x="-31" y="631" type="line"/>
		</contour>
		<contour>
			<point x="366" y="260" type="line"/>
			<point x="331" y="241" type="line"/>
			<point x="597" y="50" type="line"/>
			<point x="437" y="8" type="line"/>
			<point x="439" y="0" type="line"/>
			<point x="787" y="0" type="line"/>
			<point x="789" y="8" type="line"/>
			<point x="655" y="50" type="line"/>
		</contour>
	</outline>
</glyph>
<glyph name="l" format="2">
  <advance width="318"/>
  <unicode hex="006C"/>
  <anchor x="140" y="0" name="bottom"/>
  <anchor x="140" y="375" name="center"/>
  <anchor x="140" y="650" name="top"/>
  <anchor x="242" y="691" name="topright"/>
  <outline>
    <contour>
      <point x="-29" y="623" type="line"/>
      <point x="120" y="631" type="line"/>
      <point x="120" y="50" type="line"/>
      <point x="-30" y="8" type="line"/>
      <point x="-28" y="0" type="line"/>
      <point x="307" y="0" type="line"/>
      <point x="309" y="8" type="line"/>
      <point x="159" y="50" type="line"/>
      <point x="159" y="711" type="line"/>
      <point x="-31" y="631" type="line"/>
    </contour>
  </outline>
</glyph>
<glyph name="m" format="2">
	<advance width="1248"/>
	<unicode hex="006D"/>
	<anchor x="650" y="0" name="bottom"/>
	<anchor x="641" y="401" name="top"/>
	<outline>
		<contour>
			<point x="653" y="286" type="line"/>
			<point x="718" y="354"/>
			<point x="797" y="391"/>
			<point x="875" y="391" type="curve" smooth="yes"/>
			<point x="980" y="391"/>
			<point x="1039" y="327"/>
			<point x="1039" y="214" type="curve" smooth="yes"/>
			<point x="1039" y="50" type="line"/>
			<point x="889" y="8" type="line"/>
			<point x="891" y="0" type="line"/>
			<point x="1227" y="0" type="line"/>
			<point x="1229" y="8" type="line"/>
			<point x="1078" y="49" type="line"/>
			<point x="1079" y="205" type="line" smooth="yes"/>
			<point x="1080" y="349"/>
			<point x="1016" y="421"/>
			<point x="891" y="421" type="curve" smooth="yes"/>
			<point x="792" y="421"/>
			<point x="695" y="375"/>
			<point x="626" y="291" type="curve"/>
			<point x="647" y="269" type="line"/>
			<point x="649" y="362"/>
			<point x="580" y="421"/>
			<point x="467" y="421" type="curve" smooth="yes"/>
			<point x="383" y="421"/>
			<point x="299" y="388"/>
			<point x="213" y="304" type="curve"/>
			<point x="230" y="290" type="line"/>
			<point x="297" y="358"/>
			<point x="374" y="391"/>
			<point x="452" y="391" type="curve" smooth="yes"/>
			<point x="556" y="391"/>
			<point x="617" y="338"/>
			<point x="617" y="246" type="curve" smooth="yes"/>
			<point x="617" y="50" type="line"/>
			<point x="467" y="8" type="line"/>
			<point x="469" y="0" type="line"/>
			<point x="802" y="0" type="line"/>
			<point x="804" y="8" type="line"/>
			<point x="654" y="49" type="line"/>
		</contour>
		<contour>
			<point x="234" y="50" type="line"/>
			<point x="234" y="421" type="line"/>
			<point x="44" y="350" type="line"/>
			<point x="46" y="342" type="line"/>
			<point x="195" y="350" type="line"/>
			<point x="195" y="50" type="line"/>
			<point x="45" y="8" type="line"/>
			<point x="47" y="0" type="line"/>
			<point x="382" y="0" type="line"/>
			<point x="384" y="8" type="line"/>
		</contour>
	</outline>
</glyph>
<glyph name="n" format="2">
	<advance width="874"/>
	<unicode hex="006E"/>
	<anchor x="455" y="0" name="bottom"/>
	<anchor x="485" y="401" name="top"/>
	<outline>
		<contour>
			<point x="213" y="323" type="curve"/>
			<point x="213" y="296" type="line"/>
			<point x="316" y="364"/>
			<point x="402" y="391"/>
			<point x="494" y="391" type="curve" smooth="yes"/>
			<point x="625" y="391"/>
			<point x="684" y="330"/>
			<point x="685" y="217" type="curve" smooth="yes"/>
			<point x="686" y="50" type="line"/>
			<point x="536" y="8" type="line"/>
			<point x="538" y="0" type="line"/>
			<point x="853" y="1" type="line"/>
			<point x="855" y="9" type="line"/>
			<point x="724" y="49" type="line"/>
			<point x="724" y="224" type="line" smooth="yes"/>
			<point x="724" y="351"/>
			<point x="654" y="421"/>
			<point x="509" y="421" type="curve" smooth="yes"/>
			<point x="415" y="421"/>
			<point x="316" y="391"/>
		</contour>
		<contour>
			<point x="46" y="342" type="line"/>
			<point x="185" y="350" type="line"/>
			<point x="185" y="50" type="line"/>
			<point x="45" y="6" type="line"/>
			<point x="47" y="0" type="line"/>
			<point x="372" y="0" type="line"/>
			<point x="374" y="6" type="line"/>
			<point x="224" y="50" type="line"/>
			<point x="224" y="421" type="line"/>
			<point x="44" y="350" type="line"/>
		</contour>
	</outline>
</glyph>
<glyph name="o" format="2">
	<advance width="698"/>
	<unicode hex="006F"/>
	<anchor x="347" y="0" name="bottom"/>
	<anchor x="347" y="205" name="center"/>
	<anchor x="631" y="10" name="ogonek"/>
	<anchor x="347" y="401" name="top"/>
	<anchor x="682" y="410" name="topright"/>
	<outline>
		<contour>
			<point x="349" y="-20" type="curve" smooth="yes"/>
			<point x="527" y="-20"/>
			<point x="654" y="71"/>
			<point x="654" y="197" type="curve" smooth="yes"/>
			<point x="654" y="335"/>
			<point x="536" y="421"/>
			<point x="348" y="421" type="curve" smooth="yes"/>
			<point x="169" y="421"/>
			<point x="39" y="328"/>
			<point x="39" y="198" type="curve" smooth="yes"/>
			<point x="39" y="65"/>
			<point x="159" y="-20"/>
		</contour>
		<contour>
			<point x="357" y="5" type="curve" smooth="yes"/>
			<point x="189" y="5"/>
			<point x="80" y="86"/>
			<point x="80" y="211" type="curve" smooth="yes"/>
			<point x="80" y="320"/>
			<point x="193" y="396"/>
			<point x="341" y="396" type="curve" smooth="yes"/>
			<point x="509" y="396"/>
			<point x="613" y="314"/>
			<point x="613" y="185" type="curve" smooth="yes"/>
			<point x="613" y="80"/>
			<point x="503" y="5"/>
		</contour>
	</outline>
</glyph>
<glyph name="p" format="2">
  <advance width="711"/>
  <unicode hex="0070"/>
  <anchor x="334" y="0" name="bottom"/>
  <anchor x="334" y="401" name="top"/>
  <outline>
    <contour>
      <point x="139" y="73" type="curve"/>
      <point x="139" y="303" type="line"/>
      <point x="194" y="357"/>
      <point x="293" y="392"/>
      <point x="383" y="392" type="curve" smooth="yes"/>
      <point x="524" y="392"/>
      <point x="628" y="311"/>
      <point x="628" y="200" type="curve" smooth="yes"/>
      <point x="628" y="89"/>
      <point x="522" y="11"/>
      <point x="369" y="11" type="curve" smooth="yes"/>
      <point x="282" y="11"/>
      <point x="194" y="34"/>
    </contour>
    <contour>
      <point x="-41" y="341" type="line"/>
      <point x="-37" y="333" type="line"/>
      <point x="100" y="341" type="line"/>
      <point x="100" y="-191" type="line"/>
      <point x="-30" y="-235" type="line"/>
      <point x="-28" y="-241" type="line"/>
      <point x="307" y="-241" type="line"/>
      <point x="309" y="-235" type="line"/>
      <point x="139" y="-191" type="line"/>
      <point x="139" y="35" type="line"/>
      <point x="202" y="-1"/>
      <point x="276" y="-18"/>
      <point x="357" y="-18" type="curve" smooth="yes"/>
      <point x="540" y="-18"/>
      <point x="667" y="77"/>
      <point x="667" y="213" type="curve" smooth="yes"/>
      <point x="667" y="336"/>
      <point x="556" y="423"/>
      <point x="398" y="423" type="curve" smooth="yes"/>
      <point x="311" y="423"/>
      <point x="215" y="395"/>
      <point x="139" y="338" type="curve"/>
      <point x="139" y="421" type="line"/>
    </contour>
  </outline>
</glyph>
<glyph name="q" format="2">
  <advance width="678"/>
  <unicode hex="0071"/>
  <anchor x="374" y="0" name="bottom"/>
  <anchor x="374" y="410" name="top"/>
  <outline>
    <contour>
      <point x="567" y="329" type="curve"/>
      <point x="567" y="108" type="line"/>
      <point x="506" y="49"/>
      <point x="406" y="11"/>
      <point x="313" y="11" type="curve" smooth="yes"/>
      <point x="181" y="11"/>
      <point x="78" y="89"/>
      <point x="78" y="208" type="curve" smooth="yes"/>
      <point x="78" y="313"/>
      <point x="188" y="395"/>
      <point x="341" y="395" type="curve" smooth="yes"/>
      <point x="426" y="395"/>
      <point x="519" y="365"/>
    </contour>
    <contour>
      <point x="39" y="191" type="curve" smooth="yes"/>
      <point x="39" y="61"/>
      <point x="150" y="-20"/>
      <point x="290" y="-20" type="curve" smooth="yes"/>
      <point x="386" y="-20"/>
      <point x="491" y="13"/>
      <point x="567" y="71" type="curve"/>
      <point x="567" y="-191" type="line"/>
      <point x="397" y="-233" type="line"/>
      <point x="399" y="-241" type="line"/>
      <point x="734" y="-241" type="line"/>
      <point x="736" y="-233" type="line"/>
      <point x="606" y="-191" type="line"/>
      <point x="606" y="345" type="line"/>
      <point x="544" y="394"/>
      <point x="458" y="421"/>
      <point x="360" y="421" type="curve" smooth="yes"/>
      <point x="164" y="421"/>
      <point x="39" y="329"/>
    </contour>
  </outline>
</glyph>
<glyph name="r" format="2">
	<advance width="572"/>
	<unicode hex="0072"/>
	<anchor x="288" y="0" name="bottom"/>
	<anchor x="305" y="410" name="top"/>
	<outline>
		<contour>
			<point x="208" y="260" type="curve"/>
			<point x="219" y="241" type="line"/>
			<point x="313" y="346"/>
			<point x="406" y="396"/>
			<point x="494" y="392" type="curve"/>
			<point x="469" y="409" type="line"/>
			<point x="491" y="258" type="line"/>
			<point x="499" y="256" type="line"/>
			<point x="548" y="416" type="line"/>
			<point x="537" y="420"/>
			<point x="518" y="422"/>
			<point x="496" y="422" type="curve" smooth="yes"/>
			<point x="390" y="422"/>
			<point x="305" y="374"/>
		</contour>
		<contour>
			<point x="224" y="50" type="line"/>
			<point x="224" y="421" type="line"/>
			<point x="44" y="341" type="line"/>
			<point x="46" y="333" type="line"/>
			<point x="185" y="341" type="line"/>
			<point x="185" y="49" type="line"/>
			<point x="55" y="8" type="line"/>
			<point x="57" y="0" type="line"/>
			<point x="422" y="0" type="line"/>
			<point x="424" y="7" type="line"/>
		</contour>
	</outline>
</glyph>
<glyph name="s" format="2">
	<advance width="577"/>
	<unicode hex="0073"/>
	<anchor x="305" y="0" name="bottom"/>
	<anchor x="285" y="410" name="top"/>
	<outline>
		<contour>
			<point x="39" y="32" type="line"/>
			<point x="104" y="-2"/>
			<point x="216" y="-21"/>
			<point x="299" y="-19" type="curve" smooth="yes"/>
			<point x="440" y="-15"/>
			<point x="529" y="32"/>
			<point x="528" y="126" type="curve" smooth="yes"/>
			<point x="527" y="183"/>
			<point x="479" y="214"/>
			<point x="370" y="223" type="curve" smooth="yes"/>
			<point x="217" y="236" type="line" smooth="yes"/>
			<point x="123" y="244"/>
			<point x="80" y="265"/>
			<point x="80" y="305" type="curve" smooth="yes"/>
			<point x="80" y="355"/>
			<point x="155" y="393"/>
			<point x="262" y="396" type="curve" smooth="yes"/>
			<point x="315" y="398"/>
			<point x="376" y="390"/>
			<point x="428" y="377" type="curve"/>
			<point x="443" y="272" type="line"/>
			<point x="451" y="270" type="line"/>
			<point x="489" y="392" type="line"/>
			<point x="437" y="411"/>
			<point x="344" y="424"/>
			<point x="271" y="422" type="curve" smooth="yes"/>
			<point x="140" y="419"/>
			<point x="51" y="368"/>
			<point x="51" y="296" type="curve" smooth="yes"/>
			<point x="51" y="247"/>
			<point x="93" y="213"/>
			<point x="199" y="204" type="curve" smooth="yes"/>
			<point x="352" y="191" type="line" smooth="yes"/>
			<point x="451" y="183"/>
			<point x="498" y="159"/>
			<point x="498" y="116" type="curve" smooth="yes"/>
			<point x="498" y="53"/>
			<point x="425" y="12"/>
			<point x="305" y="10" type="curve" smooth="yes"/>
			<point x="225" y="9"/>
			<point x="146" y="23"/>
			<point x="99" y="47" type="curve"/>
			<point x="84" y="154" type="line"/>
			<point x="76" y="156" type="line"/>
		</contour>
	</outline>
</glyph>
<glyph name="t" format="2">
	<advance width="562"/>
	<unicode hex="0074"/>
	<anchor x="290" y="0" name="bottom"/>
	<anchor x="290" y="205" name="center"/>
	<anchor x="290" y="401" name="top"/>
	<anchor x="237" y="691" name="topright"/>
	<outline>
		<contour>
			<point x="9" y="383" type="line"/>
			<point x="11" y="375" type="line"/>
			<point x="100" y="375" type="line"/>
			<point x="100" y="176" type="line" smooth="yes"/>
			<point x="100" y="40"/>
			<point x="183" y="-20"/>
			<point x="302" y="-20" type="curve" smooth="yes"/>
			<point x="384" y="-20"/>
			<point x="470" y="18"/>
			<point x="543" y="74" type="curve"/>
			<point x="532" y="85" type="line"/>
			<point x="481" y="48"/>
			<point x="383" y="15"/>
			<point x="313" y="15" type="curve" smooth="yes"/>
			<point x="211" y="15"/>
			<point x="139" y="66"/>
			<point x="139" y="176" type="curve" smooth="yes"/>
			<point x="139" y="549" type="line"/>
			<point x="127" y="551" type="line"/>
			<point x="87" y="416" type="line"/>
		</contour>
		<contour>
			<point x="131" y="375" type="line"/>
			<point x="429" y="375" type="line"/>
			<point x="446" y="253" type="line"/>
			<point x="454" y="251" type="line"/>
			<point x="494" y="401" type="line"/>
			<point x="131" y="401" type="line"/>
		</contour>
	</outline>
</glyph>
<glyph name="u" format="2">
	<advance width="750"/>
	<unicode hex="0075"/>
	<anchor x="337" y="0" name="bottom"/>
	<anchor x="618" y="10" name="ogonek"/>
	<anchor x="344" y="401" name="top"/>
	<anchor x="794" y="401" name="topright"/>
	<outline>
		<contour>
			<point x="-39" y="350" type="line"/>
			<point x="-37" y="342" type="line"/>
			<point x="102" y="350" type="line"/>
			<point x="102" y="187" type="line" smooth="yes"/>
			<point x="102" y="48"/>
			<point x="176" y="-20"/>
			<point x="325" y="-20" type="curve" smooth="yes"/>
			<point x="412" y="-20"/>
			<point x="483" y="3"/>
			<point x="568" y="60" type="curve"/>
			<point x="568" y="-12" type="line"/>
			<point x="743" y="59" type="line"/>
			<point x="741" y="67" type="line"/>
			<point x="603" y="56" type="line"/>
			<point x="604" y="421" type="line"/>
			<point x="424" y="350" type="line"/>
			<point x="426" y="342" type="line"/>
			<point x="564" y="350" type="line"/>
			<point x="564" y="85" type="line"/>
			<point x="488" y="34"/>
			<point x="415" y="10"/>
			<point x="336" y="10" type="curve" smooth="yes"/>
			<point x="210" y="10"/>
			<point x="141" y="73"/>
			<point x="141" y="187" type="curve" smooth="yes"/>
			<point x="141" y="421" type="line"/>
		</contour>
	</outline>
</glyph>
<glyph name="v" format="2">
  <advance width="739"/>
  <unicode hex="0076"/>
  <anchor x="399" y="0" name="bottom"/>
  <anchor x="399" y="401" name="top"/>
  <outline>
    <contour>
      <point x="-11" y="393" type="line"/>
      <point x="129" y="351" type="line"/>
      <point x="383" y="0" type="line"/>
      <point x="408" y="0" type="line"/>
      <point x="655" y="351" type="line"/>
      <point x="795" y="393" type="line"/>
      <point x="793" y="401" type="line"/>
      <point x="457" y="401" type="line"/>
      <point x="455" y="393" type="line"/>
      <point x="615" y="351" type="line"/>
      <point x="385" y="14" type="line"/>
      <point x="401" y="30" type="line"/>
      <point x="175" y="351" type="line"/>
      <point x="335" y="393" type="line"/>
      <point x="333" y="401" type="line"/>
      <point x="-9" y="401" type="line"/>
    </contour>
  </outline>
</glyph>
<glyph name="w" format="2">
  <advance width="890"/>
  <unicode hex="0077"/>
  <anchor x="450" y="0" name="bottom"/>
  <anchor x="450" y="410" name="top"/>
  <outline>
    <contour>
      <point x="-61" y="393" type="line"/>
      <point x="69" y="351" type="line"/>
      <point x="251" y="0" type="line"/>
      <point x="273" y="0" type="line"/>
      <point x="459" y="403" type="line"/>
      <point x="443" y="389" type="line"/>
      <point x="641" y="0" type="line"/>
      <point x="659" y="0" type="line"/>
      <point x="826" y="351" type="line"/>
      <point x="956" y="393" type="line"/>
      <point x="954" y="401" type="line"/>
      <point x="625" y="401" type="line"/>
      <point x="623" y="393" type="line"/>
      <point x="793" y="351" type="line"/>
      <point x="647" y="30" type="line"/>
      <point x="662" y="39" type="line"/>
      <point x="468" y="411" type="line"/>
      <point x="425" y="397" type="line"/>
      <point x="254" y="24" type="line"/>
      <point x="268" y="39" type="line"/>
      <point x="109" y="351" type="line"/>
      <point x="289" y="393" type="line"/>
      <point x="287" y="401" type="line"/>
      <point x="-59" y="401" type="line"/>
    </contour>
  </outline>
</glyph>
<glyph name="x" format="2">
	<advance width="790"/>
	<unicode hex="0078"/>
	<guideline x="-675" y="35" angle="0"/>
	<anchor x="393" y="0" name="bottom"/>
	<anchor x="393" y="401" name="top"/>
	<outline>
		<contour>
			<point x="388" y="228" type="line"/>
			<point x="404" y="209" type="line"/>
			<point x="597" y="350" type="line"/>
			<point x="735" y="392" type="line"/>
			<point x="733" y="400" type="line"/>
			<point x="434" y="400" type="line"/>
			<point x="432" y="392" type="line"/>
			<point x="554" y="350" type="line"/>
		</contour>
		<contour>
			<point x="184" y="350" type="line"/>
			<point x="580" y="49" type="line"/>
			<point x="431" y="8" type="line"/>
			<point x="433" y="0" type="line"/>
			<point x="769" y="0" type="line"/>
			<point x="771" y="8" type="line"/>
			<point x="631" y="49" type="line"/>
			<point x="235" y="350" type="line"/>
			<point x="365" y="392" type="line"/>
			<point x="363" y="400" type="line"/>
			<point x="46" y="400" type="line"/>
			<point x="44" y="392" type="line"/>
		</contour>
		<contour>
			<point x="400" y="205" type="line"/>
			<point x="385" y="227" type="line"/>
			<point x="157" y="50" type="line"/>
			<point x="19" y="8" type="line"/>
			<point x="21" y="0" type="line"/>
			<point x="346" y="0" type="line"/>
			<point x="348" y="8" type="line"/>
			<point x="204" y="49" type="line"/>
		</contour>
	</outline>
</glyph>
<glyph name="y" format="2">
  <advance width="619"/>
  <unicode hex="0079"/>
  <anchor x="299" y="0" name="bottom"/>
  <anchor x="317" y="410" name="top"/>
  <outline>
    <contour>
      <point x="-91" y="395" type="line"/>
      <point x="37" y="351" type="line"/>
      <point x="300" y="-15" type="line"/>
      <point x="296" y="18" type="line"/>
      <point x="103" y="-237" type="line"/>
      <point x="103" y="-241" type="line"/>
      <point x="171" y="-241" type="line"/>
      <point x="314" y="0" type="line"/>
      <point x="557" y="351" type="line"/>
      <point x="692" y="395" type="line"/>
      <point x="690" y="401" type="line"/>
      <point x="361" y="401" type="line"/>
      <point x="359" y="395" type="line"/>
      <point x="520" y="351" type="line"/>
      <point x="289" y="11" type="line"/>
      <point x="313" y="20" type="line"/>
      <point x="83" y="351" type="line"/>
      <point x="250" y="395" type="line"/>
      <point x="248" y="401" type="line"/>
      <point x="-89" y="401" type="line"/>
    </contour>
  </outline>
</glyph>
<glyph name="z" format="2">
  <advance width="623"/>
  <unicode hex="007A"/>
  <anchor x="283" y="0" name="bottom"/>
  <anchor x="283" y="205" name="center"/>
  <anchor x="283" y="410" name="top"/>
  <outline>
    <contour>
      <point x="29" y="22" type="line"/>
      <point x="38" y="0" type="line"/>
      <point x="579" y="0" type="line"/>
      <point x="555" y="144" type="line"/>
      <point x="547" y="145" type="line"/>
      <point x="517" y="34" type="line"/>
      <point x="77" y="26" type="line"/>
      <point x="67" y="10" type="line"/>
      <point x="557" y="388" type="line"/>
      <point x="553" y="401" type="line"/>
      <point x="36" y="412" type="line"/>
      <point x="70" y="273" type="line"/>
      <point x="78" y="276" type="line"/>
      <point x="100" y="376" type="line"/>
      <point x="517" y="380" type="line"/>
      <point x="508" y="393" type="line"/>
    </contour>
  </outline>
</glyph>
<glyph name="braceleft" format="2">
	<advance width="433"/>
	<unicode hex="007B"/>
	<outline>
		<contour>
			<point x="224" y="511" type="line" smooth="yes"/>
			<point x="224" y="616"/>
			<point x="244" y="640"/>
			<point x="386" y="702" type="curve"/>
			<point x="378" y="720" type="line"/>
			<point x="233" y="673"/>
			<point x="191" y="631"/>
			<point x="191" y="510" type="curve" smooth="yes"/>
			<point x="191" y="411" type="line" smooth="yes"/>
			<point x="191" y="349"/>
			<point x="139" y="305"/>
			<point x="80" y="305" type="curve"/>
			<point x="80" y="290" type="line"/>
			<point x="136" y="290"/>
			<point x="191" y="238"/>
			<point x="191" y="173" type="curve" smooth="yes"/>
			<point x="191" y="74" type="line" smooth="yes"/>
			<point x="191" y="-47"/>
			<point x="232" y="-89"/>
			<point x="378" y="-136" type="curve"/>
			<point x="386" y="-118" type="line"/>
			<point x="244" y="-56"/>
			<point x="224" y="-32"/>
			<point x="224" y="73" type="curve" smooth="yes"/>
			<point x="224" y="167" type="line" smooth="yes"/>
			<point x="224" y="262"/>
			<point x="181" y="307"/>
			<point x="109" y="306" type="curve"/>
			<point x="109" y="292" type="line"/>
			<point x="174" y="291"/>
			<point x="224" y="337"/>
			<point x="224" y="417" type="curve" smooth="yes"/>
		</contour>
	</outline>
</glyph>
<glyph name="bar" format="2">
	<advance width="175"/>
	<unicode hex="007C"/>
	<outline>
		<contour>
			<point x="71" y="-250" type="line"/>
			<point x="105" y="-250" type="line"/>
			<point x="106" y="700" type="line"/>
			<point x="71" y="700" type="line"/>
		</contour>
	</outline>
</glyph>
<glyph name="asciitilde" format="2">
  <advance width="492"/>
  <unicode hex="007E"/>
  <outline>
    <contour>
      <point x="215" y="309" type="curve" smooth="yes"/>
      <point x="300" y="270" type="line" smooth="yes"/>
      <point x="314" y="263"/>
      <point x="332" y="259"/>
      <point x="350" y="259" type="curve" smooth="yes"/>
      <point x="380" y="259"/>
      <point x="394" y="282"/>
      <point x="394" y="328" type="curve"/>
      <point x="422" y="328" type="line"/>
      <point x="422" y="266"/>
      <point x="394" y="230"/>
      <point x="346" y="230" type="curve" smooth="yes"/>
      <point x="326" y="230"/>
      <point x="304" y="237"/>
      <point x="277" y="249" type="curve" smooth="yes"/>
      <point x="194" y="287" type="line" smooth="yes"/>
      <point x="177" y="295"/>
      <point x="162" y="299"/>
      <point x="148" y="299" type="curve" smooth="yes"/>
      <point x="115" y="299"/>
      <point x="98" y="276"/>
      <point x="98" y="230" type="curve"/>
      <point x="70" y="230" type="line"/>
      <point x="70" y="292"/>
      <point x="98" y="328"/>
      <point x="146" y="328" type="curve" smooth="yes"/>
      <point x="166" y="328"/>
      <point x="188" y="321"/>
    </contour>
  </outline>
</glyph>
<glyph name="cent" format="2">
	<advance width="594"/>
	<unicode hex="00A2"/>
	<outline>
		<contour>
			<point x="534" y="84" type="curve"/>
			<point x="523" y="95" type="line"/>
			<point x="449" y="43"/>
			<point x="392" y="15"/>
			<point x="298" y="15" type="curve" smooth="yes"/>
			<point x="171" y="15"/>
			<point x="89" y="91"/>
			<point x="89" y="205" type="curve" smooth="yes"/>
			<point x="89" y="320"/>
			<point x="180" y="396"/>
			<point x="308" y="396" type="curve" smooth="yes"/>
			<point x="378" y="396"/>
			<point x="414" y="384"/>
			<point x="449" y="369" type="curve"/>
			<point x="469" y="252" type="line"/>
			<point x="477" y="250" type="line"/>
			<point x="512" y="380" type="line"/>
			<point x="443" y="407"/>
			<point x="393" y="421"/>
			<point x="314" y="421" type="curve" smooth="yes"/>
			<point x="156" y="421"/>
			<point x="50" y="328"/>
			<point x="50" y="190" type="curve" smooth="yes"/>
			<point x="50" y="63"/>
			<point x="146" y="-21"/>
			<point x="283" y="-21" type="curve" smooth="yes"/>
			<point x="395" y="-21"/>
			<point x="464" y="29"/>
		</contour>
		<contour>
			<point x="274" y="500" type="line"/>
			<point x="274" y="-100" type="line"/>
			<point x="307" y="-100" type="line"/>
			<point x="307" y="500" type="line"/>
		</contour>
	</outline>
</glyph>
<glyph name="sterling" format="2">
  <advance width="742"/>
  <unicode hex="00A3"/>
  <outline>
    <contour>
      <point x="60" y="308" type="line"/>
      <point x="60" y="278" type="line"/>
      <point x="485" y="278" type="line"/>
      <point x="485" y="308" type="line"/>
    </contour>
    <contour>
      <point x="370" y="596" type="curve" smooth="yes"/>
      <point x="444" y="597"/>
      <point x="516" y="583"/>
      <point x="578" y="569" type="curve"/>
      <point x="595" y="412" type="line"/>
      <point x="603" y="410" type="line"/>
      <point x="664" y="587" type="line"/>
      <point x="579" y="607"/>
      <point x="475" y="624"/>
      <point x="381" y="623" type="curve" smooth="yes"/>
      <point x="196" y="621"/>
      <point x="133" y="532"/>
      <point x="133" y="441" type="curve" smooth="yes"/>
      <point x="133" y="352"/>
      <point x="205" y="276"/>
      <point x="205" y="192" type="curve" smooth="yes"/>
      <point x="205" y="144"/>
      <point x="180" y="98"/>
      <point x="83" y="29" type="curve"/>
      <point x="104" y="0" type="line"/>
      <point x="670" y="0" type="line"/>
      <point x="650" y="201" type="line"/>
      <point x="642" y="199" type="line"/>
      <point x="600" y="26" type="line"/>
      <point x="96" y="26" type="line"/>
      <point x="111" y="16" type="line"/>
      <point x="201" y="81"/>
      <point x="240" y="136"/>
      <point x="240" y="194" type="curve" smooth="yes"/>
      <point x="240" y="272"/>
      <point x="171" y="361"/>
      <point x="171" y="452" type="curve" smooth="yes"/>
      <point x="171" y="536"/>
      <point x="243" y="594"/>
    </contour>
  </outline>
</glyph>
<glyph name="currency" format="2">
  <advance width="609"/>
  <unicode hex="00A4"/>
  <outline>
    <contour>
      <point x="318" y="13" type="curve" smooth="yes"/>
      <point x="184" y="13"/>
      <point x="95" y="90"/>
      <point x="95" y="205" type="curve" smooth="yes"/>
      <point x="95" y="314"/>
      <point x="180" y="387"/>
      <point x="309" y="387" type="curve" smooth="yes"/>
      <point x="442" y="387"/>
      <point x="531" y="311"/>
      <point x="531" y="196" type="curve" smooth="yes"/>
      <point x="531" y="87"/>
      <point x="446" y="13"/>
    </contour>
    <contour>
      <point x="314" y="-20" type="curve" smooth="yes"/>
      <point x="468" y="-20"/>
      <point x="571" y="70"/>
      <point x="571" y="205" type="curve" smooth="yes"/>
      <point x="571" y="334"/>
      <point x="468" y="420"/>
      <point x="314" y="420" type="curve" smooth="yes"/>
      <point x="158" y="420"/>
      <point x="56" y="330"/>
      <point x="56" y="196" type="curve" smooth="yes"/>
      <point x="56" y="66"/>
      <point x="159" y="-20"/>
    </contour>
    <contour>
      <point x="64" y="420" type="line"/>
      <point x="39" y="396" type="line"/>
      <point x="119" y="321" type="line"/>
      <point x="144" y="345" type="line"/>
    </contour>
    <contour>
      <point x="552" y="420" type="line"/>
      <point x="472" y="345" type="line"/>
      <point x="497" y="321" type="line"/>
      <point x="577" y="396" type="line"/>
    </contour>
    <contour>
      <point x="553" y="-18" type="line"/>
      <point x="578" y="6" type="line"/>
      <point x="498" y="81" type="line"/>
      <point x="473" y="57" type="line"/>
    </contour>
    <contour>
      <point x="64" y="-18" type="line"/>
      <point x="144" y="57" type="line"/>
      <point x="119" y="81" type="line"/>
      <point x="39" y="6" type="line"/>
    </contour>
  </outline>
</glyph>
<glyph name="yen" format="2">
  <advance width="938"/>
  <unicode hex="00A5"/>
  <outline>
    <contour>
      <point x="0" y="592" type="line"/>
      <point x="130" y="550" type="line"/>
      <point x="433" y="249" type="line"/>
      <point x="433" y="50" type="line"/>
      <point x="278" y="6" type="line"/>
      <point x="280" y="0" type="line"/>
      <point x="618" y="0" type="line"/>
      <point x="620" y="6" type="line"/>
      <point x="470" y="50" type="line"/>
      <point x="470" y="250" type="line"/>
      <point x="788" y="550" type="line"/>
      <point x="918" y="592" type="line"/>
      <point x="916" y="600" type="line"/>
      <point x="576" y="600" type="line"/>
      <point x="574" y="592" type="line"/>
      <point x="744" y="550" type="line"/>
      <point x="442" y="263" type="line"/>
      <point x="458" y="266" type="line"/>
      <point x="176" y="550" type="line"/>
      <point x="346" y="592" type="line"/>
      <point x="344" y="600" type="line"/>
      <point x="2" y="600" type="line"/>
    </contour>
    <contour>
      <point x="244" y="273" type="line"/>
      <point x="244" y="243" type="line"/>
      <point x="659" y="243" type="line"/>
      <point x="659" y="273" type="line"/>
      <point x="490" y="273" type="line"/>
      <point x="452" y="248" type="line"/>
      <point x="425" y="273" type="line"/>
    </contour>
    <contour>
      <point x="244" y="187" type="line"/>
      <point x="244" y="157" type="line"/>
      <point x="659" y="157" type="line"/>
      <point x="659" y="187" type="line"/>
    </contour>
  </outline>
</glyph>
<glyph name="brokenbar" format="2">
	<advance width="175"/>
	<unicode hex="00A6"/>
	<outline>
		<contour>
			<point x="71" y="-240" type="line"/>
			<point x="106" y="-240" type="line"/>
			<point x="106" y="169" type="line"/>
			<point x="71" y="169" type="line"/>
		</contour>
		<contour>
			<point x="71" y="271" type="line"/>
			<point x="106" y="271" type="line"/>
			<point x="106" y="690" type="line"/>
			<point x="71" y="690" type="line"/>
		</contour>
	</outline>
</glyph>
<glyph name="section" format="2">
	<advance width="660"/>
	<unicode hex="00A7"/>
	<outline>
		<contour>
			<point x="453" y="231" type="curve"/>
			<point x="482" y="222" type="line"/>
			<point x="540" y="252"/>
			<point x="581" y="312"/>
			<point x="580" y="365" type="curve" smooth="yes"/>
			<point x="579" y="422"/>
			<point x="529" y="453"/>
			<point x="424" y="462" type="curve" smooth="yes"/>
			<point x="271" y="475" type="line" smooth="yes"/>
			<point x="184" y="482"/>
			<point x="139" y="509"/>
			<point x="139" y="554" type="curve" smooth="yes"/>
			<point x="139" y="612"/>
			<point x="219" y="661"/>
			<point x="318" y="664" type="curve" smooth="yes"/>
			<point x="361" y="666"/>
			<point x="421" y="660"/>
			<point x="480" y="647" type="curve"/>
			<point x="495" y="541" type="line"/>
			<point x="503" y="539" type="line"/>
			<point x="539" y="663" type="line"/>
			<point x="497" y="679"/>
			<point x="393" y="692"/>
			<point x="325" y="690" type="curve" smooth="yes"/>
			<point x="199" y="687"/>
			<point x="108" y="627"/>
			<point x="108" y="547" type="curve" smooth="yes"/>
			<point x="108" y="488"/>
			<point x="157" y="453"/>
			<point x="253" y="445" type="curve" smooth="yes"/>
			<point x="406" y="432" type="line" smooth="yes"/>
			<point x="508" y="423"/>
			<point x="546" y="403"/>
			<point x="546" y="357" type="curve" smooth="yes"/>
			<point x="546" y="310"/>
			<point x="506" y="255"/>
		</contour>
		<contour>
			<point x="209" y="463" type="curve"/>
			<point x="176" y="471" type="line"/>
			<point x="121" y="440"/>
			<point x="91" y="398"/>
			<point x="91" y="350" type="curve" smooth="yes"/>
			<point x="91" y="286"/>
			<point x="143" y="246"/>
			<point x="236" y="238" type="curve" smooth="yes"/>
			<point x="389" y="225" type="line" smooth="yes"/>
			<point x="488" y="216"/>
			<point x="530" y="188"/>
			<point x="530" y="130" type="curve" smooth="yes"/>
			<point x="530" y="56"/>
			<point x="460" y="11"/>
			<point x="341" y="9" type="curve" smooth="yes"/>
			<point x="267" y="8"/>
			<point x="182" y="23"/>
			<point x="139" y="45" type="curve"/>
			<point x="124" y="152" type="line"/>
			<point x="116" y="154" type="line"/>
			<point x="80" y="30" type="line"/>
			<point x="138" y="0"/>
			<point x="251" y="-22"/>
			<point x="336" y="-20" type="curve" smooth="yes"/>
			<point x="471" y="-16"/>
			<point x="564" y="49"/>
			<point x="563" y="138" type="curve" smooth="yes"/>
			<point x="562" y="206"/>
			<point x="508" y="246"/>
			<point x="407" y="255" type="curve" smooth="yes"/>
			<point x="254" y="268" type="line" smooth="yes"/>
			<point x="169" y="275"/>
			<point x="125" y="305"/>
			<point x="125" y="357" type="curve" smooth="yes"/>
			<point x="125" y="400"/>
			<point x="155" y="439"/>
		</contour>
	</outline>
</glyph>
<glyph name="copyright" format="2">
	<advance width="912"/>
	<unicode hex="00A9"/>
	<outline>
		<contour>
			<point x="458" y="-20" type="curve" smooth="yes"/>
			<point x="231" y="-20"/>
			<point x="80" y="120"/>
			<point x="80" y="299" type="curve" smooth="yes"/>
			<point x="80" y="482"/>
			<point x="229" y="625"/>
			<point x="454" y="625" type="curve" smooth="yes"/>
			<point x="681" y="625"/>
			<point x="832" y="485"/>
			<point x="832" y="306" type="curve" smooth="yes"/>
			<point x="832" y="123"/>
			<point x="683" y="-20"/>
		</contour>
		<contour>
			<point x="443" y="595" type="curve" smooth="yes"/>
			<point x="244" y="595"/>
			<point x="114" y="465"/>
			<point x="114" y="299" type="curve" smooth="yes"/>
			<point x="114" y="137"/>
			<point x="255" y="11"/>
			<point x="469" y="11" type="curve" smooth="yes"/>
			<point x="668" y="11"/>
			<point x="798" y="141"/>
			<point x="798" y="307" type="curve" smooth="yes"/>
			<point x="798" y="469"/>
			<point x="657" y="595"/>
		</contour>
		<contour>
			<point x="223" y="290" type="curve" smooth="yes"/>
			<point x="223" y="195"/>
			<point x="326" y="123"/>
			<point x="456" y="123" type="curve" smooth="yes"/>
			<point x="540" y="123"/>
			<point x="609" y="151"/>
			<point x="659" y="191" type="curve"/>
			<point x="649" y="201" type="line"/>
			<point x="604" y="172"/>
			<point x="545" y="150"/>
			<point x="460" y="150" type="curve" smooth="yes"/>
			<point x="340" y="150"/>
			<point x="258" y="220"/>
			<point x="258" y="304" type="curve" smooth="yes"/>
			<point x="258" y="384"/>
			<point x="333" y="460"/>
			<point x="465" y="460" type="curve" smooth="yes"/>
			<point x="528" y="460"/>
			<point x="569" y="453"/>
			<point x="603" y="442" type="curve"/>
			<point x="623" y="334" type="line"/>
			<point x="631" y="332" type="line"/>
			<point x="665" y="451" type="line"/>
			<point x="626" y="468"/>
			<point x="549" y="484"/>
			<point x="474" y="484" type="curve" smooth="yes"/>
			<point x="323" y="484"/>
			<point x="223" y="401"/>
		</contour>
	</outline>
</glyph>
<glyph name="logicalnot" format="2">
	<advance width="490"/>
	<unicode hex="00AC"/>
	<outline>
		<contour>
			<point x="70" y="364" type="line"/>
			<point x="70" y="336" type="line"/>
			<point x="389" y="336" type="line"/>
			<point x="389" y="172" type="line"/>
			<point x="420" y="172" type="line"/>
			<point x="420" y="364" type="line"/>
		</contour>
	</outline>
</glyph>
<glyph name="registered" format="2">
  <advance width="912"/>
  <unicode hex="00AE"/>
  <outline>
    <contour>
      <point x="458" y="-20" type="curve" smooth="yes"/>
      <point x="231" y="-20"/>
      <point x="80" y="120"/>
      <point x="80" y="299" type="curve" smooth="yes"/>
      <point x="80" y="482"/>
      <point x="229" y="625"/>
      <point x="454" y="625" type="curve" smooth="yes"/>
      <point x="681" y="625"/>
      <point x="832" y="485"/>
      <point x="832" y="306" type="curve" smooth="yes"/>
      <point x="832" y="123"/>
      <point x="683" y="-20"/>
    </contour>
    <contour>
      <point x="443" y="595" type="curve" smooth="yes"/>
      <point x="244" y="595"/>
      <point x="114" y="465"/>
      <point x="114" y="299" type="curve" smooth="yes"/>
      <point x="114" y="137"/>
      <point x="255" y="11"/>
      <point x="469" y="11" type="curve" smooth="yes"/>
      <point x="668" y="11"/>
      <point x="798" y="141"/>
      <point x="798" y="307" type="curve" smooth="yes"/>
      <point x="798" y="469"/>
      <point x="657" y="595"/>
    </contour>
    <contour>
      <point x="230" y="160" type="line"/>
      <point x="232" y="154" type="line"/>
      <point x="411" y="154" type="line"/>
      <point x="413" y="161" type="line"/>
      <point x="335" y="184" type="line"/>
      <point x="335" y="293" type="line"/>
      <point x="529" y="294" type="line" smooth="yes"/>
      <point x="610" y="294"/>
      <point x="655" y="325"/>
      <point x="655" y="381" type="curve" smooth="yes"/>
      <point x="655" y="436"/>
      <point x="602" y="466"/>
      <point x="507" y="466" type="curve" smooth="yes"/>
      <point x="232" y="466" type="line"/>
      <point x="230" y="459" type="line"/>
      <point x="307" y="431" type="line"/>
      <point x="307" y="184" type="line"/>
    </contour>
    <contour>
      <point x="334" y="316" type="line"/>
      <point x="334" y="443" type="line"/>
      <point x="492" y="445" type="line" smooth="yes"/>
      <point x="590" y="446"/>
      <point x="627" y="427"/>
      <point x="627" y="374" type="curve" smooth="yes"/>
      <point x="627" y="332"/>
      <point x="593" y="316"/>
      <point x="502" y="316" type="curve" smooth="yes"/>
    </contour>
    <contour>
      <point x="549" y="302" type="line"/>
      <point x="516" y="302" type="line"/>
      <point x="611" y="184" type="line"/>
      <point x="533" y="162" type="line"/>
      <point x="535" y="154" type="line"/>
      <point x="712" y="154" type="line"/>
      <point x="714" y="162" type="line"/>
      <point x="645" y="184" type="line"/>
    </contour>
  </outline>
</glyph>
<glyph name="degree" format="2">
	<advance width="381"/>
	<unicode hex="00B0"/>
	<outline>
		<contour>
			<point x="191" y="323" type="curve" smooth="yes"/>
			<point x="277" y="322"/>
			<point x="341" y="387"/>
			<point x="341" y="475" type="curve" smooth="yes"/>
			<point x="341" y="561"/>
			<point x="277" y="625"/>
			<point x="191" y="625" type="curve" smooth="yes"/>
			<point x="104" y="625"/>
			<point x="40" y="561"/>
			<point x="40" y="475" type="curve" smooth="yes"/>
			<point x="40" y="389"/>
			<point x="104" y="323"/>
		</contour>
		<contour>
			<point x="191" y="358" type="curve" smooth="yes"/>
			<point x="124" y="357"/>
			<point x="74" y="407"/>
			<point x="74" y="475" type="curve" smooth="yes"/>
			<point x="74" y="542"/>
			<point x="124" y="591"/>
			<point x="191" y="590" type="curve" smooth="yes"/>
			<point x="257" y="589"/>
			<point x="307" y="540"/>
			<point x="307" y="475" type="curve" smooth="yes"/>
			<point x="307" y="409"/>
			<point x="257" y="359"/>
		</contour>
	</outline>
</glyph>
<glyph name="plusminus" format="2">
  <advance width="500"/>
  <unicode hex="00B1"/>
  <outline>
    <contour>
      <point x="80" y="266" type="line"/>
      <point x="235" y="266" type="line"/>
      <point x="235" y="129" type="line"/>
      <point x="266" y="129" type="line"/>
      <point x="266" y="265" type="line"/>
      <point x="420" y="265" type="line"/>
      <point x="420" y="293" type="line"/>
      <point x="266" y="293" type="line"/>
      <point x="266" y="430" type="line"/>
      <point x="236" y="430" type="line"/>
      <point x="236" y="293" type="line"/>
      <point x="80" y="293" type="line"/>
    </contour>
    <contour>
      <point x="70" y="68" type="line"/>
      <point x="70" y="40" type="line"/>
      <point x="430" y="40" type="line"/>
      <point x="430" y="68" type="line"/>
    </contour>
  </outline>
</glyph>
<glyph name="twosuperior" format="2">
	<advance width="444"/>
	<unicode hex="00B2"/>
	<outline>
		<contour>
			<point x="46" y="576" type="curve"/>
			<point x="64" y="467" type="line"/>
			<point x="69" y="469" type="line"/>
			<point x="91" y="568" type="line"/>
			<point x="133" y="589"/>
			<point x="167" y="596"/>
			<point x="219" y="596" type="curve" smooth="yes"/>
			<point x="308" y="596"/>
			<point x="349" y="574"/>
			<point x="349" y="527" type="curve" smooth="yes"/>
			<point x="348" y="458"/>
			<point x="256" y="383"/>
			<point x="30" y="269" type="curve"/>
			<point x="41" y="249" type="line"/>
			<point x="414" y="249" type="line"/>
			<point x="402" y="386" type="line"/>
			<point x="397" y="385" type="line"/>
			<point x="372" y="278" type="line"/>
			<point x="41" y="274" type="line"/>
			<point x="55" y="257" type="line"/>
			<point x="292" y="375"/>
			<point x="384" y="451"/>
			<point x="383" y="530" type="curve" smooth="yes"/>
			<point x="383" y="588"/>
			<point x="324" y="623"/>
			<point x="224" y="623" type="curve" smooth="yes"/>
			<point x="156" y="623"/>
			<point x="94" y="607"/>
		</contour>
	</outline>
</glyph>
<glyph name="threesuperior" format="2">
	<advance width="452"/>
	<unicode hex="00B3"/>
	<outline>
		<contour>
			<point x="256" y="446" type="curve" smooth="yes"/>
			<point x="338" y="446"/>
			<point x="389" y="410"/>
			<point x="389" y="357" type="curve" smooth="yes"/>
			<point x="389" y="296"/>
			<point x="315" y="258"/>
			<point x="210" y="258" type="curve" smooth="yes"/>
			<point x="161" y="258"/>
			<point x="131" y="268"/>
			<point x="75" y="290" type="curve"/>
			<point x="65" y="376" type="line"/>
			<point x="61" y="377" type="line"/>
			<point x="30" y="274" type="line"/>
			<point x="97" y="247"/>
			<point x="146" y="233"/>
			<point x="210" y="233" type="curve" smooth="yes"/>
			<point x="332" y="233"/>
			<point x="422" y="288"/>
			<point x="422" y="362" type="curve" smooth="yes"/>
			<point x="422" y="423"/>
			<point x="356" y="471"/>
			<point x="264" y="471" type="curve" smooth="yes"/>
			<point x="213" y="471"/>
			<point x="150" y="452"/>
			<point x="126" y="437" type="curve"/>
			<point x="132" y="431" type="line"/>
			<point x="398" y="590" type="line"/>
			<point x="382" y="605" type="line"/>
			<point x="43" y="612" type="line"/>
			<point x="67" y="484" type="line"/>
			<point x="72" y="485" type="line"/>
			<point x="91" y="589" type="line"/>
			<point x="375" y="589" type="line"/>
			<point x="367" y="597" type="line"/>
			<point x="112" y="444" type="line"/>
			<point x="126" y="421" type="line"/>
			<point x="167" y="436"/>
			<point x="216" y="446"/>
		</contour>
	</outline>
</glyph>
<glyph name="paragraph" format="2">
  <advance width="747"/>
  <unicode hex="00B6"/>
  <outline>
    <contour>
      <point x="677" y="8" type="line"/>
      <point x="527" y="50" type="line"/>
      <point x="527" y="650" type="line"/>
      <point x="677" y="692" type="line"/>
      <point x="675" y="700" type="line"/>
      <point x="326" y="700" type="line" smooth="yes"/>
      <point x="122" y="700"/>
      <point x="40" y="654"/>
      <point x="40" y="540" type="curve" smooth="yes"/>
      <point x="40" y="423"/>
      <point x="122" y="375"/>
      <point x="326" y="373" type="curve" smooth="yes"/>
      <point x="421" y="372" type="line"/>
      <point x="421" y="50" type="line"/>
      <point x="241" y="8" type="line"/>
      <point x="243" y="0" type="line"/>
      <point x="675" y="0" type="line"/>
    </contour>
    <contour>
      <point x="448" y="650" type="line"/>
      <point x="503" y="650" type="line"/>
      <point x="503" y="50" type="line"/>
      <point x="448" y="50" type="line"/>
    </contour>
  </outline>
</glyph>
<glyph name="onesuperior" format="2">
  <advance width="312"/>
  <unicode hex="00B9"/>
  <outline>
    <contour>
      <point x="31" y="524" type="line"/>
      <point x="142" y="545" type="line"/>
      <point x="142" y="288" type="line"/>
      <point x="34" y="253" type="line"/>
      <point x="35" y="248" type="line"/>
      <point x="281" y="248" type="line"/>
      <point x="282" y="253" type="line"/>
      <point x="174" y="288" type="line"/>
      <point x="173" y="620" type="line"/>
      <point x="30" y="529" type="line"/>
    </contour>
  </outline>
</glyph>
<glyph name="onequarter" format="2">
	<advance width="1094"/>
	<unicode hex="00BC"/>
	<outline>
		<contour>
			<point x="964" y="94" type="line"/>
			<point x="964" y="120" type="line"/>
			<point x="535" y="120" type="line"/>
			<point x="542" y="104" type="line"/>
			<point x="824" y="340" type="line"/>
			<point x="809" y="342" type="line"/>
			<point x="809" y="40" type="line"/>
			<point x="704" y="5" type="line"/>
			<point x="706" y="0" type="line"/>
			<point x="918" y="0" type="line"/>
			<point x="920" y="5" type="line"/>
			<point x="842" y="40" type="line"/>
			<point x="842" y="321" type="line"/>
			<point x="914" y="355" type="line"/>
			<point x="912" y="360" type="line"/>
			<point x="809" y="360" type="line"/>
			<point x="519" y="114" type="line"/>
			<point x="530" y="94" type="line"/>
		</contour>
		<component base="onesuperior" xOffset="100"/>
		<component base="fraction" xOffset="212"/>
	</outline>
</glyph>
<glyph name="threequarters" format="2">
  <advance width="1204"/>
  <unicode hex="00BE"/>
  <outline>
    <contour>
      <point x="1074" y="94" type="line"/>
      <point x="1074" y="120" type="line"/>
      <point x="645" y="120" type="line"/>
      <point x="652" y="104" type="line"/>
      <point x="934" y="340" type="line"/>
      <point x="919" y="342" type="line"/>
      <point x="919" y="40" type="line"/>
      <point x="814" y="5" type="line"/>
      <point x="816" y="0" type="line"/>
      <point x="1028" y="0" type="line"/>
      <point x="1030" y="5" type="line"/>
      <point x="952" y="40" type="line"/>
      <point x="952" y="321" type="line"/>
      <point x="1024" y="355" type="line"/>
      <point x="1022" y="360" type="line"/>
      <point x="919" y="360" type="line"/>
      <point x="629" y="114" type="line"/>
      <point x="640" y="94" type="line"/>
    </contour>
    <component base="fraction" xOffset="322" identifier="6F745126"/>
    <component base="threesuperior" xOffset="100"/>
  </outline>
</glyph>
<glyph name="AE" format="2">
  <advance width="1234"/>
  <unicode hex="00C6"/>
  <anchor x="742" y="600" name="top"/>
  <outline>
    <contour>
      <point x="112" y="49" type="line"/>
      <point x="627" y="572" type="line"/>
      <point x="595" y="585" type="line"/>
      <point x="595" y="50" type="line"/>
      <point x="405" y="8" type="line"/>
      <point x="407" y="0" type="line"/>
      <point x="1174" y="0" type="line"/>
      <point x="1153" y="199" type="line"/>
      <point x="1145" y="197" type="line"/>
      <point x="1104" y="24" type="line"/>
      <point x="632" y="25" type="line"/>
      <point x="632" y="282" type="line"/>
      <point x="922" y="279" type="line"/>
      <point x="987" y="157" type="line"/>
      <point x="995" y="159" type="line"/>
      <point x="976" y="293" type="line"/>
      <point x="993" y="428" type="line"/>
      <point x="985" y="430" type="line"/>
      <point x="922" y="308" type="line"/>
      <point x="632" y="305" type="line"/>
      <point x="632" y="577" type="line"/>
      <point x="1100" y="581" type="line"/>
      <point x="1124" y="422" type="line"/>
      <point x="1132" y="420" type="line"/>
      <point x="1171" y="612" type="line"/>
      <point x="415" y="600" type="line"/>
      <point x="413" y="592" type="line"/>
      <point x="611" y="544" type="line"/>
      <point x="599" y="587" type="line"/>
      <point x="70" y="49" type="line"/>
      <point x="-50" y="7" type="line"/>
      <point x="-48" y="-1" type="line"/>
      <point x="285" y="-1" type="line"/>
      <point x="287" y="7" type="line"/>
    </contour>
    <contour>
      <point x="267" y="223" type="line"/>
      <point x="230" y="193" type="line"/>
      <point x="610" y="193" type="line"/>
      <point x="610" y="223" type="line"/>
    </contour>
  </outline>
</glyph>
<glyph name="Eth" format="2">
  <advance width="983"/>
  <unicode hex="00D0"/>
  <outline>
    <contour>
      <point x="406" y="320" type="line"/>
      <point x="30" y="320" type="line"/>
      <point x="30" y="280" type="line"/>
      <point x="406" y="280" type="line"/>
    </contour>
    <component base="D" xOffset="10"/>
  </outline>
</glyph>
<glyph name="multiply" format="2">
	<advance width="450"/>
	<unicode hex="00D7"/>
	<outline>
		<contour>
			<point x="91" y="435" type="line"/>
			<point x="72" y="415" type="line"/>
			<point x="206" y="280" type="line"/>
			<point x="70" y="146" type="line"/>
			<point x="90" y="125" type="line"/>
			<point x="225" y="261" type="line"/>
			<point x="360" y="125" type="line"/>
			<point x="379" y="145" type="line"/>
			<point x="244" y="280" type="line"/>
			<point x="380" y="415" type="line"/>
			<point x="361" y="435" type="line"/>
			<point x="225" y="300" type="line"/>
		</contour>
	</outline>
</glyph>
<glyph name="Thorn" format="2">
	<advance width="834"/>
	<unicode hex="00DE"/>
	<outline>
		<contour>
			<point x="30" y="8" type="line"/>
			<point x="32" y="0" type="line"/>
			<point x="370" y="0" type="line"/>
			<point x="372" y="8" type="line"/>
			<point x="222" y="50" type="line"/>
			<point x="222" y="134" type="line"/>
			<point x="523" y="135" type="line" smooth="yes"/>
			<point x="710" y="136"/>
			<point x="794" y="188"/>
			<point x="794" y="305" type="curve" smooth="yes"/>
			<point x="794" y="425"/>
			<point x="706" y="479"/>
			<point x="513" y="479" type="curve" smooth="yes"/>
			<point x="222" y="479" type="line"/>
			<point x="222" y="550" type="line"/>
			<point x="377" y="592" type="line"/>
			<point x="375" y="600" type="line"/>
			<point x="37" y="600" type="line"/>
			<point x="35" y="592" type="line"/>
			<point x="185" y="550" type="line"/>
			<point x="185" y="50" type="line"/>
		</contour>
		<contour>
			<point x="222" y="164" type="line"/>
			<point x="222" y="452" type="line"/>
			<point x="513" y="452" type="line" smooth="yes"/>
			<point x="683" y="452"/>
			<point x="756" y="396"/>
			<point x="756" y="297" type="curve" smooth="yes"/>
			<point x="756" y="207"/>
			<point x="689" y="164"/>
			<point x="533" y="164" type="curve" smooth="yes"/>
		</contour>
	</outline>
</glyph>
<glyph name="germandbls" format="2">
	<advance width="783"/>
	<unicode hex="00DF"/>
	<outline>
		<contour>
			<point x="158" y="464" type="curve" smooth="yes"/>
			<point x="158" y="415" type="line"/>
			<point x="48" y="384" type="line"/>
			<point x="50" y="374" type="line"/>
			<point x="158" y="374" type="line"/>
			<point x="159" y="50" type="line"/>
			<point x="19" y="8" type="line"/>
			<point x="21" y="0" type="line"/>
			<point x="197" y="0" type="line"/>
			<point x="197" y="464" type="line" smooth="yes"/>
			<point x="197" y="613"/>
			<point x="248" y="684"/>
			<point x="352" y="684" type="curve" smooth="yes"/>
			<point x="436" y="684"/>
			<point x="521" y="636"/>
			<point x="574" y="568" type="curve"/>
			<point x="575" y="599" type="line"/>
			<point x="322" y="338" type="line"/>
			<point x="342" y="314" type="line"/>
			<point x="401" y="336"/>
			<point x="458" y="348"/>
			<point x="511" y="348" type="curve" smooth="yes"/>
			<point x="635" y="348"/>
			<point x="711" y="283"/>
			<point x="711" y="174" type="curve" smooth="yes"/>
			<point x="711" y="84"/>
			<point x="640" y="13"/>
			<point x="526" y="13" type="curve" smooth="yes"/>
			<point x="473" y="13"/>
			<point x="408" y="25"/>
			<point x="342" y="51" type="curve"/>
			<point x="327" y="173" type="line"/>
			<point x="319" y="175" type="line"/>
			<point x="273" y="41" type="line"/>
			<point x="357" y="-1"/>
			<point x="443" y="-21"/>
			<point x="519" y="-19" type="curve" smooth="yes"/>
			<point x="655" y="-16"/>
			<point x="748" y="59"/>
			<point x="748" y="186" type="curve" smooth="yes"/>
			<point x="748" y="306"/>
			<point x="653" y="379"/>
			<point x="532" y="379" type="curve" smooth="yes"/>
			<point x="464" y="379"/>
			<point x="392" y="364"/>
			<point x="343" y="336" type="curve"/>
			<point x="351" y="329" type="line"/>
			<point x="603" y="582" type="line"/>
			<point x="549" y="662"/>
			<point x="462" y="711"/>
			<point x="358" y="711" type="curve" smooth="yes"/>
			<point x="224" y="711"/>
			<point x="158" y="629"/>
		</contour>
	</outline>
</glyph>
<glyph name="ae" format="2">
	<advance width="1069"/>
	<unicode hex="00E6"/>
	<anchor x="532" y="401" name="top"/>
	<outline>
		<contour>
			<point x="83" y="113" type="curve" smooth="yes"/>
			<point x="83" y="177"/>
			<point x="155" y="216"/>
			<point x="275" y="216" type="curve" smooth="yes"/>
			<point x="356" y="216"/>
			<point x="430" y="198"/>
			<point x="489" y="166" type="curve"/>
			<point x="489" y="99" type="line"/>
			<point x="422" y="35"/>
			<point x="359" y="7"/>
			<point x="258" y="7" type="curve" smooth="yes"/>
			<point x="155" y="7"/>
			<point x="83" y="49"/>
		</contour>
		<contour>
			<point x="313" y="421" type="curve" smooth="yes"/>
			<point x="218" y="421"/>
			<point x="126" y="402"/>
			<point x="39" y="352" type="curve"/>
			<point x="80" y="249" type="line"/>
			<point x="88" y="251" type="line"/>
			<point x="99" y="350" type="line"/>
			<point x="139" y="375"/>
			<point x="227" y="392"/>
			<point x="294" y="392" type="curve" smooth="yes"/>
			<point x="432" y="392"/>
			<point x="489" y="336"/>
			<point x="489" y="193" type="curve"/>
			<point x="449" y="221"/>
			<point x="354" y="238"/>
			<point x="284" y="238" type="curve" smooth="yes"/>
			<point x="139" y="239"/>
			<point x="42" y="188"/>
			<point x="42" y="109" type="curve" smooth="yes"/>
			<point x="42" y="33"/>
			<point x="129" y="-20"/>
			<point x="245" y="-20" type="curve" smooth="yes"/>
			<point x="365" y="-20"/>
			<point x="446" y="18"/>
			<point x="538" y="114" type="curve"/>
			<point x="508" y="112" type="line"/>
			<point x="559" y="24"/>
			<point x="643" y="-20"/>
			<point x="750" y="-20" type="curve" smooth="yes"/>
			<point x="857" y="-20"/>
			<point x="949" y="18"/>
			<point x="1025" y="95" type="curve"/>
			<point x="1014" y="105" type="line"/>
			<point x="938" y="39"/>
			<point x="863" y="9"/>
			<point x="773" y="9" type="curve" smooth="yes"/>
			<point x="638" y="9"/>
			<point x="529" y="88"/>
			<point x="526" y="205" type="curve" smooth="yes"/>
			<point x="523" y="320"/>
			<point x="617" y="395"/>
			<point x="753" y="395" type="curve" smooth="yes"/>
			<point x="874" y="395"/>
			<point x="967" y="329"/>
			<point x="973" y="236" type="curve"/>
			<point x="510" y="220" type="line"/>
			<point x="512" y="203" type="line"/>
			<point x="1021" y="205" type="line"/>
			<point x="1019" y="340"/>
			<point x="917" y="421"/>
			<point x="769" y="421" type="curve" smooth="yes"/>
			<point x="640" y="421"/>
			<point x="541" y="366"/>
			<point x="506" y="270" type="curve"/>
			<point x="525" y="263" type="line"/>
			<point x="504" y="375"/>
			<point x="442" y="421"/>
		</contour>
	</outline>
</glyph>
<glyph name="eth" format="2">
  <advance width="699"/>
  <unicode hex="00F0"/>
  <outline>
    <contour>
      <point x="259" y="550" type="line"/>
      <point x="265" y="526" type="line"/>
      <point x="623" y="620" type="line"/>
      <point x="615" y="645" type="line"/>
    </contour>
    <contour>
      <point x="180" y="711" type="curve"/>
      <point x="175" y="694" type="line"/>
      <point x="440" y="624"/>
      <point x="611" y="444"/>
      <point x="611" y="221" type="curve" smooth="yes"/>
      <point x="611" y="82"/>
      <point x="493" y="5"/>
      <point x="362" y="5" type="curve" smooth="yes"/>
      <point x="182" y="5"/>
      <point x="80" y="94"/>
      <point x="80" y="220" type="curve" smooth="yes"/>
      <point x="80" y="320"/>
      <point x="192" y="393"/>
      <point x="326" y="397" type="curve" smooth="yes"/>
      <point x="459" y="401"/>
      <point x="561" y="353"/>
      <point x="617" y="274" type="curve"/>
      <point x="630" y="312" type="line"/>
      <point x="565" y="389"/>
      <point x="464" y="421"/>
      <point x="340" y="421" type="curve" smooth="yes"/>
      <point x="172" y="421"/>
      <point x="39" y="329"/>
      <point x="39" y="202" type="curve" smooth="yes"/>
      <point x="39" y="67"/>
      <point x="154" y="-20"/>
      <point x="348" y="-20" type="curve" smooth="yes"/>
      <point x="531" y="-20"/>
      <point x="650" y="78"/>
      <point x="650" y="248" type="curve" smooth="yes"/>
      <point x="650" y="445"/>
      <point x="451" y="660"/>
    </contour>
  </outline>
</glyph>
<glyph name="divide" format="2">
  <advance width="500"/>
  <unicode hex="00F7"/>
  <outline>
    <contour>
      <point x="215" y="444" type="line"/>
      <point x="215" y="364" type="line"/>
      <point x="285" y="364" type="line"/>
      <point x="285" y="444" type="line"/>
    </contour>
    <contour>
      <point x="215" y="116" type="line"/>
      <point x="285" y="116" type="line"/>
      <point x="285" y="196" type="line"/>
      <point x="215" y="196" type="line"/>
    </contour>
    <contour>
      <point x="70" y="294" type="line"/>
      <point x="70" y="266" type="line"/>
      <point x="430" y="266" type="line"/>
      <point x="430" y="294" type="line"/>
    </contour>
  </outline>
</glyph>
<glyph name="oslash" format="2">
	<advance width="698"/>
	<unicode hex="00F8"/>
	<anchor x="358" y="401" name="top"/>
	<outline>
		<contour>
			<point x="39" y="198" type="curve" smooth="yes"/>
			<point x="39" y="104"/>
			<point x="95" y="35"/>
			<point x="194" y="2" type="curve"/>
			<point x="149" y="-62" type="line"/>
			<point x="185" y="-62" type="line"/>
			<point x="224" y="-6" type="line"/>
			<point x="261" y="-15"/>
			<point x="301" y="-20"/>
			<point x="349" y="-20" type="curve" smooth="yes"/>
			<point x="529" y="-20"/>
			<point x="654" y="72"/>
			<point x="654" y="197" type="curve" smooth="yes"/>
			<point x="654" y="291"/>
			<point x="604" y="363"/>
			<point x="503" y="398" type="curve"/>
			<point x="545" y="458" type="line"/>
			<point x="509" y="458" type="line"/>
			<point x="473" y="407" type="line"/>
			<point x="438" y="416"/>
			<point x="397" y="421"/>
			<point x="349" y="421" type="curve" smooth="yes"/>
			<point x="166" y="421"/>
			<point x="39" y="327"/>
		</contour>
		<contour>
			<point x="80" y="211" type="curve" smooth="yes"/>
			<point x="80" y="320"/>
			<point x="187" y="396"/>
			<point x="336" y="396" type="curve" smooth="yes"/>
			<point x="383" y="396"/>
			<point x="420" y="391"/>
			<point x="455" y="381" type="curve"/>
			<point x="211" y="28" type="line"/>
			<point x="127" y="60"/>
			<point x="80" y="126"/>
		</contour>
		<contour>
			<point x="242" y="21" type="curve"/>
			<point x="486" y="373" type="line"/>
			<point x="567" y="340"/>
			<point x="613" y="275"/>
			<point x="613" y="185" type="curve" smooth="yes"/>
			<point x="613" y="80"/>
			<point x="508" y="5"/>
			<point x="363" y="5" type="curve" smooth="yes"/>
			<point x="320" y="5"/>
			<point x="278" y="10"/>
		</contour>
	</outline>
</glyph>
<glyph name="thorn" format="2">
  <advance width="711"/>
  <unicode hex="00FE"/>
  <outline>
    <contour>
      <point x="139" y="73" type="curve"/>
      <point x="139" y="303" type="line"/>
      <point x="194" y="357"/>
      <point x="293" y="392"/>
      <point x="383" y="392" type="curve" smooth="yes"/>
      <point x="524" y="392"/>
      <point x="628" y="311"/>
      <point x="628" y="200" type="curve" smooth="yes"/>
      <point x="628" y="89"/>
      <point x="522" y="11"/>
      <point x="369" y="11" type="curve" smooth="yes"/>
      <point x="282" y="11"/>
      <point x="194" y="34"/>
    </contour>
    <contour>
      <point x="-41" y="631" type="line"/>
      <point x="-37" y="623" type="line"/>
      <point x="100" y="631" type="line"/>
      <point x="100" y="-191" type="line"/>
      <point x="-30" y="-235" type="line"/>
      <point x="-28" y="-241" type="line"/>
      <point x="307" y="-241" type="line"/>
      <point x="309" y="-235" type="line"/>
      <point x="139" y="-191" type="line"/>
      <point x="139" y="35" type="line"/>
      <point x="202" y="-1"/>
      <point x="276" y="-18"/>
      <point x="357" y="-18" type="curve" smooth="yes"/>
      <point x="540" y="-18"/>
      <point x="667" y="77"/>
      <point x="667" y="213" type="curve" smooth="yes"/>
      <point x="667" y="336"/>
      <point x="556" y="423"/>
      <point x="398" y="423" type="curve" smooth="yes"/>
      <point x="311" y="423"/>
      <point x="215" y="395"/>
      <point x="139" y="338" type="curve"/>
      <point x="139" y="711" type="line"/>
    </contour>
  </outline>
</glyph>
<glyph name="idotless" format="2">
	<advance width="408"/>
	<unicode hex="0131"/>
	<anchor x="214" y="10" name="ogonek"/>
	<anchor x="213" y="401" name="top"/>
	<outline>
		<contour>
			<point x="234" y="50" type="line"/>
			<point x="234" y="421" type="line"/>
			<point x="44" y="350" type="line"/>
			<point x="46" y="342" type="line"/>
			<point x="195" y="350" type="line"/>
			<point x="195" y="50" type="line"/>
			<point x="45" y="8" type="line"/>
			<point x="47" y="0" type="line"/>
			<point x="382" y="0" type="line"/>
			<point x="384" y="8" type="line"/>
		</contour>
	</outline>
</glyph>
<glyph name="Lslash" format="2">
	<advance width="847"/>
	<unicode hex="0141"/>
	<outline>
		<contour>
			<point x="562" y="376" type="line"/>
			<point x="549" y="413" type="line"/>
			<point x="30" y="224" type="line"/>
			<point x="43" y="187" type="line"/>
		</contour>
		<component base="L" xOffset="10"/>
	</outline>
</glyph>
<glyph name="lslash" format="2">
  <advance width="321"/>
  <unicode hex="0142"/>
  <outline>
    <contour>
      <point x="-13" y="279" type="line"/>
      <point x="1" y="256" type="line"/>
      <point x="311" y="420" type="line"/>
      <point x="298" y="444" type="line"/>
    </contour>
    <component base="l"/>
  </outline>
</glyph>
<glyph name="OE" format="2">
  <advance width="1255"/>
  <unicode hex="0152"/>
  <anchor x="636" y="0" name="bottom"/>
  <anchor x="636" y="600" name="top"/>
  <outline>
    <contour>
      <point x="82" y="315" type="curve" smooth="yes"/>
      <point x="82" y="480"/>
      <point x="224" y="580"/>
      <point x="438" y="580" type="curve" smooth="yes"/>
      <point x="516" y="580"/>
      <point x="584" y="564"/>
      <point x="638" y="535" type="curve"/>
      <point x="638" y="58" type="line"/>
      <point x="586" y="30"/>
      <point x="520" y="15"/>
      <point x="446" y="15" type="curve" smooth="yes"/>
      <point x="228" y="15"/>
      <point x="82" y="135"/>
    </contour>
    <contour>
      <point x="40" y="309" type="curve" smooth="yes"/>
      <point x="40" y="112"/>
      <point x="201" y="-20"/>
      <point x="442" y="-20" type="curve" smooth="yes"/>
      <point x="495" y="-20"/>
      <point x="545" y="-13"/>
      <point x="589" y="0" type="curve"/>
      <point x="1195" y="0" type="line"/>
      <point x="1174" y="199" type="line"/>
      <point x="1166" y="197" type="line"/>
      <point x="1125" y="28" type="line"/>
      <point x="675" y="25" type="line"/>
      <point x="675" y="282" type="line"/>
      <point x="952" y="279" type="line"/>
      <point x="1017" y="157" type="line"/>
      <point x="1025" y="159" type="line"/>
      <point x="1006" y="293" type="line"/>
      <point x="1023" y="428" type="line"/>
      <point x="1015" y="430" type="line"/>
      <point x="952" y="308" type="line"/>
      <point x="675" y="305" type="line"/>
      <point x="675" y="577" type="line"/>
      <point x="1121" y="581" type="line"/>
      <point x="1145" y="422" type="line"/>
      <point x="1153" y="420" type="line"/>
      <point x="1192" y="612" type="line"/>
      <point x="568" y="601" type="line"/>
      <point x="529" y="610"/>
      <point x="487" y="615"/>
      <point x="441" y="615" type="curve" smooth="yes"/>
      <point x="200" y="615"/>
      <point x="40" y="499"/>
    </contour>
  </outline>
</glyph>
<glyph name="oe" format="2">
  <advance width="1153"/>
  <unicode hex="0153"/>
  <outline>
    <contour>
      <point x="329" y="-20" type="curve" smooth="yes"/>
      <point x="469" y="-20"/>
      <point x="574" y="38"/>
      <point x="604" y="131" type="curve"/>
      <point x="585" y="133" type="line"/>
      <point x="611" y="39"/>
      <point x="707" y="-20"/>
      <point x="834" y="-20" type="curve" smooth="yes"/>
      <point x="937" y="-20"/>
      <point x="1036" y="21"/>
      <point x="1109" y="95" type="curve"/>
      <point x="1098" y="105" type="line"/>
      <point x="1024" y="41"/>
      <point x="943" y="9"/>
      <point x="857" y="9" type="curve" smooth="yes"/>
      <point x="714" y="9"/>
      <point x="617" y="88"/>
      <point x="614" y="205" type="curve" smooth="yes"/>
      <point x="611" y="318"/>
      <point x="703" y="395"/>
      <point x="837" y="395" type="curve" smooth="yes"/>
      <point x="959" y="395"/>
      <point x="1051" y="330"/>
      <point x="1057" y="236" type="curve"/>
      <point x="604" y="220" type="line"/>
      <point x="606" y="203" type="line"/>
      <point x="1105" y="205" type="line"/>
      <point x="1103" y="343"/>
      <point x="1006" y="421"/>
      <point x="853" y="421" type="curve" smooth="yes"/>
      <point x="716" y="421"/>
      <point x="613" y="360"/>
      <point x="584" y="265" type="curve"/>
      <point x="603" y="264" type="line"/>
      <point x="572" y="366"/>
      <point x="462" y="421"/>
      <point x="328" y="421" type="curve" smooth="yes"/>
      <point x="157" y="421"/>
      <point x="39" y="330"/>
      <point x="39" y="198" type="curve" smooth="yes"/>
      <point x="39" y="68"/>
      <point x="157" y="-20"/>
    </contour>
    <contour>
      <point x="80" y="211" type="curve" smooth="yes"/>
      <point x="80" y="322"/>
      <point x="173" y="396"/>
      <point x="316" y="396" type="curve" smooth="yes"/>
      <point x="465" y="396"/>
      <point x="573" y="308"/>
      <point x="573" y="185" type="curve" smooth="yes"/>
      <point x="573" y="75"/>
      <point x="483" y="5"/>
      <point x="342" y="5" type="curve" smooth="yes"/>
      <point x="188" y="5"/>
      <point x="80" y="89"/>
    </contour>
  </outline>
</glyph>
<glyph name="Schwa" format="2">
	<advance width="887"/>
	<unicode hex="018F"/>
	<outline>
		<contour>
			<point x="822" y="278" type="line"/>
			<point x="821" y="298" type="line"/>
			<point x="40" y="310" type="line"/>
			<point x="37" y="131"/>
			<point x="190" y="-12"/>
			<point x="435" y="-12" type="curve" smooth="yes"/>
			<point x="675" y="-12"/>
			<point x="842" y="114"/>
			<point x="842" y="304" type="curve" smooth="yes"/>
			<point x="842" y="493"/>
			<point x="679" y="625"/>
			<point x="439" y="625" type="curve" smooth="yes"/>
			<point x="287" y="625"/>
			<point x="144" y="571"/>
			<point x="62" y="483" type="curve"/>
			<point x="76" y="468" type="line"/>
			<point x="166" y="549"/>
			<point x="283" y="593"/>
			<point x="407" y="593" type="curve" smooth="yes"/>
			<point x="628" y="593"/>
			<point x="804" y="459"/>
			<point x="804" y="289" type="curve" smooth="yes"/>
			<point x="804" y="135"/>
			<point x="656" y="20"/>
			<point x="454" y="20" type="curve" smooth="yes"/>
			<point x="254" y="20"/>
			<point x="111" y="152"/>
			<point x="110" y="270" type="curve"/>
		</contour>
	</outline>
</glyph>
<glyph name="florin" format="2">
  <advance width="618"/>
  <unicode hex="0192"/>
  <outline>
    <contour>
      <point x="258" y="6" type="curve" smooth="yes"/>
      <point x="277" y="375" type="line"/>
      <point x="488" y="375" type="line"/>
      <point x="505" y="273" type="line"/>
      <point x="513" y="271" type="line"/>
      <point x="552" y="400" type="line"/>
      <point x="278" y="400" type="line"/>
      <point x="281" y="464" type="line" smooth="yes"/>
      <point x="289" y="640"/>
      <point x="317" y="683"/>
      <point x="418" y="683" type="curve" smooth="yes"/>
      <point x="468" y="683"/>
      <point x="518" y="675"/>
      <point x="582" y="656" type="curve"/>
      <point x="598" y="531" type="line"/>
      <point x="606" y="529" type="line"/>
      <point x="651" y="665" type="line"/>
      <point x="565" y="695"/>
      <point x="489" y="710"/>
      <point x="427" y="710" type="curve" smooth="yes"/>
      <point x="295" y="710"/>
      <point x="253" y="654"/>
      <point x="241" y="464" type="curve" smooth="yes"/>
      <point x="238" y="415" type="line"/>
      <point x="128" y="385" type="line"/>
      <point x="130" y="375" type="line"/>
      <point x="237" y="375" type="line"/>
      <point x="218" y="6" type="line" smooth="yes"/>
      <point x="209" y="-173"/>
      <point x="180" y="-215"/>
      <point x="67" y="-215" type="curve" smooth="yes"/>
      <point x="2" y="-215"/>
      <point x="-48" y="-202"/>
      <point x="-171" y="-152" type="curve"/>
      <point x="-180" y="-165" type="line"/>
      <point x="-103" y="-215"/>
      <point x="-21" y="-240"/>
      <point x="67" y="-240" type="curve" smooth="yes"/>
      <point x="202" y="-240"/>
      <point x="249" y="-179"/>
    </contour>
  </outline>
</glyph>
<glyph name="jdotless" format="2">
	<advance width="334"/>
	<unicode hex="0237"/>
	<anchor x="204" y="401" name="top"/>
	<outline>
		<contour>
			<point x="34" y="350" type="line"/>
			<point x="36" y="342" type="line"/>
			<point x="185" y="350" type="line"/>
			<point x="185" y="9" type="line" smooth="yes"/>
			<point x="185" y="-142"/>
			<point x="143" y="-187"/>
			<point x="24" y="-239" type="curve"/>
			<point x="32" y="-251" type="line"/>
			<point x="179" y="-212"/>
			<point x="225" y="-132"/>
			<point x="225" y="9" type="curve" smooth="yes"/>
			<point x="225" y="421" type="line"/>
		</contour>
	</outline>
</glyph>
<glyph name="gravecomb" format="2">
	<advance width="362"/>
	<unicode hex="0300"/>
	<anchor x="215" y="410" name="_top"/>
	<outline>
		<contour>
			<point x="62" y="578" type="line"/>
			<point x="290" y="514" type="line"/>
			<point x="295" y="526" type="line"/>
			<point x="89" y="634" type="line"/>
		</contour>
	</outline>
</glyph>
<glyph name="circumflexcomb" format="2">
	<advance width="457"/>
	<unicode hex="0302"/>
	<anchor x="229" y="410" name="_top"/>
	<outline>
		<contour>
			<point x="229" y="639" type="line"/>
			<point x="68" y="547" type="line"/>
			<point x="73" y="535" type="line"/>
			<point x="229" y="589" type="line"/>
			<point x="384" y="535" type="line"/>
			<point x="389" y="547" type="line"/>
		</contour>
	</outline>
</glyph>
<glyph name="tildecomb" format="2">
  <advance width="489"/>
  <unicode hex="0303"/>
  <anchor x="235" y="410" name="_top"/>
  <outline>
    <contour>
      <point x="384" y="622" type="curve"/>
      <point x="376" y="624" type="line"/>
      <point x="363" y="597"/>
      <point x="334" y="582"/>
      <point x="303" y="582" type="curve" smooth="yes"/>
      <point x="257" y="582"/>
      <point x="244" y="621"/>
      <point x="179" y="621" type="curve" smooth="yes"/>
      <point x="132" y="621"/>
      <point x="95" y="598"/>
      <point x="85" y="540" type="curve"/>
      <point x="93" y="539" type="line"/>
      <point x="113" y="568"/>
      <point x="139" y="581"/>
      <point x="167" y="581" type="curve" smooth="yes"/>
      <point x="211" y="581"/>
      <point x="233" y="542"/>
      <point x="294" y="542" type="curve" smooth="yes"/>
      <point x="349" y="542"/>
      <point x="379" y="576"/>
    </contour>
  </outline>
</glyph>
<glyph name="macroncomb" format="2">
	<advance width="440"/>
	<unicode hex="0304"/>
	<anchor x="220" y="410" name="_top"/>
	<outline>
		<contour>
			<point x="75" y="605" type="line"/>
			<point x="75" y="562" type="line"/>
			<point x="365" y="562" type="line"/>
			<point x="365" y="605" type="line"/>
		</contour>
	</outline>
</glyph>
<glyph name="brevecomb" format="2">
	<advance width="396"/>
	<unicode hex="0306"/>
	<anchor x="199" y="410" name="_top"/>
	<outline>
		<contour>
			<point x="347" y="639" type="curve"/>
			<point x="322" y="639" type="line"/>
			<point x="316" y="592"/>
			<point x="270" y="562"/>
			<point x="199" y="562" type="curve" smooth="yes"/>
			<point x="128" y="562"/>
			<point x="82" y="591"/>
			<point x="74" y="639" type="curve"/>
			<point x="50" y="639" type="line"/>
			<point x="51" y="571"/>
			<point x="113" y="528"/>
			<point x="199" y="528" type="curve" smooth="yes"/>
			<point x="285" y="528"/>
			<point x="346" y="570"/>
		</contour>
	</outline>
</glyph>
<glyph name="dieresiscomb" format="2">
	<advance width="410"/>
	<unicode hex="0308"/>
	<anchor x="205" y="410" name="_top"/>
	<outline>
		<contour>
			<point x="64" y="616" type="line"/>
			<point x="64" y="534" type="line"/>
			<point x="133" y="534" type="line"/>
			<point x="133" y="616" type="line"/>
		</contour>
		<contour>
			<point x="277" y="616" type="line"/>
			<point x="277" y="534" type="line"/>
			<point x="346" y="534" type="line"/>
			<point x="346" y="616" type="line"/>
		</contour>
	</outline>
</glyph>
<glyph name="ringcomb" format="2">
	<advance width="347"/>
	<unicode hex="030A"/>
	<anchor x="174" y="410" name="_top"/>
	<outline>
		<contour>
			<point x="170" y="502" type="curve" smooth="yes"/>
			<point x="245" y="502"/>
			<point x="295" y="536"/>
			<point x="295" y="588" type="curve" smooth="yes"/>
			<point x="295" y="638"/>
			<point x="248" y="672"/>
			<point x="178" y="672" type="curve" smooth="yes"/>
			<point x="102" y="672"/>
			<point x="52" y="638"/>
			<point x="52" y="586" type="curve" smooth="yes"/>
			<point x="52" y="536"/>
			<point x="99" y="502"/>
		</contour>
		<contour>
			<point x="178" y="523" type="curve" smooth="yes"/>
			<point x="123" y="523"/>
			<point x="87" y="550"/>
			<point x="87" y="590" type="curve" smooth="yes"/>
			<point x="87" y="625"/>
			<point x="120" y="649"/>
			<point x="170" y="649" type="curve" smooth="yes"/>
			<point x="224" y="649"/>
			<point x="260" y="623"/>
			<point x="260" y="584" type="curve" smooth="yes"/>
			<point x="260" y="547"/>
			<point x="227" y="523"/>
		</contour>
	</outline>
</glyph>
<glyph name="hungarumlautcomb" format="2">
	<advance width="492"/>
	<unicode hex="030B"/>
	<anchor x="225" y="410" name="_top"/>
	<outline>
		<contour>
			<point x="460" y="568" type="line"/>
			<point x="433" y="624" type="line"/>
			<point x="227" y="516" type="line"/>
			<point x="232" y="504" type="line"/>
		</contour>
		<contour>
			<point x="271" y="600" type="line"/>
			<point x="236" y="652" type="line"/>
			<point x="47" y="516" type="line"/>
			<point x="54" y="505" type="line"/>
		</contour>
	</outline>
</glyph>
<glyph name="cedillacomb" format="2">
  <advance width="425"/>
  <unicode hex="0327"/>
  <anchor x="235" y="0" name="_bottom"/>
  <outline>
    <contour>
      <point x="221" y="0" type="line"/>
      <point x="165" y="-86" type="line"/>
      <point x="180" y="-92" type="line"/>
      <point x="192" y="-88"/>
      <point x="203" y="-86"/>
      <point x="214" y="-86" type="curve" smooth="yes"/>
      <point x="247" y="-86"/>
      <point x="269" y="-107"/>
      <point x="269" y="-141" type="curve" smooth="yes"/>
      <point x="269" y="-177"/>
      <point x="245" y="-197"/>
      <point x="202" y="-197" type="curve" smooth="yes"/>
      <point x="163" y="-197"/>
      <point x="119" y="-180"/>
      <point x="100" y="-157" type="curve"/>
      <point x="90" y="-169" type="line"/>
      <point x="116" y="-201"/>
      <point x="160" y="-221"/>
      <point x="205" y="-221" type="curve" smooth="yes"/>
      <point x="260" y="-221"/>
      <point x="304" y="-187"/>
      <point x="304" y="-139" type="curve" smooth="yes"/>
      <point x="304" y="-96"/>
      <point x="267" y="-67"/>
      <point x="225" y="-67" type="curve" smooth="yes"/>
      <point x="209" y="-67"/>
      <point x="192" y="-71"/>
      <point x="176" y="-80" type="curve"/>
      <point x="197" y="-85" type="line"/>
      <point x="255" y="0" type="line"/>
    </contour>
  </outline>
</glyph>
<glyph name="ogonekcomb" format="2">
	<advance width="310"/>
	<unicode hex="0328"/>
	<anchor x="178" y="0" name="_ogonek"/>
	<outline>
		<contour>
			<point x="322" y="-100" type="curve"/>
			<point x="312" y="-92" type="line"/>
			<point x="263" y="-160"/>
			<point x="224" y="-176"/>
			<point x="186" y="-176" type="curve" smooth="yes"/>
			<point x="95" y="-176"/>
			<point x="82" y="-63"/>
			<point x="203" y="7" type="curve"/>
			<point x="177" y="7" type="line"/>
			<point x="114" y="-31"/>
			<point x="80" y="-78"/>
			<point x="80" y="-125" type="curve" smooth="yes"/>
			<point x="80" y="-174"/>
			<point x="115" y="-204"/>
			<point x="172" y="-204" type="curve" smooth="yes"/>
			<point x="228" y="-204"/>
			<point x="279" y="-175"/>
		</contour>
	</outline>
</glyph>
<glyph name="strokeshortcomb" format="2">
  <advance width="580"/>
  <unicode hex="0335"/>
  <outline>
    <contour>
      <point x="70" y="244" type="line"/>
      <point x="70" y="229" type="line"/>
      <point x="510" y="209" type="line"/>
      <point x="510" y="269" type="line"/>
    </contour>
  </outline>
</glyph>
<glyph name="mu" format="2">
  <advance width="778"/>
  <unicode hex="03BC"/>
  <outline>
    <contour>
      <point x="110" y="250" type="line"/>
      <point x="110" y="-241" type="line"/>
      <point x="149" y="-241" type="line"/>
      <point x="149" y="250" type="line"/>
    </contour>
    <contour>
      <point x="-31" y="350" type="line"/>
      <point x="-29" y="342" type="line"/>
      <point x="110" y="350" type="line"/>
      <point x="110" y="187" type="line" smooth="yes"/>
      <point x="110" y="47"/>
      <point x="198" y="-20"/>
      <point x="343" y="-20" type="curve" smooth="yes"/>
      <point x="445" y="-20"/>
      <point x="523" y="12"/>
      <point x="596" y="60" type="curve"/>
      <point x="596" y="-12" type="line"/>
      <point x="771" y="29" type="line"/>
      <point x="769" y="37" type="line"/>
      <point x="631" y="46" type="line"/>
      <point x="632" y="421" type="line"/>
      <point x="452" y="350" type="line"/>
      <point x="454" y="342" type="line"/>
      <point x="592" y="350" type="line"/>
      <point x="592" y="85" type="line"/>
      <point x="526" y="41"/>
      <point x="444" y="10"/>
      <point x="354" y="10" type="curve" smooth="yes"/>
      <point x="225" y="10"/>
      <point x="149" y="78"/>
      <point x="149" y="187" type="curve" smooth="yes"/>
      <point x="149" y="421" type="line"/>
    </contour>
  </outline>
</glyph>
<glyph name="Germandbls" format="2">
	<advance width="930"/>
	<unicode hex="1E9E"/>
	<outline>
		<contour>
			<point x="816" y="585" type="line"/>
			<point x="797" y="611" type="line"/>
			<point x="32" y="600" type="line"/>
			<point x="30" y="592" type="line"/>
			<point x="180" y="550" type="line"/>
			<point x="180" y="50" type="line"/>
			<point x="30" y="8" type="line"/>
			<point x="32" y="0" type="line"/>
			<point x="217" y="0" type="line"/>
			<point x="218" y="577" type="line"/>
			<point x="779" y="580" type="line"/>
			<point x="783" y="597" type="line"/>
			<point x="471" y="317" type="line"/>
			<point x="488" y="298" type="line"/>
			<point x="733" y="334"/>
			<point x="857" y="291"/>
			<point x="856" y="171" type="curve" smooth="yes"/>
			<point x="855" y="65"/>
			<point x="755" y="10"/>
			<point x="624" y="10" type="curve" smooth="yes"/>
			<point x="534" y="10"/>
			<point x="452" y="26"/>
			<point x="369" y="65" type="curve"/>
			<point x="362" y="221" type="line"/>
			<point x="354" y="223" type="line"/>
			<point x="293" y="65" type="line"/>
			<point x="382" y="11"/>
			<point x="499" y="-20"/>
			<point x="614" y="-20" type="curve" smooth="yes"/>
			<point x="775" y="-20"/>
			<point x="890" y="48"/>
			<point x="890" y="179" type="curve" smooth="yes"/>
			<point x="890" y="315"/>
			<point x="753" y="367"/>
			<point x="507" y="327" type="curve"/>
			<point x="510" y="314" type="line"/>
		</contour>
	</outline>
</glyph>
<glyph name="endash" format="2">
	<advance width="674"/>
	<unicode hex="2013"/>
	<outline>
		<contour>
			<point x="50" y="258" type="line"/>
			<point x="50" y="224" type="line"/>
			<point x="624" y="223" type="line"/>
			<point x="624" y="258" type="line"/>
		</contour>
	</outline>
</glyph>
<glyph name="emdash" format="2">
	<advance width="1019"/>
	<unicode hex="2014"/>
	<outline>
		<contour>
			<point x="50" y="257" type="line"/>
			<point x="50" y="222" type="line"/>
			<point x="969" y="222" type="line"/>
			<point x="969" y="257" type="line"/>
		</contour>
	</outline>
</glyph>
<glyph name="dagger" format="2">
  <advance width="492"/>
  <unicode hex="2020"/>
  <outline>
    <contour>
      <point x="286" y="390" type="line"/>
      <point x="256" y="-240" type="line"/>
      <point x="236" y="-240" type="line"/>
      <point x="206" y="390" type="line"/>
      <point x="233" y="530" type="line"/>
      <point x="220" y="640" type="line"/>
      <point x="90" y="682" type="line"/>
      <point x="92" y="690" type="line"/>
      <point x="400" y="690" type="line"/>
      <point x="402" y="682" type="line"/>
      <point x="272" y="640" type="line"/>
      <point x="259" y="530" type="line"/>
    </contour>
    <contour>
      <point x="70" y="556" type="line"/>
      <point x="246" y="544" type="line"/>
      <point x="422" y="556" type="line"/>
      <point x="422" y="516" type="line"/>
      <point x="246" y="528" type="line"/>
      <point x="70" y="516" type="line"/>
    </contour>
  </outline>
</glyph>
<glyph name="daggerdbl" format="2">
  <advance width="492"/>
  <unicode hex="2021"/>
  <outline>
    <contour>
      <point x="286" y="70" type="line"/>
      <point x="259" y="-80" type="line"/>
      <point x="272" y="-190" type="line"/>
      <point x="402" y="-232" type="line"/>
      <point x="400" y="-240" type="line"/>
      <point x="92" y="-240" type="line"/>
      <point x="90" y="-232" type="line"/>
      <point x="220" y="-190" type="line"/>
      <point x="233" y="-80" type="line"/>
      <point x="206" y="70" type="line"/>
      <point x="239" y="225" type="line"/>
      <point x="206" y="380" type="line"/>
      <point x="233" y="530" type="line"/>
      <point x="220" y="640" type="line"/>
      <point x="90" y="682" type="line"/>
      <point x="92" y="690" type="line"/>
      <point x="400" y="690" type="line"/>
      <point x="402" y="682" type="line"/>
      <point x="272" y="640" type="line"/>
      <point x="259" y="530" type="line"/>
      <point x="286" y="380" type="line"/>
      <point x="254" y="225" type="line"/>
    </contour>
    <contour>
      <point x="70" y="-106" type="line"/>
      <point x="70" y="-66" type="line"/>
      <point x="246" y="-78" type="line"/>
      <point x="422" y="-66" type="line"/>
      <point x="422" y="-106" type="line"/>
      <point x="246" y="-94" type="line"/>
    </contour>
    <contour>
      <point x="70" y="556" type="line"/>
      <point x="246" y="544" type="line"/>
      <point x="422" y="556" type="line"/>
      <point x="422" y="516" type="line"/>
      <point x="246" y="528" type="line"/>
      <point x="70" y="516" type="line"/>
    </contour>
  </outline>
</glyph>
<glyph name="bullet" format="2">
  <advance width="422"/>
  <unicode hex="2022"/>
  <outline>
    <contour>
      <point x="201" y="99" type="curve" smooth="yes"/>
      <point x="256" y="99"/>
      <point x="301" y="145"/>
      <point x="301" y="200" type="curve" smooth="yes"/>
      <point x="301" y="254"/>
      <point x="256" y="300"/>
      <point x="201" y="300" type="curve" smooth="yes"/>
      <point x="146" y="300"/>
      <point x="101" y="254"/>
      <point x="101" y="200" type="curve" smooth="yes"/>
      <point x="101" y="145"/>
      <point x="146" y="99"/>
    </contour>
  </outline>
</glyph>
<glyph name="perthousand" format="2">
	<advance width="1232"/>
	<unicode hex="2030"/>
	<outline>
		<contour>
			<point x="604" y="-4" type="curve" smooth="yes"/>
			<point x="705" y="-4"/>
			<point x="772" y="52"/>
			<point x="772" y="136" type="curve" smooth="yes"/>
			<point x="772" y="218"/>
			<point x="705" y="273"/>
			<point x="604" y="273" type="curve" smooth="yes"/>
			<point x="503" y="273"/>
			<point x="435" y="218"/>
			<point x="435" y="136" type="curve" smooth="yes"/>
			<point x="435" y="52"/>
			<point x="503" y="-4"/>
		</contour>
		<contour>
			<point x="604" y="25" type="curve" smooth="yes"/>
			<point x="521" y="25"/>
			<point x="471" y="72"/>
			<point x="471" y="136" type="curve" smooth="yes"/>
			<point x="471" y="199"/>
			<point x="526" y="245"/>
			<point x="604" y="244" type="curve" smooth="yes"/>
			<point x="681" y="243"/>
			<point x="736" y="199"/>
			<point x="736" y="136" type="curve" smooth="yes"/>
			<point x="736" y="71"/>
			<point x="686" y="25"/>
		</contour>
		<contour>
			<point x="414" y="322" type="line"/>
			<point x="429" y="312" type="line"/>
			<point x="666" y="600" type="line"/>
			<point x="591" y="600" type="line"/>
		</contour>
		<contour>
			<point x="229" y="323" type="curve" smooth="yes"/>
			<point x="330" y="323"/>
			<point x="397" y="379"/>
			<point x="397" y="463" type="curve" smooth="yes"/>
			<point x="397" y="545"/>
			<point x="330" y="600"/>
			<point x="229" y="600" type="curve" smooth="yes"/>
			<point x="128" y="600"/>
			<point x="60" y="545"/>
			<point x="60" y="463" type="curve" smooth="yes"/>
			<point x="60" y="379"/>
			<point x="128" y="323"/>
		</contour>
		<contour>
			<point x="229" y="352" type="curve" smooth="yes"/>
			<point x="146" y="352"/>
			<point x="96" y="399"/>
			<point x="96" y="463" type="curve" smooth="yes"/>
			<point x="96" y="526"/>
			<point x="151" y="572"/>
			<point x="229" y="571" type="curve" smooth="yes"/>
			<point x="306" y="570"/>
			<point x="361" y="526"/>
			<point x="361" y="463" type="curve" smooth="yes"/>
			<point x="361" y="398"/>
			<point x="311" y="352"/>
		</contour>
		<contour>
			<point x="402" y="278" type="line"/>
			<point x="387" y="288" type="line"/>
			<point x="150" y="0" type="line"/>
			<point x="225" y="0" type="line"/>
		</contour>
		<contour>
			<point x="1004" y="-4" type="curve" smooth="yes"/>
			<point x="1105" y="-4"/>
			<point x="1172" y="52"/>
			<point x="1172" y="136" type="curve" smooth="yes"/>
			<point x="1172" y="218"/>
			<point x="1105" y="273"/>
			<point x="1004" y="273" type="curve" smooth="yes"/>
			<point x="903" y="273"/>
			<point x="835" y="218"/>
			<point x="835" y="136" type="curve" smooth="yes"/>
			<point x="835" y="52"/>
			<point x="903" y="-4"/>
		</contour>
		<contour>
			<point x="1004" y="25" type="curve" smooth="yes"/>
			<point x="921" y="25"/>
			<point x="871" y="72"/>
			<point x="871" y="136" type="curve" smooth="yes"/>
			<point x="871" y="199"/>
			<point x="926" y="245"/>
			<point x="1004" y="244" type="curve" smooth="yes"/>
			<point x="1081" y="243"/>
			<point x="1136" y="199"/>
			<point x="1136" y="136" type="curve" smooth="yes"/>
			<point x="1136" y="71"/>
			<point x="1086" y="25"/>
		</contour>
	</outline>
</glyph>
<glyph name="guilsinglleft" format="2">
  <advance width="264"/>
  <unicode hex="2039"/>
  <outline>
    <contour>
      <point x="212" y="405" type="line"/>
      <point x="20" y="208" type="line"/>
      <point x="212" y="11" type="line"/>
      <point x="225" y="21" type="line"/>
      <point x="75" y="208" type="line"/>
      <point x="225" y="395" type="line"/>
    </contour>
  </outline>
</glyph>
<glyph name="fraction" format="2">
  <advance width="672"/>
  <unicode hex="2044"/>
  <outline>
    <contour>
      <point x="71" y="-3" type="line"/>
      <point x="622" y="604" type="line"/>
      <point x="603" y="620" type="line"/>
      <point x="52" y="13" type="line"/>
    </contour>
  </outline>
</glyph>
<glyph name="zerosuperior" format="2">
  <advance width="481"/>
  <unicode hex="2070"/>
  <outline>
    <contour>
      <point x="241" y="238" type="curve" smooth="yes"/>
      <point x="367" y="238"/>
      <point x="451" y="318"/>
      <point x="451" y="436" type="curve" smooth="yes"/>
      <point x="451" y="551"/>
      <point x="371" y="625"/>
      <point x="247" y="625" type="curve" smooth="yes"/>
      <point x="116" y="625"/>
      <point x="30" y="548"/>
      <point x="30" y="431" type="curve" smooth="yes"/>
      <point x="30" y="317"/>
      <point x="116" y="238"/>
    </contour>
    <contour>
      <point x="244" y="269" type="curve" smooth="yes"/>
      <point x="137" y="269"/>
      <point x="65" y="335"/>
      <point x="65" y="435" type="curve" smooth="yes"/>
      <point x="65" y="530"/>
      <point x="137" y="594"/>
      <point x="245" y="594" type="curve" smooth="yes"/>
      <point x="348" y="594"/>
      <point x="416" y="530"/>
      <point x="416" y="433" type="curve" smooth="yes"/>
      <point x="416" y="335"/>
      <point x="347" y="269"/>
    </contour>
  </outline>
</glyph>
<glyph name="euro" format="2">
	<advance width="839"/>
	<unicode hex="20AC"/>
	<outline>
		<contour>
			<point x="40" y="277" type="line"/>
			<point x="40" y="247" type="line"/>
			<point x="501" y="247" type="line"/>
			<point x="514" y="277" type="line"/>
		</contour>
		<contour>
			<point x="40" y="360" type="line"/>
			<point x="40" y="330" type="line"/>
			<point x="529" y="330" type="line"/>
			<point x="542" y="360" type="line"/>
		</contour>
		<contour>
			<point x="491" y="593" type="curve" smooth="yes"/>
			<point x="566" y="593"/>
			<point x="665" y="576"/>
			<point x="713" y="555" type="curve"/>
			<point x="733" y="378" type="line"/>
			<point x="740" y="376" type="line"/>
			<point x="799" y="572" type="line"/>
			<point x="717" y="602"/>
			<point x="587" y="625"/>
			<point x="494" y="625" type="curve" smooth="yes"/>
			<point x="274" y="625"/>
			<point x="140" y="503"/>
			<point x="140" y="304" type="curve" smooth="yes"/>
			<point x="140" y="102"/>
			<point x="279" y="-20"/>
			<point x="509" y="-20" type="curve" smooth="yes"/>
			<point x="623" y="-20"/>
			<point x="705" y="10"/>
			<point x="776" y="77" type="curve"/>
			<point x="764" y="97" type="line"/>
			<point x="702" y="42"/>
			<point x="614" y="12"/>
			<point x="512" y="12" type="curve" smooth="yes"/>
			<point x="310" y="12"/>
			<point x="177" y="130"/>
			<point x="177" y="310" type="curve" smooth="yes"/>
			<point x="177" y="483"/>
			<point x="300" y="593"/>
		</contour>
	</outline>
</glyph>
<glyph name="trademark" format="2">
  <advance width="833"/>
  <unicode hex="2122"/>
  <outline>
    <contour>
      <point x="78" y="614" type="line"/>
      <point x="93" y="539" type="line"/>
      <point x="97" y="541" type="line"/>
      <point x="109" y="596" type="line"/>
      <point x="191" y="598" type="line"/>
      <point x="191" y="426" type="line"/>
      <point x="145" y="404" type="line"/>
      <point x="147" y="400" type="line"/>
      <point x="257" y="400" type="line"/>
      <point x="259" y="404" type="line"/>
      <point x="213" y="426" type="line"/>
      <point x="213" y="598" type="line"/>
      <point x="295" y="597" type="line"/>
      <point x="311" y="542" type="line"/>
      <point x="315" y="540" type="line"/>
      <point x="326" y="614" type="line"/>
      <point x="202" y="610" type="line"/>
    </contour>
    <contour>
      <point x="336" y="404" type="line"/>
      <point x="337" y="400" type="line"/>
      <point x="465" y="400" type="line"/>
      <point x="467" y="404" type="line"/>
      <point x="411" y="427" type="line"/>
      <point x="447" y="590" type="line"/>
      <point x="434" y="588" type="line"/>
      <point x="540" y="400" type="line"/>
      <point x="553" y="400" type="line"/>
      <point x="653" y="603" type="line"/>
      <point x="636" y="596" type="line"/>
      <point x="679" y="427" type="line"/>
      <point x="625" y="404" type="line"/>
      <point x="627" y="400" type="line"/>
      <point x="752" y="400" type="line"/>
      <point x="754" y="404" type="line"/>
      <point x="700" y="427" type="line"/>
      <point x="661" y="583" type="line"/>
      <point x="704" y="606" type="line"/>
      <point x="702" y="610" type="line"/>
      <point x="637" y="610" type="line"/>
      <point x="539" y="412" type="line"/>
      <point x="553" y="419" type="line"/>
      <point x="445" y="610" type="line"/>
      <point x="376" y="610" type="line"/>
      <point x="374" y="606" type="line"/>
      <point x="426" y="582" type="line"/>
      <point x="389" y="427" type="line"/>
    </contour>
  </outline>
</glyph>
<glyph name="notequal" format="2">
	<advance width="500"/>
	<unicode hex="2260"/>
	<outline>
		<contour>
			<point x="132" y="94" type="line"/>
			<point x="162" y="94" type="line"/>
			<point x="354" y="466" type="line"/>
			<point x="324" y="466" type="line"/>
		</contour>
		<component base="equal"/>
	</outline>
</glyph>
<glyph name="lessequal" format="2">
  <advance width="500"/>
  <unicode hex="2264"/>
  <outline>
    <contour>
      <point x="426" y="128" type="line"/>
      <point x="426" y="161" type="line"/>
      <point x="98" y="305" type="line"/>
      <point x="98" y="286" type="line"/>
      <point x="426" y="429" type="line"/>
      <point x="426" y="462" type="line"/>
      <point x="76" y="308" type="line"/>
      <point x="76" y="283" type="line"/>
    </contour>
    <contour>
      <point x="70" y="68" type="line"/>
      <point x="70" y="40" type="line"/>
      <point x="430" y="40" type="line"/>
      <point x="430" y="68" type="line"/>
    </contour>
  </outline>
</glyph>
<glyph name="greaterequal" format="2">
	<advance width="500"/>
	<unicode hex="2265"/>
	<outline>
		<contour>
			<point x="74" y="128" type="line"/>
			<point x="424" y="282" type="line"/>
			<point x="424" y="307" type="line"/>
			<point x="74" y="462" type="line"/>
			<point x="74" y="429" type="line"/>
			<point x="402" y="285" type="line"/>
			<point x="402" y="304" type="line"/>
			<point x="74" y="161" type="line"/>
		</contour>
		<contour>
			<point x="70" y="68" type="line"/>
			<point x="70" y="40" type="line"/>
			<point x="430" y="40" type="line"/>
			<point x="430" y="68" type="line"/>
		</contour>
	</outline>
</glyph>
<glyph name="T_b.liga" format="2">
	<advance width="1444"/>
	<outline>
		<contour>
			<point x="838" y="580" type="line"/>
			<point x="838" y="51" type="line"/>
			<point x="906" y="7"/>
			<point x="997" y="-20"/>
			<point x="1092" y="-20" type="curve" smooth="yes"/>
			<point x="1276" y="-20"/>
			<point x="1400" y="72"/>
			<point x="1400" y="209" type="curve" smooth="yes"/>
			<point x="1400" y="338"/>
			<point x="1293" y="420"/>
			<point x="1140" y="420" type="curve" smooth="yes"/>
			<point x="1040" y="420"/>
			<point x="938" y="386"/>
			<point x="873" y="336" type="curve"/>
			<point x="873" y="662" type="line"/>
			<point x="742" y="610" type="line"/>
			<point x="414" y="600" type="line"/>
			<point x="35" y="610" type="line"/>
			<point x="73" y="419" type="line"/>
			<point x="81" y="421" type="line"/>
			<point x="107" y="579" type="line"/>
			<point x="395" y="579" type="line"/>
			<point x="396" y="50" type="line"/>
			<point x="246" y="8" type="line"/>
			<point x="248" y="0" type="line"/>
			<point x="581" y="0" type="line"/>
			<point x="583" y="8" type="line"/>
			<point x="433" y="50" type="line"/>
			<point x="432" y="579" type="line"/>
		</contour>
		<contour>
			<point x="873" y="67" type="curve"/>
			<point x="873" y="303" type="line"/>
			<point x="922" y="351"/>
			<point x="1028" y="391"/>
			<point x="1127" y="391" type="curve" smooth="yes"/>
			<point x="1256" y="391"/>
			<point x="1365" y="320"/>
			<point x="1365" y="198" type="curve" smooth="yes"/>
			<point x="1365" y="84"/>
			<point x="1257" y="5"/>
			<point x="1102" y="5" type="curve" smooth="yes"/>
			<point x="1019" y="5"/>
			<point x="927" y="30"/>
		</contour>
	</outline>
</glyph>
<glyph name="T_h.liga" format="2">
  <advance width="1572"/>
  <anchor x="430" y="0" name="bottom"/>
  <anchor x="414" y="300" name="center"/>
  <anchor x="414" y="600" name="top"/>
  <outline>
    <contour>
      <point x="35" y="610" type="line"/>
      <point x="73" y="419" type="line"/>
      <point x="81" y="421" type="line"/>
      <point x="107" y="579" type="line"/>
      <point x="395" y="579" type="line"/>
      <point x="396" y="50" type="line"/>
      <point x="246" y="8" type="line"/>
      <point x="248" y="0" type="line"/>
      <point x="581" y="0" type="line"/>
      <point x="583" y="8" type="line"/>
      <point x="433" y="50" type="line"/>
      <point x="432" y="579" type="line"/>
      <point x="888" y="580" type="line"/>
      <point x="888" y="50" type="line"/>
      <point x="748" y="6" type="line"/>
      <point x="750" y="0" type="line"/>
      <point x="1071" y="0" type="line"/>
      <point x="1073" y="6" type="line"/>
      <point x="923" y="50" type="line"/>
      <point x="923" y="662" type="line"/>
      <point x="792" y="610" type="line"/>
      <point x="414" y="600" type="line"/>
    </contour>
    <contour>
      <point x="913" y="323" type="curve"/>
      <point x="913" y="297" type="line"/>
      <point x="1016" y="365"/>
      <point x="1103" y="392"/>
      <point x="1196" y="392" type="curve" smooth="yes"/>
      <point x="1329" y="392"/>
      <point x="1386" y="331"/>
      <point x="1387" y="217" type="curve" smooth="yes"/>
      <point x="1388" y="50" type="line"/>
      <point x="1238" y="8" type="line"/>
      <point x="1240" y="0" type="line"/>
      <point x="1551" y="1" type="line"/>
      <point x="1553" y="9" type="line"/>
      <point x="1422" y="49" type="line"/>
      <point x="1422" y="224" type="line" smooth="yes"/>
      <point x="1422" y="351"/>
      <point x="1353" y="420"/>
      <point x="1208" y="420" type="curve" smooth="yes"/>
      <point x="1113" y="420"/>
      <point x="1016" y="390"/>
    </contour>
  </outline>
</glyph>
<glyph name="T_l.liga" format="2">
	<advance width="1082"/>
	<outline>
		<contour>
			<point x="35" y="610" type="line"/>
			<point x="73" y="419" type="line"/>
			<point x="81" y="421" type="line"/>
			<point x="107" y="579" type="line"/>
			<point x="395" y="579" type="line"/>
			<point x="396" y="50" type="line"/>
			<point x="246" y="8" type="line"/>
			<point x="248" y="0" type="line"/>
			<point x="581" y="0" type="line"/>
			<point x="583" y="8" type="line"/>
			<point x="433" y="50" type="line"/>
			<point x="432" y="579" type="line"/>
			<point x="888" y="580" type="line"/>
			<point x="888" y="50" type="line"/>
			<point x="748" y="6" type="line"/>
			<point x="750" y="0" type="line"/>
			<point x="1071" y="0" type="line"/>
			<point x="1073" y="6" type="line"/>
			<point x="923" y="50" type="line"/>
			<point x="923" y="662" type="line"/>
			<point x="792" y="610" type="line"/>
			<point x="414" y="600" type="line"/>
		</contour>
	</outline>
</glyph>
<glyph name=".notdef" format="2">
  <advance width="562"/>
  <outline>
    <contour>
      <point x="282" y="482" type="curve" smooth="yes"/>
      <point x="307" y="482"/>
      <point x="329" y="504"/>
      <point x="329" y="530" type="curve" smooth="yes"/>
      <point x="329" y="554"/>
      <point x="307" y="576"/>
      <point x="282" y="576" type="curve" smooth="yes"/>
      <point x="257" y="576"/>
      <point x="235" y="554"/>
      <point x="235" y="530" type="curve" smooth="yes"/>
      <point x="235" y="504"/>
      <point x="257" y="482"/>
    </contour>
    <contour>
      <point x="282" y="504" type="curve" smooth="yes"/>
      <point x="268" y="504"/>
      <point x="257" y="516"/>
      <point x="257" y="530" type="curve" smooth="yes"/>
      <point x="257" y="543"/>
      <point x="268" y="554"/>
      <point x="282" y="554" type="curve" smooth="yes"/>
      <point x="295" y="554"/>
      <point x="307" y="543"/>
      <point x="307" y="530" type="curve" smooth="yes"/>
      <point x="307" y="516"/>
      <point x="295" y="504"/>
    </contour>
    <contour>
      <point x="281" y="2" type="curve"/>
      <point x="248" y="-44"/>
      <point x="157" y="-81"/>
      <point x="100" y="-80" type="curve"/>
      <point x="143" y="48"/>
      <point x="60" y="107"/>
      <point x="215" y="166" type="curve"/>
      <point x="151" y="274"/>
      <point x="123" y="361"/>
      <point x="123" y="432" type="curve" smooth="yes"/>
      <point x="123" y="545"/>
      <point x="210" y="681"/>
      <point x="281" y="681" type="curve" smooth="yes"/>
      <point x="352" y="681"/>
      <point x="439" y="545"/>
      <point x="439" y="432" type="curve" smooth="yes"/>
      <point x="439" y="361"/>
      <point x="401" y="274"/>
      <point x="337" y="166" type="curve"/>
      <point x="492" y="107"/>
      <point x="419" y="48"/>
      <point x="462" y="-80" type="curve"/>
      <point x="405" y="-81"/>
      <point x="314" y="-44"/>
    </contour>
  </outline>
</glyph>
<glyph name="brevecomb.case" format="2">
  <advance width="473"/>
  <anchor x="237" y="592" name="_top"/>
  <outline>
    <contour>
      <point x="396" y="796" type="curve"/>
      <point x="362" y="796" type="line"/>
      <point x="356" y="753"/>
      <point x="309" y="728"/>
      <point x="237" y="728" type="curve" smooth="yes"/>
      <point x="165" y="728"/>
      <point x="119" y="752"/>
      <point x="111" y="796" type="curve"/>
      <point x="77" y="796" type="line"/>
      <point x="79" y="724"/>
      <point x="145" y="675"/>
      <point x="237" y="675" type="curve" smooth="yes"/>
      <point x="330" y="675"/>
      <point x="395" y="724"/>
    </contour>
  </outline>
</glyph>
<glyph name="caroncomb.alt" format="2">
	<advance width="243"/>
	<anchor x="73" y="690" name="_topright"/>
	<outline>
		<contour>
			<point x="136" y="685" type="line"/>
			<point x="73" y="695" type="line"/>
			<point x="73" y="490" type="line"/>
			<point x="87" y="486" type="line"/>
		</contour>
	</outline>
</glyph>
<glyph name="circumflexcomb.case" format="2">
	<advance width="457"/>
	<anchor x="229" y="592" name="_top"/>
	<outline>
		<contour>
			<point x="229" y="790" type="line"/>
			<point x="55" y="699" type="line"/>
			<point x="61" y="682" type="line"/>
			<point x="229" y="728" type="line"/>
			<point x="396" y="682" type="line"/>
			<point x="402" y="699" type="line"/>
		</contour>
	</outline>
</glyph>
<glyph name="dieresiscomb.case" format="2">
	<advance width="410"/>
	<anchor x="205" y="591" name="_top"/>
	<outline>
		<contour>
			<point x="61" y="782" type="line"/>
			<point x="61" y="690" type="line"/>
			<point x="132" y="690" type="line"/>
			<point x="132" y="782" type="line"/>
		</contour>
		<contour>
			<point x="278" y="782" type="line"/>
			<point x="278" y="690" type="line"/>
			<point x="349" y="690" type="line"/>
			<point x="349" y="782" type="line"/>
		</contour>
	</outline>
</glyph>
<glyph name="dotaccentcomb.case" format="2">
  <advance width="210"/>
  <anchor x="105" y="591" name="_top"/>
  <outline>
    <contour>
      <point x="69" y="782" type="line"/>
      <point x="69" y="690" type="line"/>
      <point x="140" y="690" type="line"/>
      <point x="140" y="782" type="line"/>
    </contour>
  </outline>
</glyph>
<glyph name="f_b.liga" format="2">
  <advance width="1284"/>
  <outline>
    <contour>
      <point x="673" y="631" type="curve"/>
      <point x="673" y="53" type="line"/>
      <point x="739" y="8"/>
      <point x="832" y="-20"/>
      <point x="928" y="-20" type="curve" smooth="yes"/>
      <point x="1114" y="-20"/>
      <point x="1240" y="74"/>
      <point x="1240" y="211" type="curve" smooth="yes"/>
      <point x="1240" y="338"/>
      <point x="1133" y="421"/>
      <point x="980" y="421" type="curve" smooth="yes"/>
      <point x="880" y="421"/>
      <point x="779" y="387"/>
      <point x="713" y="336" type="curve"/>
      <point x="713" y="720" type="line"/>
      <point x="637" y="683" type="line"/>
      <point x="570" y="700"/>
      <point x="491" y="711"/>
      <point x="413" y="711" type="curve" smooth="yes"/>
      <point x="265" y="711"/>
      <point x="138" y="643"/>
      <point x="138" y="464" type="curve" smooth="yes"/>
      <point x="138" y="415" type="line"/>
      <point x="28" y="384" type="line"/>
      <point x="30" y="374" type="line"/>
      <point x="138" y="374" type="line"/>
      <point x="139" y="50" type="line"/>
      <point x="19" y="8" type="line"/>
      <point x="21" y="0" type="line"/>
      <point x="395" y="0" type="line"/>
      <point x="397" y="8" type="line"/>
      <point x="177" y="49" type="line"/>
      <point x="177" y="375" type="line"/>
      <point x="435" y="375" type="line"/>
      <point x="452" y="273" type="line"/>
      <point x="460" y="271" type="line"/>
      <point x="501" y="401" type="line"/>
      <point x="177" y="401" type="line"/>
      <point x="177" y="464" type="line" smooth="yes"/>
      <point x="177" y="633"/>
      <point x="287" y="684"/>
      <point x="410" y="684" type="curve" smooth="yes"/>
      <point x="481" y="684"/>
      <point x="607" y="664"/>
    </contour>
    <contour>
      <point x="713" y="68" type="curve"/>
      <point x="713" y="302" type="line"/>
      <point x="764" y="352"/>
      <point x="868" y="391"/>
      <point x="965" y="391" type="curve" smooth="yes"/>
      <point x="1095" y="391"/>
      <point x="1201" y="319"/>
      <point x="1201" y="198" type="curve" smooth="yes"/>
      <point x="1201" y="85"/>
      <point x="1094" y="7"/>
      <point x="941" y="7" type="curve" smooth="yes"/>
      <point x="858" y="7"/>
      <point x="766" y="31"/>
    </contour>
  </outline>
</glyph>
<glyph name="f_f" format="2">
  <advance width="1014"/>
  <outline>
    <contour>
      <point x="614" y="464" type="curve" smooth="yes"/>
      <point x="614" y="401" type="line"/>
      <point x="177" y="401" type="line"/>
      <point x="177" y="465" type="line" smooth="yes"/>
      <point x="177" y="593"/>
      <point x="286" y="654"/>
      <point x="404" y="654" type="curve" smooth="yes"/>
      <point x="466" y="654"/>
      <point x="561" y="637"/>
      <point x="629" y="595" type="curve"/>
      <point x="619" y="562"/>
      <point x="614" y="519"/>
    </contour>
    <contour>
      <point x="794" y="684" type="curve" smooth="yes"/>
      <point x="849" y="684"/>
      <point x="900" y="674"/>
      <point x="958" y="657" type="curve"/>
      <point x="974" y="532" type="line"/>
      <point x="982" y="530" type="line"/>
      <point x="1027" y="666" type="line"/>
      <point x="934" y="698"/>
      <point x="860" y="711"/>
      <point x="803" y="711" type="curve" smooth="yes"/>
      <point x="720" y="711"/>
      <point x="669" y="687"/>
      <point x="641" y="629" type="curve"/>
      <point x="544" y="671"/>
      <point x="478" y="681"/>
      <point x="408" y="681" type="curve" smooth="yes"/>
      <point x="265" y="681"/>
      <point x="138" y="604"/>
      <point x="138" y="464" type="curve" smooth="yes"/>
      <point x="138" y="415" type="line"/>
      <point x="28" y="384" type="line"/>
      <point x="30" y="374" type="line"/>
      <point x="138" y="374" type="line"/>
      <point x="139" y="50" type="line"/>
      <point x="19" y="8" type="line"/>
      <point x="21" y="0" type="line"/>
      <point x="395" y="0" type="line"/>
      <point x="397" y="8" type="line"/>
      <point x="177" y="49" type="line"/>
      <point x="177" y="375" type="line"/>
      <point x="614" y="375" type="line"/>
      <point x="615" y="50" type="line"/>
      <point x="495" y="8" type="line"/>
      <point x="497" y="0" type="line"/>
      <point x="871" y="0" type="line"/>
      <point x="873" y="8" type="line"/>
      <point x="653" y="49" type="line"/>
      <point x="653" y="375" type="line"/>
      <point x="888" y="375" type="line"/>
      <point x="905" y="273" type="line"/>
      <point x="913" y="271" type="line"/>
      <point x="953" y="401" type="line"/>
      <point x="653" y="401" type="line"/>
      <point x="653" y="464" type="line" smooth="yes"/>
      <point x="653" y="636"/>
      <point x="685" y="684"/>
    </contour>
  </outline>
</glyph>
<glyph name="f_f_b.liga" format="2">
	<advance width="1759"/>
	<outline>
		<contour>
			<point x="1148" y="631" type="curve"/>
			<point x="1148" y="53" type="line"/>
			<point x="1215" y="7"/>
			<point x="1308" y="-20"/>
			<point x="1403" y="-20" type="curve" smooth="yes"/>
			<point x="1589" y="-20"/>
			<point x="1715" y="74"/>
			<point x="1715" y="211" type="curve" smooth="yes"/>
			<point x="1715" y="338"/>
			<point x="1608" y="421"/>
			<point x="1455" y="421" type="curve" smooth="yes"/>
			<point x="1356" y="421"/>
			<point x="1253" y="387"/>
			<point x="1187" y="336" type="curve"/>
			<point x="1187" y="720" type="line"/>
			<point x="1111" y="683" type="line"/>
			<point x="1043" y="700"/>
			<point x="967" y="711"/>
			<point x="887" y="711" type="curve" smooth="yes"/>
			<point x="785" y="711"/>
			<point x="706" y="679"/>
			<point x="660" y="620" type="curve"/>
			<point x="553" y="669"/>
			<point x="480" y="681"/>
			<point x="408" y="681" type="curve" smooth="yes"/>
			<point x="265" y="681"/>
			<point x="138" y="604"/>
			<point x="138" y="464" type="curve" smooth="yes"/>
			<point x="138" y="415" type="line"/>
			<point x="28" y="384" type="line"/>
			<point x="30" y="374" type="line"/>
			<point x="138" y="374" type="line"/>
			<point x="139" y="50" type="line"/>
			<point x="19" y="8" type="line"/>
			<point x="21" y="0" type="line"/>
			<point x="395" y="0" type="line"/>
			<point x="397" y="8" type="line"/>
			<point x="177" y="49" type="line"/>
			<point x="177" y="375" type="line"/>
			<point x="613" y="375" type="line"/>
			<point x="614" y="50" type="line"/>
			<point x="494" y="8" type="line"/>
			<point x="496" y="0" type="line"/>
			<point x="870" y="0" type="line"/>
			<point x="872" y="8" type="line"/>
			<point x="652" y="49" type="line"/>
			<point x="652" y="375" type="line"/>
			<point x="910" y="375" type="line"/>
			<point x="927" y="273" type="line"/>
			<point x="935" y="271" type="line"/>
			<point x="975" y="401" type="line"/>
			<point x="652" y="401" type="line"/>
			<point x="652" y="464" type="line" smooth="yes"/>
			<point x="652" y="633"/>
			<point x="763" y="684"/>
			<point x="885" y="684" type="curve" smooth="yes"/>
			<point x="957" y="684"/>
			<point x="1081" y="664"/>
		</contour>
		<contour>
			<point x="177" y="401" type="line"/>
			<point x="177" y="465" type="line" smooth="yes"/>
			<point x="177" y="593"/>
			<point x="286" y="654"/>
			<point x="404" y="654" type="curve" smooth="yes"/>
			<point x="469" y="654"/>
			<point x="571" y="636"/>
			<point x="640" y="588" type="curve"/>
			<point x="622" y="555"/>
			<point x="613" y="514"/>
			<point x="613" y="464" type="curve" smooth="yes"/>
			<point x="613" y="401" type="line"/>
		</contour>
		<contour>
			<point x="1187" y="68" type="curve"/>
			<point x="1187" y="302" type="line"/>
			<point x="1238" y="351"/>
			<point x="1340" y="391"/>
			<point x="1439" y="391" type="curve" smooth="yes"/>
			<point x="1569" y="391"/>
			<point x="1675" y="319"/>
			<point x="1675" y="198" type="curve" smooth="yes"/>
			<point x="1675" y="85"/>
			<point x="1569" y="7"/>
			<point x="1415" y="7" type="curve" smooth="yes"/>
			<point x="1331" y="7"/>
			<point x="1241" y="31"/>
		</contour>
	</outline>
</glyph>
<glyph name="f_f_k.liga" format="2">
	<advance width="1835"/>
	<outline>
		<contour>
			<point x="1148" y="631" type="curve"/>
			<point x="1148" y="50" type="line"/>
			<point x="998" y="8" type="line"/>
			<point x="1000" y="0" type="line"/>
			<point x="1335" y="0" type="line"/>
			<point x="1337" y="8" type="line"/>
			<point x="1187" y="50" type="line"/>
			<point x="1187" y="720" type="line"/>
			<point x="1111" y="683" type="line"/>
			<point x="1043" y="700"/>
			<point x="967" y="711"/>
			<point x="887" y="711" type="curve" smooth="yes"/>
			<point x="785" y="711"/>
			<point x="706" y="679"/>
			<point x="660" y="620" type="curve"/>
			<point x="553" y="669"/>
			<point x="480" y="681"/>
			<point x="408" y="681" type="curve" smooth="yes"/>
			<point x="265" y="681"/>
			<point x="138" y="604"/>
			<point x="138" y="464" type="curve" smooth="yes"/>
			<point x="138" y="415" type="line"/>
			<point x="28" y="384" type="line"/>
			<point x="30" y="374" type="line"/>
			<point x="138" y="374" type="line"/>
			<point x="139" y="50" type="line"/>
			<point x="19" y="8" type="line"/>
			<point x="21" y="0" type="line"/>
			<point x="395" y="0" type="line"/>
			<point x="397" y="8" type="line"/>
			<point x="177" y="49" type="line"/>
			<point x="177" y="375" type="line"/>
			<point x="613" y="375" type="line"/>
			<point x="614" y="50" type="line"/>
			<point x="494" y="8" type="line"/>
			<point x="496" y="0" type="line"/>
			<point x="870" y="0" type="line"/>
			<point x="872" y="8" type="line"/>
			<point x="652" y="49" type="line"/>
			<point x="652" y="375" type="line"/>
			<point x="910" y="375" type="line"/>
			<point x="927" y="273" type="line"/>
			<point x="935" y="271" type="line"/>
			<point x="975" y="401" type="line"/>
			<point x="652" y="401" type="line"/>
			<point x="652" y="464" type="line" smooth="yes"/>
			<point x="652" y="633"/>
			<point x="763" y="684"/>
			<point x="885" y="684" type="curve" smooth="yes"/>
			<point x="957" y="684"/>
			<point x="1081" y="664"/>
		</contour>
		<contour>
			<point x="613" y="464" type="curve" smooth="yes"/>
			<point x="613" y="401" type="line"/>
			<point x="177" y="401" type="line"/>
			<point x="177" y="465" type="line" smooth="yes"/>
			<point x="177" y="593"/>
			<point x="286" y="654"/>
			<point x="404" y="654" type="curve" smooth="yes"/>
			<point x="469" y="654"/>
			<point x="571" y="636"/>
			<point x="640" y="588" type="curve"/>
			<point x="622" y="555"/>
			<point x="613" y="514"/>
		</contour>
		<contour>
			<point x="1181" y="118" type="line"/>
			<point x="1606" y="351" type="line"/>
			<point x="1766" y="393" type="line"/>
			<point x="1764" y="401" type="line"/>
			<point x="1387" y="401" type="line"/>
			<point x="1385" y="393" type="line"/>
			<point x="1546" y="351" type="line"/>
			<point x="1170" y="143" type="line"/>
		</contour>
		<contour>
			<point x="1404" y="260" type="line"/>
			<point x="1369" y="241" type="line"/>
			<point x="1635" y="50" type="line"/>
			<point x="1475" y="8" type="line"/>
			<point x="1477" y="0" type="line"/>
			<point x="1824" y="0" type="line"/>
			<point x="1826" y="8" type="line"/>
			<point x="1692" y="50" type="line"/>
		</contour>
	</outline>
</glyph>
<glyph name="f_h.liga" format="2">
	<advance width="1365"/>
	<outline>
		<contour>
			<point x="138" y="464" type="curve" smooth="yes"/>
			<point x="138" y="415" type="line"/>
			<point x="28" y="384" type="line"/>
			<point x="30" y="374" type="line"/>
			<point x="138" y="374" type="line"/>
			<point x="139" y="50" type="line"/>
			<point x="19" y="8" type="line"/>
			<point x="21" y="0" type="line"/>
			<point x="395" y="0" type="line"/>
			<point x="397" y="8" type="line"/>
			<point x="177" y="49" type="line"/>
			<point x="177" y="375" type="line"/>
			<point x="435" y="375" type="line"/>
			<point x="452" y="273" type="line"/>
			<point x="460" y="271" type="line"/>
			<point x="501" y="401" type="line"/>
			<point x="177" y="401" type="line"/>
			<point x="177" y="464" type="line" smooth="yes"/>
			<point x="177" y="633"/>
			<point x="287" y="684"/>
			<point x="410" y="684" type="curve" smooth="yes"/>
			<point x="481" y="684"/>
			<point x="607" y="664"/>
			<point x="673" y="631" type="curve"/>
			<point x="673" y="50" type="line"/>
			<point x="523" y="8" type="line"/>
			<point x="525" y="0" type="line"/>
			<point x="861" y="0" type="line"/>
			<point x="863" y="8" type="line"/>
			<point x="713" y="50" type="line"/>
			<point x="713" y="720" type="line"/>
			<point x="637" y="683" type="line"/>
			<point x="570" y="700"/>
			<point x="491" y="711"/>
			<point x="413" y="711" type="curve" smooth="yes"/>
			<point x="265" y="711"/>
			<point x="138" y="643"/>
		</contour>
		<contour>
			<point x="701" y="323" type="curve"/>
			<point x="701" y="296" type="line"/>
			<point x="802" y="363"/>
			<point x="891" y="391"/>
			<point x="982" y="391" type="curve" smooth="yes"/>
			<point x="1114" y="391"/>
			<point x="1172" y="330"/>
			<point x="1173" y="217" type="curve" smooth="yes"/>
			<point x="1174" y="50" type="line"/>
			<point x="1024" y="8" type="line"/>
			<point x="1026" y="0" type="line"/>
			<point x="1344" y="1" type="line"/>
			<point x="1346" y="9" type="line"/>
			<point x="1212" y="49" type="line"/>
			<point x="1212" y="223" type="line" smooth="yes"/>
			<point x="1212" y="351"/>
			<point x="1142" y="421"/>
			<point x="997" y="421" type="curve" smooth="yes"/>
			<point x="898" y="421"/>
			<point x="800" y="388"/>
		</contour>
	</outline>
</glyph>
<glyph name="f_k.liga" format="2">
	<advance width="1361"/>
	<outline>
		<contour>
			<point x="138" y="464" type="curve" smooth="yes"/>
			<point x="138" y="415" type="line"/>
			<point x="28" y="384" type="line"/>
			<point x="30" y="374" type="line"/>
			<point x="138" y="374" type="line"/>
			<point x="139" y="50" type="line"/>
			<point x="19" y="8" type="line"/>
			<point x="21" y="0" type="line"/>
			<point x="395" y="0" type="line"/>
			<point x="397" y="8" type="line"/>
			<point x="177" y="49" type="line"/>
			<point x="177" y="375" type="line"/>
			<point x="435" y="375" type="line"/>
			<point x="452" y="273" type="line"/>
			<point x="460" y="271" type="line"/>
			<point x="501" y="401" type="line"/>
			<point x="177" y="401" type="line"/>
			<point x="177" y="464" type="line" smooth="yes"/>
			<point x="177" y="633"/>
			<point x="287" y="684"/>
			<point x="410" y="684" type="curve" smooth="yes"/>
			<point x="481" y="684"/>
			<point x="607" y="664"/>
			<point x="673" y="631" type="curve"/>
			<point x="673" y="50" type="line"/>
			<point x="523" y="8" type="line"/>
			<point x="525" y="0" type="line"/>
			<point x="861" y="0" type="line"/>
			<point x="863" y="8" type="line"/>
			<point x="713" y="50" type="line"/>
			<point x="713" y="720" type="line"/>
			<point x="637" y="683" type="line"/>
			<point x="570" y="700"/>
			<point x="491" y="711"/>
			<point x="413" y="711" type="curve" smooth="yes"/>
			<point x="265" y="711"/>
			<point x="138" y="643"/>
		</contour>
		<contour>
			<point x="706" y="118" type="line"/>
			<point x="1131" y="351" type="line"/>
			<point x="1293" y="393" type="line"/>
			<point x="1291" y="401" type="line"/>
			<point x="914" y="401" type="line"/>
			<point x="912" y="393" type="line"/>
			<point x="1072" y="351" type="line"/>
			<point x="696" y="143" type="line"/>
		</contour>
		<contour>
			<point x="928" y="259" type="line"/>
			<point x="894" y="241" type="line"/>
			<point x="1160" y="50" type="line"/>
			<point x="1000" y="8" type="line"/>
			<point x="1002" y="0" type="line"/>
			<point x="1350" y="0" type="line"/>
			<point x="1352" y="8" type="line"/>
			<point x="1216" y="50" type="line"/>
		</contour>
	</outline>
</glyph>
<glyph name="f_l.liga" format="2">
  <advance width="872"/>
  <outline>
    <contour>
      <point x="138" y="464" type="curve" smooth="yes"/>
      <point x="138" y="415" type="line"/>
      <point x="28" y="384" type="line"/>
      <point x="30" y="374" type="line"/>
      <point x="138" y="374" type="line"/>
      <point x="139" y="50" type="line"/>
      <point x="19" y="8" type="line"/>
      <point x="21" y="0" type="line"/>
      <point x="395" y="0" type="line"/>
      <point x="397" y="8" type="line"/>
      <point x="177" y="49" type="line"/>
      <point x="177" y="375" type="line"/>
      <point x="435" y="375" type="line"/>
      <point x="452" y="273" type="line"/>
      <point x="460" y="271" type="line"/>
      <point x="501" y="401" type="line"/>
      <point x="177" y="401" type="line"/>
      <point x="177" y="464" type="line" smooth="yes"/>
      <point x="177" y="633"/>
      <point x="287" y="684"/>
      <point x="410" y="684" type="curve" smooth="yes"/>
      <point x="481" y="684"/>
      <point x="607" y="664"/>
      <point x="673" y="631" type="curve"/>
      <point x="673" y="50" type="line"/>
      <point x="523" y="8" type="line"/>
      <point x="525" y="0" type="line"/>
      <point x="861" y="0" type="line"/>
      <point x="863" y="8" type="line"/>
      <point x="713" y="50" type="line"/>
      <point x="713" y="720" type="line"/>
      <point x="637" y="683" type="line"/>
      <point x="570" y="700"/>
      <point x="491" y="711"/>
      <point x="413" y="711" type="curve" smooth="yes"/>
      <point x="265" y="711"/>
      <point x="138" y="643"/>
    </contour>
  </outline>
</glyph>
<glyph name="gravecomb.case" format="2">
  <advance width="362"/>
  <anchor x="215" y="593" name="_top"/>
  <outline>
    <contour>
      <point x="60" y="744" type="line"/>
      <point x="292" y="672" type="line"/>
      <point x="297" y="685" type="line"/>
      <point x="87" y="807" type="line"/>
    </contour>
  </outline>
</glyph>
<glyph name="hungarumlautcomb.case" format="2">
  <advance width="492"/>
  <anchor x="175" y="593" name="_top"/>
  <outline>
    <contour>
      <point x="446" y="733" type="line"/>
      <point x="419" y="795" type="line"/>
      <point x="206" y="687" type="line"/>
      <point x="211" y="670" type="line"/>
    </contour>
    <contour>
      <point x="284" y="762" type="line"/>
      <point x="246" y="819" type="line"/>
      <point x="56" y="680" type="line"/>
      <point x="63" y="666" type="line"/>
    </contour>
  </outline>
</glyph>
<glyph name="macroncomb.case" format="2">
	<advance width="440"/>
	<anchor x="220" y="589" name="_top"/>
	<outline>
		<contour>
			<point x="64" y="760" type="line"/>
			<point x="64" y="708" type="line"/>
			<point x="376" y="708" type="line"/>
			<point x="376" y="760" type="line"/>
		</contour>
	</outline>
</glyph>
<glyph name="ringcomb.case" format="2">
	<advance width="347"/>
	<anchor x="174" y="594" name="_top"/>
	<outline>
		<contour>
			<point x="170" y="655" type="curve" smooth="yes"/>
			<point x="252" y="655"/>
			<point x="304" y="691"/>
			<point x="304" y="747" type="curve" smooth="yes"/>
			<point x="304" y="800"/>
			<point x="255" y="833"/>
			<point x="178" y="833" type="curve" smooth="yes"/>
			<point x="95" y="833"/>
			<point x="43" y="798"/>
			<point x="43" y="742" type="curve" smooth="yes"/>
			<point x="43" y="689"/>
			<point x="92" y="655"/>
		</contour>
		<contour>
			<point x="178" y="690" type="curve" smooth="yes"/>
			<point x="129" y="690"/>
			<point x="97" y="712"/>
			<point x="97" y="747" type="curve" smooth="yes"/>
			<point x="97" y="778"/>
			<point x="125" y="798"/>
			<point x="170" y="798" type="curve" smooth="yes"/>
			<point x="219" y="798"/>
			<point x="250" y="776"/>
			<point x="250" y="742" type="curve" smooth="yes"/>
			<point x="250" y="709"/>
			<point x="223" y="690"/>
		</contour>
	</outline>
</glyph>
<glyph name="tildecomb.case" format="2">
	<advance width="489"/>
	<anchor x="235" y="591" name="_top"/>
	<outline>
		<contour>
			<point x="408" y="771" type="curve"/>
			<point x="391" y="780" type="line"/>
			<point x="378" y="758"/>
			<point x="348" y="744"/>
			<point x="315" y="744" type="curve" smooth="yes"/>
			<point x="262" y="744"/>
			<point x="245" y="783"/>
			<point x="181" y="783" type="curve" smooth="yes"/>
			<point x="125" y="783"/>
			<point x="73" y="755"/>
			<point x="62" y="701" type="curve"/>
			<point x="79" y="692" type="line"/>
			<point x="101" y="719"/>
			<point x="131" y="727"/>
			<point x="155" y="727" type="curve" smooth="yes"/>
			<point x="208" y="727"/>
			<point x="232" y="689"/>
			<point x="293" y="689" type="curve" smooth="yes"/>
			<point x="355" y="689"/>
			<point x="401" y="727"/>
		</contour>
	</outline>
</glyph>
